<?xml version="1.0" encoding="UTF-8" standalone="no"?>
<!DOCTYPE svg PUBLIC "-//W3C//DTD SVG 1.1//EN"
 "http://www.w3.org/Graphics/SVG/1.1/DTD/svg11.dtd">
<!-- Generated by graphviz version 2.36.0 (20140111.2315)
 -->
<!-- Title: Hosts.h Pages: 1 -->
<!--zoomable 476 -->
<svg id="main" version="1.1" xmlns="http://www.w3.org/2000/svg" xmlns:xlink="http://www.w3.org/1999/xlink" xml:space="preserve" onload="init(evt)">
<style type="text/css"><![CDATA[
.edge:hover path { stroke: red; }
.edge:hover polygon { stroke: red; fill: red; }
]]></style>
<script type="text/javascript"><![CDATA[
var edges = document.getElementsByTagName('g');
if (edges && edges.length) {
  for (var i=0;i<edges.length;i++) {
    if (edges[i].id.substr(0,4)=='edge') {
      edges[i].setAttribute('class','edge');
    }
  }
}
]]></script>
        <defs>
                <circle id="rim" cx="0" cy="0" r="7"/>
                <circle id="rim2" cx="0" cy="0" r="3.5"/>
                <g id="zoomPlus">
                        <use xlink:href="#rim" fill="#404040">
                                <set attributeName="fill" to="#808080" begin="zoomplus.mouseover" end="zoomplus.mouseout"/>
                        </use>
                        <path d="M-4,0h8M0,-4v8" fill="none" stroke="white" stroke-width="1.5" pointer-events="none"/>
                </g>
                <g id="zoomMin">
                        <use xlink:href="#rim" fill="#404040">
                                <set attributeName="fill" to="#808080" begin="zoomminus.mouseover" end="zoomminus.mouseout"/>
                        </use>
                        <path d="M-4,0h8" fill="none" stroke="white" stroke-width="1.5" pointer-events="none"/>
                </g>
                <g id="dirArrow">
                        <path fill="none" stroke="white" stroke-width="1.5" d="M0,-3.0v7 M-2.5,-0.5L0,-3.0L2.5,-0.5"/>
                </g>
               <g id="resetDef">
                       <use xlink:href="#rim2" fill="#404040">
                               <set attributeName="fill" to="#808080" begin="reset.mouseover" end="reset.mouseout"/>
                       </use>
               </g>
        </defs>

<script type="text/javascript">
var viewWidth = 1278;
var viewHeight = 476;
var sectionId = 'dynsection-1';
</script>
<script xlink:href="svgpan.js"/>
<svg id="graph" class="graph">
<g id="viewport">
<title>Hosts.h</title>
<polygon fill="white" stroke="none" points="-4,4 -4,-472 1274,-472 1274,4 -4,4"/>
<!-- Node1 -->
<g id="node1" class="node"><title>Node1</title>
<polygon fill="#bfbfbf" stroke="black" points="831.5,-448.5 831.5,-467.5 882.5,-467.5 882.5,-448.5 831.5,-448.5"/>
<text text-anchor="middle" x="857" y="-455.5" font-family="Helvetica,sans-Serif" font-size="10.00">Hosts.h</text>
</g>
<!-- Node2 -->
<g id="node2" class="node"><title>Node2</title>
<g id="a_node2"><a xlink:href="_hosts_8cpp_source.html" target="_top" xlink:title="Hosts.cpp">
<polygon fill="white" stroke="black" points="742,-392.5 742,-411.5 804,-411.5 804,-392.5 742,-392.5"/>
<text text-anchor="middle" x="773" y="-399.5" font-family="Helvetica,sans-Serif" font-size="10.00">Hosts.cpp</text>
</a>
</g>
</g>
<!-- Node1&#45;&gt;Node2 -->
<g id="edge1" class="edge"><title>Node1&#45;&gt;Node2</title>
<path fill="none" stroke="midnightblue" d="M835.068,-442.901C819.665,-432.999 799.554,-420.071 786.463,-411.655"/>
<polygon fill="midnightblue" stroke="midnightblue" points="833.199,-445.86 843.504,-448.324 836.985,-439.972 833.199,-445.86"/>
</g>
<!-- Node3 -->
<g id="node3" class="node"><title>Node3</title>
<g id="a_node3"><a xlink:href="_i_plug_a_u_8cpp_source.html" target="_top" xlink:title="IPlugAU.cpp">
<polygon fill="white" stroke="black" points="1198,-224.5 1198,-243.5 1270,-243.5 1270,-224.5 1198,-224.5"/>
<text text-anchor="middle" x="1234" y="-231.5" font-family="Helvetica,sans-Serif" font-size="10.00">IPlugAU.cpp</text>
</a>
</g>
</g>
<!-- Node1&#45;&gt;Node3 -->
<g id="edge2" class="edge"><title>Node1&#45;&gt;Node3</title>
<path fill="none" stroke="midnightblue" d="M892.988,-451.163C964.413,-437.7 1124.78,-397.801 1213,-300 1227.62,-283.798 1232.07,-257.307 1233.42,-243.688"/>
<polygon fill="midnightblue" stroke="midnightblue" points="891.926,-447.799 882.714,-453.032 893.179,-454.686 891.926,-447.799"/>
</g>
<!-- Node4 -->
<g id="node4" class="node"><title>Node4</title>
<g id="a_node4"><a xlink:href="_i_plug_base_8h.html" target="_top" xlink:title="The lowest level base class of an IPlug plug&#45;in. ">
<polygon fill="white" stroke="black" points="822,-392.5 822,-411.5 892,-411.5 892,-392.5 822,-392.5"/>
<text text-anchor="middle" x="857" y="-399.5" font-family="Helvetica,sans-Serif" font-size="10.00">IPlugBase.h</text>
</a>
</g>
</g>
<!-- Node1&#45;&gt;Node4 -->
<g id="edge3" class="edge"><title>Node1&#45;&gt;Node4</title>
<path fill="none" stroke="midnightblue" d="M857,-437.805C857,-428.91 857,-418.78 857,-411.751"/>
<polygon fill="midnightblue" stroke="midnightblue" points="853.5,-438.083 857,-448.083 860.5,-438.083 853.5,-438.083"/>
</g>
<!-- Node5 -->
<g id="node5" class="node"><title>Node5</title>
<g id="a_node5"><a xlink:href="_i_plug_base_graphics_8h_source.html" target="_top" xlink:title="IPlugBaseGraphics.h">
<polygon fill="white" stroke="black" points="856.5,-336.5 856.5,-355.5 965.5,-355.5 965.5,-336.5 856.5,-336.5"/>
<text text-anchor="middle" x="911" y="-343.5" font-family="Helvetica,sans-Serif" font-size="10.00">IPlugBaseGraphics.h</text>
</a>
</g>
</g>
<!-- Node4&#45;&gt;Node5 -->
<g id="edge4" class="edge"><title>Node4&#45;&gt;Node5</title>
<path fill="none" stroke="midnightblue" d="M872.998,-385.002C882.567,-375.433 894.361,-363.639 902.249,-355.751"/>
<polygon fill="midnightblue" stroke="midnightblue" points="870.513,-382.537 865.917,-392.083 875.463,-387.487 870.513,-382.537"/>
</g>
<!-- Node37 -->
<g id="node37" class="node"><title>Node37</title>
<g id="a_node37"><a xlink:href="_i_plug_base_8cpp_source.html" target="_top" xlink:title="IPlugBase.cpp">
<polygon fill="white" stroke="black" points="668,-336.5 668,-355.5 748,-355.5 748,-336.5 668,-336.5"/>
<text text-anchor="middle" x="708" y="-343.5" font-family="Helvetica,sans-Serif" font-size="10.00">IPlugBase.cpp</text>
</a>
</g>
</g>
<!-- Node4&#45;&gt;Node37 -->
<g id="edge43" class="edge"><title>Node4&#45;&gt;Node37</title>
<path fill="none" stroke="midnightblue" d="M823.629,-388.906C795.616,-378.754 756.304,-364.506 731.499,-355.516"/>
<polygon fill="midnightblue" stroke="midnightblue" points="822.796,-392.327 833.391,-392.444 825.181,-385.746 822.796,-392.327"/>
</g>
<!-- Node38 -->
<g id="node38" class="node"><title>Node38</title>
<g id="a_node38"><a xlink:href="_i_plug_w_a_m_8h_source.html" target="_top" xlink:title="IPlugWAM.h">
<polygon fill="white" stroke="black" points="766,-336.5 766,-355.5 838,-355.5 838,-336.5 766,-336.5"/>
<text text-anchor="middle" x="802" y="-343.5" font-family="Helvetica,sans-Serif" font-size="10.00">IPlugWAM.h</text>
</a>
</g>
</g>
<!-- Node4&#45;&gt;Node38 -->
<g id="edge44" class="edge"><title>Node4&#45;&gt;Node38</title>
<path fill="none" stroke="midnightblue" d="M840.706,-385.002C830.959,-375.433 818.947,-363.639 810.913,-355.751"/>
<polygon fill="midnightblue" stroke="midnightblue" points="838.33,-387.575 847.918,-392.083 843.234,-382.58 838.33,-387.575"/>
</g>
<!-- Node6 -->
<g id="node6" class="node"><title>Node6</title>
<g id="a_node6"><a xlink:href="_i_control_8h_source.html" target="_top" xlink:title="IControl.h">
<polygon fill="white" stroke="black" points="761.5,-280.5 761.5,-299.5 820.5,-299.5 820.5,-280.5 761.5,-280.5"/>
<text text-anchor="middle" x="791" y="-287.5" font-family="Helvetica,sans-Serif" font-size="10.00">IControl.h</text>
</a>
</g>
</g>
<!-- Node5&#45;&gt;Node6 -->
<g id="edge5" class="edge"><title>Node5&#45;&gt;Node6</title>
<path fill="none" stroke="midnightblue" d="M882.627,-332.232C860.18,-322.131 829.465,-308.309 809.925,-299.516"/>
<polygon fill="midnightblue" stroke="midnightblue" points="881.43,-335.532 891.986,-336.444 884.303,-329.148 881.43,-335.532"/>
</g>
<!-- Node24 -->
<g id="node24" class="node"><title>Node24</title>
<g id="a_node24"><a xlink:href="_i_plug_base_graphics_8cpp_source.html" target="_top" xlink:title="IPlugBaseGraphics.cpp">
<polygon fill="white" stroke="black" points="855.5,-168.5 855.5,-187.5 974.5,-187.5 974.5,-168.5 855.5,-168.5"/>
<text text-anchor="middle" x="915" y="-175.5" font-family="Helvetica,sans-Serif" font-size="10.00">IPlugBaseGraphics.cpp</text>
</a>
</g>
</g>
<!-- Node5&#45;&gt;Node24 -->
<g id="edge31" class="edge"><title>Node5&#45;&gt;Node24</title>
<path fill="none" stroke="midnightblue" d="M911.46,-325.93C912.327,-289.92 914.175,-213.231 914.794,-187.568"/>
<polygon fill="midnightblue" stroke="midnightblue" points="907.957,-325.994 911.215,-336.075 914.955,-326.162 907.957,-325.994"/>
</g>
<!-- Node27 -->
<g id="node27" class="node"><title>Node27</title>
<g id="a_node27"><a xlink:href="_i_plug_a_a_x_8h_source.html" target="_top" xlink:title="IPlugAAX.h">
<polygon fill="white" stroke="black" points="675,-280.5 675,-299.5 743,-299.5 743,-280.5 675,-280.5"/>
<text text-anchor="middle" x="709" y="-287.5" font-family="Helvetica,sans-Serif" font-size="10.00">IPlugAAX.h</text>
</a>
</g>
</g>
<!-- Node5&#45;&gt;Node27 -->
<g id="edge32" class="edge"><title>Node5&#45;&gt;Node27</title>
<path fill="none" stroke="midnightblue" d="M869.212,-333.829C831.073,-323.633 775.519,-308.782 740.858,-299.516"/>
<polygon fill="midnightblue" stroke="midnightblue" points="868.428,-337.242 878.992,-336.444 870.236,-330.48 868.428,-337.242"/>
</g>
<!-- Node29 -->
<g id="node29" class="node"><title>Node29</title>
<g id="a_node29"><a xlink:href="_i_plug_a_u_8h_source.html" target="_top" xlink:title="IPlugAU.h">
<polygon fill="white" stroke="black" points="1143,-280.5 1143,-299.5 1205,-299.5 1205,-280.5 1143,-280.5"/>
<text text-anchor="middle" x="1174" y="-287.5" font-family="Helvetica,sans-Serif" font-size="10.00">IPlugAU.h</text>
</a>
</g>
</g>
<!-- Node5&#45;&gt;Node29 -->
<g id="edge34" class="edge"><title>Node5&#45;&gt;Node29</title>
<path fill="none" stroke="midnightblue" d="M963.875,-334.391C1008.67,-325.367 1074.57,-311.999 1132,-300 1135.5,-299.268 1139.17,-298.494 1142.82,-297.72"/>
<polygon fill="midnightblue" stroke="midnightblue" points="962.919,-331.014 953.807,-336.419 964.301,-337.876 962.919,-331.014"/>
</g>
<!-- Node30 -->
<g id="node30" class="node"><title>Node30</title>
<g id="a_node30"><a xlink:href="_i_plug_a_u___view_factory_8mm_source.html" target="_top" xlink:title="IPlugAU_ViewFactory.mm">
<polygon fill="white" stroke="black" points="433.5,-280.5 433.5,-299.5 566.5,-299.5 566.5,-280.5 433.5,-280.5"/>
<text text-anchor="middle" x="500" y="-287.5" font-family="Helvetica,sans-Serif" font-size="10.00">IPlugAU_ViewFactory.mm</text>
</a>
</g>
</g>
<!-- Node5&#45;&gt;Node30 -->
<g id="edge36" class="edge"><title>Node5&#45;&gt;Node30</title>
<path fill="none" stroke="midnightblue" d="M846.171,-335.9C742.452,-321.918 634.24,-308.023 566.55,-299.415"/>
<polygon fill="midnightblue" stroke="midnightblue" points="845.814,-339.384 856.193,-337.253 846.751,-332.446 845.814,-339.384"/>
</g>
<!-- Node31 -->
<g id="node31" class="node"><title>Node31</title>
<g id="a_node31"><a xlink:href="_i_plug_standalone_8h_source.html" target="_top" xlink:title="IPlugStandalone.h">
<polygon fill="white" stroke="black" points="941,-280.5 941,-299.5 1037,-299.5 1037,-280.5 941,-280.5"/>
<text text-anchor="middle" x="989" y="-287.5" font-family="Helvetica,sans-Serif" font-size="10.00">IPlugStandalone.h</text>
</a>
</g>
</g>
<!-- Node5&#45;&gt;Node31 -->
<g id="edge37" class="edge"><title>Node5&#45;&gt;Node31</title>
<path fill="none" stroke="midnightblue" d="M931.768,-330.622C946.017,-320.757 964.456,-307.992 976.499,-299.655"/>
<polygon fill="midnightblue" stroke="midnightblue" points="929.762,-327.754 923.532,-336.324 933.746,-333.51 929.762,-327.754"/>
</g>
<!-- Node33 -->
<g id="node33" class="node"><title>Node33</title>
<g id="a_node33"><a xlink:href="_i_plug_v_s_t_8h_source.html" target="_top" xlink:title="IPlugVST.h">
<polygon fill="white" stroke="black" points="1056.5,-280.5 1056.5,-299.5 1123.5,-299.5 1123.5,-280.5 1056.5,-280.5"/>
<text text-anchor="middle" x="1090" y="-287.5" font-family="Helvetica,sans-Serif" font-size="10.00">IPlugVST.h</text>
</a>
</g>
</g>
<!-- Node5&#45;&gt;Node33 -->
<g id="edge39" class="edge"><title>Node5&#45;&gt;Node33</title>
<path fill="none" stroke="midnightblue" d="M949.331,-333.436C983.08,-323.255 1031.45,-308.664 1061.77,-299.516"/>
<polygon fill="midnightblue" stroke="midnightblue" points="947.926,-330.204 939.363,-336.444 949.948,-336.906 947.926,-330.204"/>
</g>
<!-- Node35 -->
<g id="node35" class="node"><title>Node35</title>
<g id="a_node35"><a xlink:href="_i_plug_v_s_t3_8h_source.html" target="_top" xlink:title="IPlugVST3.h">
<polygon fill="white" stroke="black" points="585,-280.5 585,-299.5 657,-299.5 657,-280.5 585,-280.5"/>
<text text-anchor="middle" x="621" y="-287.5" font-family="Helvetica,sans-Serif" font-size="10.00">IPlugVST3.h</text>
</a>
</g>
</g>
<!-- Node5&#45;&gt;Node35 -->
<g id="edge41" class="edge"><title>Node5&#45;&gt;Node35</title>
<path fill="none" stroke="midnightblue" d="M853.156,-334.641C803.48,-325.681 729.972,-312.271 666,-300 663.183,-299.46 660.269,-298.893 657.34,-298.319"/>
<polygon fill="midnightblue" stroke="midnightblue" points="852.611,-338.099 863.073,-336.427 853.852,-331.21 852.611,-338.099"/>
</g>
<!-- Node7 -->
<g id="node7" class="node"><title>Node7</title>
<g id="a_node7"><a xlink:href="_i_control_8cpp_source.html" target="_top" xlink:title="IControl.cpp">
<polygon fill="white" stroke="black" points="756,-224.5 756,-243.5 826,-243.5 826,-224.5 756,-224.5"/>
<text text-anchor="middle" x="791" y="-231.5" font-family="Helvetica,sans-Serif" font-size="10.00">IControl.cpp</text>
</a>
</g>
</g>
<!-- Node6&#45;&gt;Node7 -->
<g id="edge6" class="edge"><title>Node6&#45;&gt;Node7</title>
<path fill="none" stroke="midnightblue" d="M791,-269.805C791,-260.91 791,-250.78 791,-243.751"/>
<polygon fill="midnightblue" stroke="midnightblue" points="787.5,-270.083 791,-280.083 794.5,-270.083 787.5,-270.083"/>
</g>
<!-- Node8 -->
<g id="node8" class="node"><title>Node8</title>
<g id="a_node8"><a xlink:href="_i_graphics_8h_source.html" target="_top" xlink:title="IGraphics.h">
<polygon fill="white" stroke="black" points="645.5,-224.5 645.5,-243.5 712.5,-243.5 712.5,-224.5 645.5,-224.5"/>
<text text-anchor="middle" x="679" y="-231.5" font-family="Helvetica,sans-Serif" font-size="10.00">IGraphics.h</text>
</a>
</g>
</g>
<!-- Node6&#45;&gt;Node8 -->
<g id="edge7" class="edge"><title>Node6&#45;&gt;Node8</title>
<path fill="none" stroke="midnightblue" d="M758.983,-276.368C736.554,-266.255 707.956,-252.349 691.584,-243.516"/>
<polygon fill="midnightblue" stroke="midnightblue" points="757.605,-279.585 768.165,-280.444 760.445,-273.187 757.605,-279.585"/>
</g>
<!-- Node13 -->
<g id="node13" class="node"><title>Node13</title>
<g id="a_node13"><a xlink:href="_i_graphics_cairo_8cpp_source.html" target="_top" xlink:title="IGraphicsCairo.cpp">
<polygon fill="white" stroke="black" points="255.5,-112.5 255.5,-131.5 356.5,-131.5 356.5,-112.5 255.5,-112.5"/>
<text text-anchor="middle" x="306" y="-119.5" font-family="Helvetica,sans-Serif" font-size="10.00">IGraphicsCairo.cpp</text>
</a>
</g>
</g>
<!-- Node6&#45;&gt;Node13 -->
<g id="edge28" class="edge"><title>Node6&#45;&gt;Node13</title>
<path fill="none" stroke="midnightblue" d="M751.355,-279.99C552.308,-240.238 439.212,-337.263 310,-188 296.384,-172.272 300.275,-145.574 303.54,-131.8"/>
<polygon fill="midnightblue" stroke="midnightblue" points="750.699,-283.428 761.204,-282.054 752.135,-276.577 750.699,-283.428"/>
</g>
<!-- Node17 -->
<g id="node17" class="node"><title>Node17</title>
<g id="a_node17"><a xlink:href="_i_graphics_mac_8mm_source.html" target="_top" xlink:title="IGraphicsMac.mm">
<polygon fill="white" stroke="black" points="712.5,-0.5 712.5,-19.5 809.5,-19.5 809.5,-0.5 712.5,-0.5"/>
<text text-anchor="middle" x="761" y="-7.5" font-family="Helvetica,sans-Serif" font-size="10.00">IGraphicsMac.mm</text>
</a>
</g>
</g>
<!-- Node6&#45;&gt;Node17 -->
<g id="edge29" class="edge"><title>Node6&#45;&gt;Node17</title>
<path fill="none" stroke="midnightblue" d="M830.509,-280.952C876.382,-269.261 949.966,-242.703 983,-188 987.595,-180.391 985.395,-176.56 983,-168 958.769,-81.3988 847.669,-36.7466 792.403,-19.5664"/>
<polygon fill="midnightblue" stroke="midnightblue" points="829.498,-277.595 820.606,-283.355 831.149,-284.398 829.498,-277.595"/>
</g>
<!-- Node6&#45;&gt;Node24 -->
<g id="edge30" class="edge"><title>Node6&#45;&gt;Node24</title>
<path fill="none" stroke="midnightblue" d="M808.46,-273.512C834.956,-250.007 884.44,-206.11 905.315,-187.591"/>
<polygon fill="midnightblue" stroke="midnightblue" points="805.888,-271.114 800.73,-280.368 810.534,-276.351 805.888,-271.114"/>
</g>
<!-- Node25 -->
<g id="node25" class="node"><title>Node25</title>
<g id="a_node25"><a xlink:href="_i_controls_8h_source.html" target="_top" xlink:title="IControls.h">
<polygon fill="white" stroke="black" points="197.5,-224.5 197.5,-243.5 262.5,-243.5 262.5,-224.5 197.5,-224.5"/>
<text text-anchor="middle" x="230" y="-231.5" font-family="Helvetica,sans-Serif" font-size="10.00">IControls.h</text>
</a>
</g>
</g>
<!-- Node6&#45;&gt;Node25 -->
<g id="edge26" class="edge"><title>Node6&#45;&gt;Node25</title>
<path fill="none" stroke="midnightblue" d="M751.151,-280.123C540.917,-248.838 483.584,-271.517 277,-244 272.306,-243.375 267.372,-242.582 262.538,-241.727"/>
<polygon fill="midnightblue" stroke="midnightblue" points="750.868,-283.62 761.279,-281.654 751.914,-276.698 750.868,-283.62"/>
</g>
<!-- Node8&#45;&gt;Node6 -->
<g id="edge8" class="edge"><title>Node8&#45;&gt;Node6</title>
<path fill="none" stroke="midnightblue" d="M711.482,-247.842C733.705,-257.875 761.814,-271.546 778.12,-280.324"/>
<polygon fill="midnightblue" stroke="midnightblue" points="712.62,-244.518 702.06,-243.655 709.777,-250.914 712.62,-244.518"/>
</g>
<!-- Node9 -->
<g id="node9" class="node"><title>Node9</title>
<g id="a_node9"><a xlink:href="_i_graphics_8cpp_source.html" target="_top" xlink:title="IGraphics.cpp">
<polygon fill="white" stroke="black" points="637.5,-168.5 637.5,-187.5 714.5,-187.5 714.5,-168.5 637.5,-168.5"/>
<text text-anchor="middle" x="676" y="-175.5" font-family="Helvetica,sans-Serif" font-size="10.00">IGraphics.cpp</text>
</a>
</g>
</g>
<!-- Node8&#45;&gt;Node9 -->
<g id="edge9" class="edge"><title>Node8&#45;&gt;Node9</title>
<path fill="none" stroke="midnightblue" d="M677.934,-213.805C677.439,-204.91 676.877,-194.78 676.486,-187.751"/>
<polygon fill="midnightblue" stroke="midnightblue" points="674.455,-214.293 678.505,-224.083 681.444,-213.904 674.455,-214.293"/>
</g>
<!-- Node10 -->
<g id="node10" class="node"><title>Node10</title>
<g id="a_node10"><a xlink:href="_i_graphics_a_g_g_8h_source.html" target="_top" xlink:title="IGraphicsAGG.h">
<polygon fill="white" stroke="black" points="427.5,-168.5 427.5,-187.5 516.5,-187.5 516.5,-168.5 427.5,-168.5"/>
<text text-anchor="middle" x="472" y="-175.5" font-family="Helvetica,sans-Serif" font-size="10.00">IGraphicsAGG.h</text>
</a>
</g>
</g>
<!-- Node8&#45;&gt;Node10 -->
<g id="edge10" class="edge"><title>Node8&#45;&gt;Node10</title>
<path fill="none" stroke="midnightblue" d="M636.178,-221.829C597.094,-211.633 540.165,-196.782 504.646,-187.516"/>
<polygon fill="midnightblue" stroke="midnightblue" points="635.641,-225.306 646.2,-224.444 637.408,-218.533 635.641,-225.306"/>
</g>
<!-- Node12 -->
<g id="node12" class="node"><title>Node12</title>
<g id="a_node12"><a xlink:href="_i_graphics_cairo_8h_source.html" target="_top" xlink:title="IGraphicsCairo.h">
<polygon fill="white" stroke="black" points="319,-168.5 319,-187.5 409,-187.5 409,-168.5 319,-168.5"/>
<text text-anchor="middle" x="364" y="-175.5" font-family="Helvetica,sans-Serif" font-size="10.00">IGraphicsCairo.h</text>
</a>
</g>
</g>
<!-- Node8&#45;&gt;Node12 -->
<g id="edge12" class="edge"><title>Node8&#45;&gt;Node12</title>
<path fill="none" stroke="midnightblue" d="M635.066,-225.468C575.407,-215.241 469.325,-197.056 409.079,-186.728"/>
<polygon fill="midnightblue" stroke="midnightblue" points="634.842,-228.981 645.289,-227.221 636.025,-222.082 634.842,-228.981"/>
</g>
<!-- Node14 -->
<g id="node14" class="node"><title>Node14</title>
<g id="a_node14"><a xlink:href="_i_graphics_lice_8h_source.html" target="_top" xlink:title="IGraphicsLice.h">
<polygon fill="white" stroke="black" points="534.5,-168.5 534.5,-187.5 619.5,-187.5 619.5,-168.5 534.5,-168.5"/>
<text text-anchor="middle" x="577" y="-175.5" font-family="Helvetica,sans-Serif" font-size="10.00">IGraphicsLice.h</text>
</a>
</g>
</g>
<!-- Node8&#45;&gt;Node14 -->
<g id="edge14" class="edge"><title>Node8&#45;&gt;Node14</title>
<path fill="none" stroke="midnightblue" d="M653.669,-219.59C634.81,-209.605 609.616,-196.267 593.347,-187.655"/>
<polygon fill="midnightblue" stroke="midnightblue" points="652.136,-222.738 662.612,-224.324 655.412,-216.552 652.136,-222.738"/>
</g>
<!-- Node22 -->
<g id="node22" class="node"><title>Node22</title>
<g id="a_node22"><a xlink:href="_i_graphics_nano_v_g_8h_source.html" target="_top" xlink:title="IGraphicsNanoVG.h">
<polygon fill="white" stroke="black" points="733,-168.5 733,-187.5 837,-187.5 837,-168.5 733,-168.5"/>
<text text-anchor="middle" x="785" y="-175.5" font-family="Helvetica,sans-Serif" font-size="10.00">IGraphicsNanoVG.h</text>
</a>
</g>
</g>
<!-- Node8&#45;&gt;Node22 -->
<g id="edge23" class="edge"><title>Node8&#45;&gt;Node22</title>
<path fill="none" stroke="midnightblue" d="M705.056,-219.726C724.684,-209.727 751.028,-196.307 768.012,-187.655"/>
<polygon fill="midnightblue" stroke="midnightblue" points="703.352,-216.666 696.031,-224.324 706.53,-222.903 703.352,-216.666"/>
</g>
<!-- Node8&#45;&gt;Node24 -->
<g id="edge25" class="edge"><title>Node8&#45;&gt;Node24</title>
<path fill="none" stroke="midnightblue" d="M722.509,-223.045C767.039,-212.856 835.514,-197.188 877.66,-187.544"/>
<polygon fill="midnightblue" stroke="midnightblue" points="721.53,-219.678 712.562,-225.32 723.091,-226.502 721.53,-219.678"/>
</g>
<!-- Node11 -->
<g id="node11" class="node"><title>Node11</title>
<g id="a_node11"><a xlink:href="_i_graphics_a_g_g_8cpp_source.html" target="_top" xlink:title="IGraphicsAGG.cpp">
<polygon fill="white" stroke="black" points="388.5,-112.5 388.5,-131.5 487.5,-131.5 487.5,-112.5 388.5,-112.5"/>
<text text-anchor="middle" x="438" y="-119.5" font-family="Helvetica,sans-Serif" font-size="10.00">IGraphicsAGG.cpp</text>
</a>
</g>
</g>
<!-- Node10&#45;&gt;Node11 -->
<g id="edge11" class="edge"><title>Node10&#45;&gt;Node11</title>
<path fill="none" stroke="midnightblue" d="M461.023,-159.566C455.173,-150.275 448.23,-139.248 443.51,-131.751"/>
<polygon fill="midnightblue" stroke="midnightblue" points="458.096,-161.486 466.386,-168.083 464.019,-157.756 458.096,-161.486"/>
</g>
<!-- Node12&#45;&gt;Node13 -->
<g id="edge13" class="edge"><title>Node12&#45;&gt;Node13</title>
<path fill="none" stroke="midnightblue" d="M347.087,-161.253C336.797,-151.673 324.034,-139.791 315.488,-131.834"/>
<polygon fill="midnightblue" stroke="midnightblue" points="344.977,-164.071 354.681,-168.324 349.747,-158.948 344.977,-164.071"/>
</g>
<!-- Node15 -->
<g id="node15" class="node"><title>Node15</title>
<g id="a_node15"><a xlink:href="_i_graphics_lice_8cpp_source.html" target="_top" xlink:title="IGraphicsLice.cpp">
<polygon fill="white" stroke="black" points="712.5,-112.5 712.5,-131.5 807.5,-131.5 807.5,-112.5 712.5,-112.5"/>
<text text-anchor="middle" x="760" y="-119.5" font-family="Helvetica,sans-Serif" font-size="10.00">IGraphicsLice.cpp</text>
</a>
</g>
</g>
<!-- Node14&#45;&gt;Node15 -->
<g id="edge15" class="edge"><title>Node14&#45;&gt;Node15</title>
<path fill="none" stroke="midnightblue" d="M615.743,-165.568C650.265,-155.381 700.005,-140.703 731.139,-131.516"/>
<polygon fill="midnightblue" stroke="midnightblue" points="614.597,-162.256 605.997,-168.444 616.579,-168.97 614.597,-162.256"/>
</g>
<!-- Node16 -->
<g id="node16" class="node"><title>Node16</title>
<g id="a_node16"><a xlink:href="_i_graphics_mac_8h_source.html" target="_top" xlink:title="IGraphicsMac.h">
<polygon fill="white" stroke="black" points="608,-112.5 608,-131.5 694,-131.5 694,-112.5 608,-112.5"/>
<text text-anchor="middle" x="651" y="-119.5" font-family="Helvetica,sans-Serif" font-size="10.00">IGraphicsMac.h</text>
</a>
</g>
</g>
<!-- Node14&#45;&gt;Node16 -->
<g id="edge16" class="edge"><title>Node14&#45;&gt;Node16</title>
<path fill="none" stroke="midnightblue" d="M597.034,-162.38C610.409,-152.62 627.559,-140.106 638.894,-131.834"/>
<polygon fill="midnightblue" stroke="midnightblue" points="594.904,-159.602 588.889,-168.324 599.03,-165.257 594.904,-159.602"/>
</g>
<!-- Node20 -->
<g id="node20" class="node"><title>Node20</title>
<g id="a_node20"><a xlink:href="_i_graphics_win_8h_source.html" target="_top" xlink:title="IGraphicsWin.h">
<polygon fill="white" stroke="black" points="506,-112.5 506,-131.5 590,-131.5 590,-112.5 506,-112.5"/>
<text text-anchor="middle" x="548" y="-119.5" font-family="Helvetica,sans-Serif" font-size="10.00">IGraphicsWin.h</text>
</a>
</g>
</g>
<!-- Node14&#45;&gt;Node20 -->
<g id="edge21" class="edge"><title>Node14&#45;&gt;Node20</title>
<path fill="none" stroke="midnightblue" d="M567.324,-158.983C562.402,-149.817 556.642,-139.092 552.7,-131.751"/>
<polygon fill="midnightblue" stroke="midnightblue" points="564.396,-160.929 572.211,-168.083 570.563,-157.617 564.396,-160.929"/>
</g>
<!-- Node16&#45;&gt;Node17 -->
<g id="edge17" class="edge"><title>Node16&#45;&gt;Node17</title>
<path fill="none" stroke="midnightblue" d="M671.767,-106.328C682.988,-97.9861 696.798,-87.0268 708,-76 726.678,-57.614 745.292,-32.9483 754.699,-19.9235"/>
<polygon fill="midnightblue" stroke="midnightblue" points="669.443,-103.691 663.423,-112.409 673.566,-109.349 669.443,-103.691"/>
</g>
<!-- Node18 -->
<g id="node18" class="node"><title>Node18</title>
<g id="a_node18"><a xlink:href="_i_graphics_view_8h_source.html" target="_top" xlink:title="IGraphicsView.h">
<polygon fill="white" stroke="black" points="610.5,-56.5 610.5,-75.5 699.5,-75.5 699.5,-56.5 610.5,-56.5"/>
<text text-anchor="middle" x="655" y="-63.5" font-family="Helvetica,sans-Serif" font-size="10.00">IGraphicsView.h</text>
</a>
</g>
</g>
<!-- Node16&#45;&gt;Node18 -->
<g id="edge18" class="edge"><title>Node16&#45;&gt;Node18</title>
<path fill="none" stroke="midnightblue" d="M652.4,-102.101C653.064,-93.1357 653.825,-82.8579 654.352,-75.7511"/>
<polygon fill="midnightblue" stroke="midnightblue" points="648.909,-101.852 651.661,-112.083 655.89,-102.369 648.909,-101.852"/>
</g>
<!-- Node18&#45;&gt;Node17 -->
<g id="edge19" class="edge"><title>Node18&#45;&gt;Node17</title>
<path fill="none" stroke="midnightblue" d="M681.056,-51.7261C700.684,-41.7271 727.028,-28.3065 744.012,-19.6545"/>
<polygon fill="midnightblue" stroke="midnightblue" points="679.352,-48.666 672.031,-56.324 682.53,-54.9033 679.352,-48.666"/>
</g>
<!-- Node19 -->
<g id="node19" class="node"><title>Node19</title>
<g id="a_node19"><a xlink:href="_i_graphics_view_8mm_source.html" target="_top" xlink:title="IGraphicsView.mm">
<polygon fill="white" stroke="black" points="594,-0.5 594,-19.5 694,-19.5 694,-0.5 594,-0.5"/>
<text text-anchor="middle" x="644" y="-7.5" font-family="Helvetica,sans-Serif" font-size="10.00">IGraphicsView.mm</text>
</a>
</g>
</g>
<!-- Node18&#45;&gt;Node19 -->
<g id="edge20" class="edge"><title>Node18&#45;&gt;Node19</title>
<path fill="none" stroke="midnightblue" d="M651.15,-46.1005C649.324,-37.1357 647.23,-26.8579 645.783,-19.7511"/>
<polygon fill="midnightblue" stroke="midnightblue" points="647.758,-46.9829 653.184,-56.083 654.617,-45.5856 647.758,-46.9829"/>
</g>
<!-- Node21 -->
<g id="node21" class="node"><title>Node21</title>
<g id="a_node21"><a xlink:href="_i_graphics_win_8cpp_source.html" target="_top" xlink:title="IGraphicsWin.cpp">
<polygon fill="white" stroke="black" points="497.5,-56.5 497.5,-75.5 592.5,-75.5 592.5,-56.5 497.5,-56.5"/>
<text text-anchor="middle" x="545" y="-63.5" font-family="Helvetica,sans-Serif" font-size="10.00">IGraphicsWin.cpp</text>
</a>
</g>
</g>
<!-- Node20&#45;&gt;Node21 -->
<g id="edge22" class="edge"><title>Node20&#45;&gt;Node21</title>
<path fill="none" stroke="midnightblue" d="M546.934,-101.805C546.439,-92.9102 545.877,-82.7798 545.486,-75.7511"/>
<polygon fill="midnightblue" stroke="midnightblue" points="543.455,-102.293 547.505,-112.083 550.444,-101.904 543.455,-102.293"/>
</g>
<!-- Node23 -->
<g id="node23" class="node"><title>Node23</title>
<g id="a_node23"><a xlink:href="_i_graphics_nano_v_g_8cpp_source.html" target="_top" xlink:title="IGraphicsNanoVG.cpp">
<polygon fill="white" stroke="black" points="825.5,-112.5 825.5,-131.5 940.5,-131.5 940.5,-112.5 825.5,-112.5"/>
<text text-anchor="middle" x="883" y="-119.5" font-family="Helvetica,sans-Serif" font-size="10.00">IGraphicsNanoVG.cpp</text>
</a>
</g>
</g>
<!-- Node22&#45;&gt;Node23 -->
<g id="edge24" class="edge"><title>Node22&#45;&gt;Node23</title>
<path fill="none" stroke="midnightblue" d="M809.586,-163.453C827.678,-153.483 851.735,-140.228 867.294,-131.655"/>
<polygon fill="midnightblue" stroke="midnightblue" points="807.815,-160.432 800.745,-168.324 811.193,-166.563 807.815,-160.432"/>
</g>
<!-- Node26 -->
<g id="node26" class="node"><title>Node26</title>
<g id="a_node26"><a xlink:href="_i_controls_8cpp_source.html" target="_top" xlink:title="IControls.cpp">
<polygon fill="white" stroke="black" points="187.5,-168.5 187.5,-187.5 262.5,-187.5 262.5,-168.5 187.5,-168.5"/>
<text text-anchor="middle" x="225" y="-175.5" font-family="Helvetica,sans-Serif" font-size="10.00">IControls.cpp</text>
</a>
</g>
</g>
<!-- Node25&#45;&gt;Node26 -->
<g id="edge27" class="edge"><title>Node25&#45;&gt;Node26</title>
<path fill="none" stroke="midnightblue" d="M228.25,-214.101C227.42,-205.136 226.468,-194.858 225.81,-187.751"/>
<polygon fill="midnightblue" stroke="midnightblue" points="224.767,-214.448 229.174,-224.083 231.737,-213.803 224.767,-214.448"/>
</g>
<!-- Node28 -->
<g id="node28" class="node"><title>Node28</title>
<g id="a_node28"><a xlink:href="_i_plug_a_a_x_8cpp_source.html" target="_top" xlink:title="IPlugAAX.cpp">
<polygon fill="white" stroke="black" points="101,-224.5 101,-243.5 179,-243.5 179,-224.5 101,-224.5"/>
<text text-anchor="middle" x="140" y="-231.5" font-family="Helvetica,sans-Serif" font-size="10.00">IPlugAAX.cpp</text>
</a>
</g>
</g>
<!-- Node27&#45;&gt;Node28 -->
<g id="edge33" class="edge"><title>Node27&#45;&gt;Node28</title>
<path fill="none" stroke="midnightblue" d="M664.622,-279.991C453.278,-250.775 395.941,-271.241 188,-244 185.142,-243.626 182.196,-243.192 179.236,-242.721"/>
<polygon fill="midnightblue" stroke="midnightblue" points="664.414,-283.496 674.804,-281.421 665.387,-276.564 664.414,-283.496"/>
</g>
<!-- Node29&#45;&gt;Node3 -->
<g id="edge35" class="edge"><title>Node29&#45;&gt;Node3</title>
<path fill="none" stroke="midnightblue" d="M1191.18,-273.537C1201.88,-263.909 1215.26,-251.869 1224.18,-243.834"/>
<polygon fill="midnightblue" stroke="midnightblue" points="1188.73,-271.033 1183.64,-280.324 1193.41,-276.236 1188.73,-271.033"/>
</g>
<!-- Node32 -->
<g id="node32" class="node"><title>Node32</title>
<g id="a_node32"><a xlink:href="_i_plug_standalone_8cpp_source.html" target="_top" xlink:title="IPlugStandalone.cpp">
<polygon fill="white" stroke="black" points="977.5,-224.5 977.5,-243.5 1084.5,-243.5 1084.5,-224.5 977.5,-224.5"/>
<text text-anchor="middle" x="1031" y="-231.5" font-family="Helvetica,sans-Serif" font-size="10.00">IPlugStandalone.cpp</text>
</a>
</g>
</g>
<!-- Node31&#45;&gt;Node32 -->
<g id="edge38" class="edge"><title>Node31&#45;&gt;Node32</title>
<path fill="none" stroke="midnightblue" d="M1002.11,-272.144C1009.43,-262.736 1018.24,-251.405 1024.19,-243.751"/>
<polygon fill="midnightblue" stroke="midnightblue" points="999.312,-270.041 995.935,-280.083 1004.84,-274.338 999.312,-270.041"/>
</g>
<!-- Node34 -->
<g id="node34" class="node"><title>Node34</title>
<g id="a_node34"><a xlink:href="_i_plug_v_s_t_8cpp_source.html" target="_top" xlink:title="IPlugVST.cpp">
<polygon fill="white" stroke="black" points="1102.5,-224.5 1102.5,-243.5 1179.5,-243.5 1179.5,-224.5 1102.5,-224.5"/>
<text text-anchor="middle" x="1141" y="-231.5" font-family="Helvetica,sans-Serif" font-size="10.00">IPlugVST.cpp</text>
</a>
</g>
</g>
<!-- Node33&#45;&gt;Node34 -->
<g id="edge40" class="edge"><title>Node33&#45;&gt;Node34</title>
<path fill="none" stroke="midnightblue" d="M1105.38,-272.718C1114.37,-263.2 1125.36,-251.561 1132.74,-243.751"/>
<polygon fill="midnightblue" stroke="midnightblue" points="1102.74,-270.41 1098.42,-280.083 1107.83,-275.216 1102.74,-270.41"/>
</g>
<!-- Node36 -->
<g id="node36" class="node"><title>Node36</title>
<g id="a_node36"><a xlink:href="_i_plug_v_s_t3_8cpp_source.html" target="_top" xlink:title="IPlugVST3.cpp">
<polygon fill="white" stroke="black" points="-0.5,-224.5 -0.5,-243.5 82.5,-243.5 82.5,-224.5 -0.5,-224.5"/>
<text text-anchor="middle" x="41" y="-231.5" font-family="Helvetica,sans-Serif" font-size="10.00">IPlugVST3.cpp</text>
</a>
</g>
</g>
<!-- Node35&#45;&gt;Node36 -->
<g id="edge42" class="edge"><title>Node35&#45;&gt;Node36</title>
<path fill="none" stroke="midnightblue" d="M575.303,-280.041C575.202,-280.027 575.101,-280.014 575,-280 361.662,-251.283 305.595,-270.738 92,-244 88.9667,-243.62 85.8396,-243.183 82.697,-242.709"/>
<polygon fill="midnightblue" stroke="midnightblue" points="574.492,-283.457 584.908,-281.518 575.556,-276.539 574.492,-283.457"/>
</g>
</g>
</svg>
        <g id="navigator" transform="translate(0 0)" fill="#404254">
                <rect fill="#f2f5e9" fill-opacity="0.5" stroke="#606060" stroke-width=".5" x="0" y="0" width="60" height="60"/>
                <use id="zoomplus" xlink:href="#zoomPlus" x="17" y="9" onmousedown="handleZoom(evt,'in')"/>
                <use id="zoomminus" xlink:href="#zoomMin" x="42" y="9" onmousedown="handleZoom(evt,'out')"/>
                <use id="reset" xlink:href="#resetDef" x="30" y="36" onmousedown="handleReset()"/>
                <g id="arrowUp" xlink:href="#dirArrow" transform="translate(30 24)" onmousedown="handlePan(0,-1)">
                  <use xlink:href="#rim" fill="#404040">
                        <set attributeName="fill" to="#808080" begin="arrowUp.mouseover" end="arrowUp.mouseout"/>
                  </use>
                  <path fill="none" stroke="white" stroke-width="1.5" d="M0,-3.0v7 M-2.5,-0.5L0,-3.0L2.5,-0.5"/>
                </g>
                <g id="arrowRight" xlink:href="#dirArrow" transform="rotate(90) translate(36 -43)" onmousedown="handlePan(1,0)">
                  <use xlink:href="#rim" fill="#404040">
                        <set attributeName="fill" to="#808080" begin="arrowRight.mouseover" end="arrowRight.mouseout"/>
                  </use>
                  <path fill="none" stroke="white" stroke-width="1.5" d="M0,-3.0v7 M-2.5,-0.5L0,-3.0L2.5,-0.5"/>
                </g>
                <g id="arrowDown" xlink:href="#dirArrow" transform="rotate(180) translate(-30 -48)" onmousedown="handlePan(0,1)">
                  <use xlink:href="#rim" fill="#404040">
                        <set attributeName="fill" to="#808080" begin="arrowDown.mouseover" end="arrowDown.mouseout"/>
                  </use>
                  <path fill="none" stroke="white" stroke-width="1.5" d="M0,-3.0v7 M-2.5,-0.5L0,-3.0L2.5,-0.5"/>
                </g>
                <g id="arrowLeft" xlink:href="#dirArrow" transform="rotate(270) translate(-36 17)" onmousedown="handlePan(-1,0)">
                  <use xlink:href="#rim" fill="#404040">
                        <set attributeName="fill" to="#808080" begin="arrowLeft.mouseover" end="arrowLeft.mouseout"/>
                  </use>
                  <path fill="none" stroke="white" stroke-width="1.5" d="M0,-3.0v7 M-2.5,-0.5L0,-3.0L2.5,-0.5"/>
                </g>
        </g>
        <svg viewBox="0 0 15 15" width="100%" height="30px" preserveAspectRatio="xMaxYMin meet">
         <g id="arrow_out" transform="scale(0.3 0.3)">
          <a xlink:href="_hosts_8h__dep__incl_org.svg" target="_base">
           <rect id="button" ry="5" rx="5" y="6" x="6" height="38" width="38"
                fill="#f2f5e9" fill-opacity="0.5" stroke="#606060" stroke-width="1.0"/>
           <path id="arrow"
             d="M 11.500037,31.436501 C 11.940474,20.09759 22.043105,11.32322 32.158766,21.979434 L 37.068811,17.246167 C 37.068811,17.246167 37.088388,32 37.088388,32 L 22.160133,31.978069 C 22.160133,31.978069 26.997745,27.140456 26.997745,27.140456 C 18.528582,18.264221 13.291696,25.230495 11.500037,31.436501 z"
             style="fill:#404040;"/>
          </a>
         </g>
        </svg>
</svg>
