<?xml version="1.0" encoding="UTF-8" standalone="no"?>
<!DOCTYPE svg PUBLIC "-//W3C//DTD SVG 1.1//EN"
 "http://www.w3.org/Graphics/SVG/1.1/DTD/svg11.dtd">
<!-- Generated by graphviz version 2.36.0 (20140111.2315)
 -->
<!-- Title: IPlug_include_in_plug_hdr.h Pages: 1 -->
<svg width="228pt" height="96pt"
 viewBox="0.00 0.00 228.00 96.00" xmlns="http://www.w3.org/2000/svg" xmlns:xlink="http://www.w3.org/1999/xlink">
<g id="graph0" class="graph" transform="scale(1 1) rotate(0) translate(4 92)">
<title>IPlug_include_in_plug_hdr.h</title>
<polygon fill="white" stroke="none" points="-4,4 -4,-92 224,-92 224,4 -4,4"/>
<!-- Node1 -->
<g id="node1" class="node"><title>Node1</title>
<polygon fill="#bfbfbf" stroke="black" points="50.5,-57 50.5,-87 161.5,-87 161.5,-57 50.5,-57"/>
<text text-anchor="start" x="58.5" y="-75" font-family="Helvetica,sans-Serif" font-size="10.00">IPlug_include_in_plug</text>
<text text-anchor="middle" x="106" y="-64" font-family="Helvetica,sans-Serif" font-size="10.00">_hdr.h</text>
</g>
<!-- Node2 -->
<g id="node2" class="node"><title>Node2</title>
<polygon fill="white" stroke="#bfbfbf" points="-0.5,-0.5 -0.5,-19.5 42.5,-19.5 42.5,-0.5 -0.5,-0.5"/>
<text text-anchor="middle" x="21" y="-7.5" font-family="Helvetica,sans-Serif" font-size="10.00">cstdio</text>
</g>
<!-- Node1&#45;&gt;Node2 -->
<g id="edge1" class="edge"><title>Node1&#45;&gt;Node2</title>
<path fill="none" stroke="midnightblue" d="M85.8562,-56.7808C72.4055,-47.2862 54.7782,-34.8434 41.2961,-25.3267"/>
<polygon fill="midnightblue" stroke="midnightblue" points="43.3087,-22.4632 33.1206,-19.5557 39.2719,-28.182 43.3087,-22.4632"/>
</g>
<!-- Node3 -->
<g id="node3" class="node"><title>Node3</title>
<g id="a_node3"><a xlink:href="_i_plug_o_s_detect_8h_source.html" target="_top" xlink:title="IPlugOSDetect.h">
<polygon fill="white" stroke="black" points="60.5,-0.5 60.5,-19.5 151.5,-19.5 151.5,-0.5 60.5,-0.5"/>
<text text-anchor="middle" x="106" y="-7.5" font-family="Helvetica,sans-Serif" font-size="10.00">IPlugOSDetect.h</text>
</a>
</g>
</g>
<!-- Node1&#45;&gt;Node3 -->
<g id="edge2" class="edge"><title>Node1&#45;&gt;Node3</title>
<path fill="none" stroke="midnightblue" d="M106,-56.7808C106,-48.7812 106,-38.6887 106,-30.0168"/>
<polygon fill="midnightblue" stroke="midnightblue" points="109.5,-29.7305 106,-19.7305 102.5,-29.7306 109.5,-29.7305"/>
</g>
<!-- Node4 -->
<g id="node4" class="node"><title>Node4</title>
<polygon fill="white" stroke="#bfbfbf" points="169.5,-0.5 169.5,-19.5 220.5,-19.5 220.5,-0.5 169.5,-0.5"/>
<text text-anchor="middle" x="195" y="-7.5" font-family="Helvetica,sans-Serif" font-size="10.00">config.h</text>
</g>
<!-- Node1&#45;&gt;Node4 -->
<g id="edge3" class="edge"><title>Node1&#45;&gt;Node4</title>
<path fill="none" stroke="midnightblue" d="M127.092,-56.7808C141.175,-47.2862 159.632,-34.8434 173.749,-25.3267"/>
<polygon fill="midnightblue" stroke="midnightblue" points="175.974,-28.0478 182.309,-19.5557 172.061,-22.2436 175.974,-28.0478"/>
</g>
</g>
</svg>
