<?xml version="1.0" encoding="UTF-8" standalone="no"?>
<!DOCTYPE svg PUBLIC "-//W3C//DTD SVG 1.1//EN"
 "http://www.w3.org/Graphics/SVG/1.1/DTD/svg11.dtd">
<!-- Generated by graphviz version 2.36.0 (20140111.2315)
 -->
<!-- Title: IPlugBase.h Pages: 1 -->
<svg width="1448pt" height="420pt"
 viewBox="0.00 0.00 1448.00 420.00" xmlns="http://www.w3.org/2000/svg" xmlns:xlink="http://www.w3.org/1999/xlink">
<g id="graph0" class="graph" transform="scale(1 1) rotate(0) translate(4 416)">
<title>IPlugBase.h</title>
<polygon fill="white" stroke="none" points="-4,4 -4,-416 1444,-416 1444,4 -4,4"/>
<!-- Node1 -->
<g id="node1" class="node"><title>Node1</title>
<polygon fill="#bfbfbf" stroke="black" points="1087,-392.5 1087,-411.5 1157,-411.5 1157,-392.5 1087,-392.5"/>
<text text-anchor="middle" x="1122" y="-399.5" font-family="Helvetica,sans-Serif" font-size="10.00">IPlugBase.h</text>
</g>
<!-- Node2 -->
<g id="node2" class="node"><title>Node2</title>
<g id="a_node2"><a xlink:href="_i_plug_base_graphics_8h_source.html" target="_top" xlink:title="IPlugBaseGraphics.h">
<polygon fill="white" stroke="black" points="954.5,-336.5 954.5,-355.5 1063.5,-355.5 1063.5,-336.5 954.5,-336.5"/>
<text text-anchor="middle" x="1009" y="-343.5" font-family="Helvetica,sans-Serif" font-size="10.00">IPlugBaseGraphics.h</text>
</a>
</g>
</g>
<!-- Node1&#45;&gt;Node2 -->
<g id="edge1" class="edge"><title>Node1&#45;&gt;Node2</title>
<path fill="none" stroke="midnightblue" d="M1095,-388.096C1073.89,-378.007 1045.14,-364.27 1026.82,-355.516"/>
<polygon fill="midnightblue" stroke="midnightblue" points="1093.56,-391.29 1104.09,-392.444 1096.58,-384.974 1093.56,-391.29"/>
</g>
<!-- Node35 -->
<g id="node35" class="node"><title>Node35</title>
<g id="a_node35"><a xlink:href="_i_plug_base_8cpp_source.html" target="_top" xlink:title="IPlugBase.cpp">
<polygon fill="white" stroke="black" points="1082,-336.5 1082,-355.5 1162,-355.5 1162,-336.5 1082,-336.5"/>
<text text-anchor="middle" x="1122" y="-343.5" font-family="Helvetica,sans-Serif" font-size="10.00">IPlugBase.cpp</text>
</a>
</g>
</g>
<!-- Node1&#45;&gt;Node35 -->
<g id="edge40" class="edge"><title>Node1&#45;&gt;Node35</title>
<path fill="none" stroke="midnightblue" d="M1122,-381.805C1122,-372.91 1122,-362.78 1122,-355.751"/>
<polygon fill="midnightblue" stroke="midnightblue" points="1118.5,-382.083 1122,-392.083 1125.5,-382.083 1118.5,-382.083"/>
</g>
<!-- Node36 -->
<g id="node36" class="node"><title>Node36</title>
<g id="a_node36"><a xlink:href="_i_plug_w_a_m_8h_source.html" target="_top" xlink:title="IPlugWAM.h">
<polygon fill="white" stroke="black" points="1180,-336.5 1180,-355.5 1252,-355.5 1252,-336.5 1180,-336.5"/>
<text text-anchor="middle" x="1216" y="-343.5" font-family="Helvetica,sans-Serif" font-size="10.00">IPlugWAM.h</text>
</a>
</g>
</g>
<!-- Node1&#45;&gt;Node36 -->
<g id="edge41" class="edge"><title>Node1&#45;&gt;Node36</title>
<path fill="none" stroke="midnightblue" d="M1146.06,-387.177C1163.36,-377.241 1186.15,-364.149 1200.93,-355.655"/>
<polygon fill="midnightblue" stroke="midnightblue" points="1144.03,-384.308 1137.1,-392.324 1147.52,-390.378 1144.03,-384.308"/>
</g>
<!-- Node3 -->
<g id="node3" class="node"><title>Node3</title>
<g id="a_node3"><a xlink:href="_i_control_8h_source.html" target="_top" xlink:title="IControl.h">
<polygon fill="white" stroke="black" points="560.5,-280.5 560.5,-299.5 619.5,-299.5 619.5,-280.5 560.5,-280.5"/>
<text text-anchor="middle" x="590" y="-287.5" font-family="Helvetica,sans-Serif" font-size="10.00">IControl.h</text>
</a>
</g>
</g>
<!-- Node2&#45;&gt;Node3 -->
<g id="edge2" class="edge"><title>Node2&#45;&gt;Node3</title>
<path fill="none" stroke="midnightblue" d="M944.171,-336.645C851.965,-324.762 686.693,-303.462 619.56,-294.81"/>
<polygon fill="midnightblue" stroke="midnightblue" points="943.858,-340.133 954.223,-337.94 944.752,-333.191 943.858,-340.133"/>
</g>
<!-- Node21 -->
<g id="node21" class="node"><title>Node21</title>
<g id="a_node21"><a xlink:href="_i_plug_base_graphics_8cpp_source.html" target="_top" xlink:title="IPlugBaseGraphics.cpp">
<polygon fill="white" stroke="black" points="706.5,-168.5 706.5,-187.5 825.5,-187.5 825.5,-168.5 706.5,-168.5"/>
<text text-anchor="middle" x="766" y="-175.5" font-family="Helvetica,sans-Serif" font-size="10.00">IPlugBaseGraphics.cpp</text>
</a>
</g>
</g>
<!-- Node2&#45;&gt;Node21 -->
<g id="edge28" class="edge"><title>Node2&#45;&gt;Node21</title>
<path fill="none" stroke="midnightblue" d="M944.459,-342.657C906.13,-338.234 858.608,-327.094 825,-300 815.357,-292.226 781.223,-214.347 769.775,-187.806"/>
<polygon fill="midnightblue" stroke="midnightblue" points="944.193,-346.148 954.498,-343.689 944.908,-339.185 944.193,-346.148"/>
</g>
<!-- Node24 -->
<g id="node24" class="node"><title>Node24</title>
<g id="a_node24"><a xlink:href="_i_plug_a_a_x_8h_source.html" target="_top" xlink:title="IPlugAAX.h">
<polygon fill="white" stroke="black" points="834,-280.5 834,-299.5 902,-299.5 902,-280.5 834,-280.5"/>
<text text-anchor="middle" x="868" y="-287.5" font-family="Helvetica,sans-Serif" font-size="10.00">IPlugAAX.h</text>
</a>
</g>
</g>
<!-- Node2&#45;&gt;Node24 -->
<g id="edge29" class="edge"><title>Node2&#45;&gt;Node24</title>
<path fill="none" stroke="midnightblue" d="M977.071,-332.772C950.586,-322.629 913.608,-308.467 890.237,-299.516"/>
<polygon fill="midnightblue" stroke="midnightblue" points="976.068,-336.136 986.658,-336.444 978.571,-329.599 976.068,-336.136"/>
</g>
<!-- Node26 -->
<g id="node26" class="node"><title>Node26</title>
<g id="a_node26"><a xlink:href="_i_plug_a_u_8h_source.html" target="_top" xlink:title="IPlugAU.h">
<polygon fill="white" stroke="black" points="920,-280.5 920,-299.5 982,-299.5 982,-280.5 920,-280.5"/>
<text text-anchor="middle" x="951" y="-287.5" font-family="Helvetica,sans-Serif" font-size="10.00">IPlugAU.h</text>
</a>
</g>
</g>
<!-- Node2&#45;&gt;Node26 -->
<g id="edge31" class="edge"><title>Node2&#45;&gt;Node26</title>
<path fill="none" stroke="midnightblue" d="M992.087,-329.253C981.797,-319.673 969.034,-307.791 960.488,-299.834"/>
<polygon fill="midnightblue" stroke="midnightblue" points="989.977,-332.071 999.681,-336.324 994.747,-326.948 989.977,-332.071"/>
</g>
<!-- Node28 -->
<g id="node28" class="node"><title>Node28</title>
<g id="a_node28"><a xlink:href="_i_plug_a_u___view_factory_8mm_source.html" target="_top" xlink:title="IPlugAU_ViewFactory.mm">
<polygon fill="white" stroke="black" points="1000.5,-280.5 1000.5,-299.5 1133.5,-299.5 1133.5,-280.5 1000.5,-280.5"/>
<text text-anchor="middle" x="1067" y="-287.5" font-family="Helvetica,sans-Serif" font-size="10.00">IPlugAU_ViewFactory.mm</text>
</a>
</g>
</g>
<!-- Node2&#45;&gt;Node28 -->
<g id="edge33" class="edge"><title>Node2&#45;&gt;Node28</title>
<path fill="none" stroke="midnightblue" d="M1025.91,-329.253C1036.2,-319.673 1048.97,-307.791 1057.51,-299.834"/>
<polygon fill="midnightblue" stroke="midnightblue" points="1023.25,-326.948 1018.32,-336.324 1028.02,-332.071 1023.25,-326.948"/>
</g>
<!-- Node29 -->
<g id="node29" class="node"><title>Node29</title>
<g id="a_node29"><a xlink:href="_i_plug_standalone_8h_source.html" target="_top" xlink:title="IPlugStandalone.h">
<polygon fill="white" stroke="black" points="1152,-280.5 1152,-299.5 1248,-299.5 1248,-280.5 1152,-280.5"/>
<text text-anchor="middle" x="1200" y="-287.5" font-family="Helvetica,sans-Serif" font-size="10.00">IPlugStandalone.h</text>
</a>
</g>
</g>
<!-- Node2&#45;&gt;Node29 -->
<g id="edge34" class="edge"><title>Node2&#45;&gt;Node29</title>
<path fill="none" stroke="midnightblue" d="M1048.97,-333.699C1085.02,-323.507 1137.24,-308.743 1169.88,-299.516"/>
<polygon fill="midnightblue" stroke="midnightblue" points="1047.94,-330.355 1039.26,-336.444 1049.84,-337.091 1047.94,-330.355"/>
</g>
<!-- Node31 -->
<g id="node31" class="node"><title>Node31</title>
<g id="a_node31"><a xlink:href="_i_plug_v_s_t_8h_source.html" target="_top" xlink:title="IPlugVST.h">
<polygon fill="white" stroke="black" points="1266.5,-280.5 1266.5,-299.5 1333.5,-299.5 1333.5,-280.5 1266.5,-280.5"/>
<text text-anchor="middle" x="1300" y="-287.5" font-family="Helvetica,sans-Serif" font-size="10.00">IPlugVST.h</text>
</a>
</g>
</g>
<!-- Node2&#45;&gt;Node31 -->
<g id="edge36" class="edge"><title>Node2&#45;&gt;Node31</title>
<path fill="none" stroke="midnightblue" d="M1068.53,-334.661C1118.82,-325.815 1192.71,-312.558 1257,-300 1259.99,-299.415 1263.1,-298.793 1266.22,-298.16"/>
<polygon fill="midnightblue" stroke="midnightblue" points="1067.72,-331.248 1058.48,-336.424 1068.93,-338.143 1067.72,-331.248"/>
</g>
<!-- Node33 -->
<g id="node33" class="node"><title>Node33</title>
<g id="a_node33"><a xlink:href="_i_plug_v_s_t3_8h_source.html" target="_top" xlink:title="IPlugVST3.h">
<polygon fill="white" stroke="black" points="1357,-280.5 1357,-299.5 1429,-299.5 1429,-280.5 1357,-280.5"/>
<text text-anchor="middle" x="1393" y="-287.5" font-family="Helvetica,sans-Serif" font-size="10.00">IPlugVST3.h</text>
</a>
</g>
</g>
<!-- Node2&#45;&gt;Node33 -->
<g id="edge38" class="edge"><title>Node2&#45;&gt;Node33</title>
<path fill="none" stroke="midnightblue" d="M1073.79,-335.904C1194.16,-319.53 1225.95,-317.998 1342,-300 1346.8,-299.256 1351.84,-298.425 1356.81,-297.578"/>
<polygon fill="midnightblue" stroke="midnightblue" points="1073.24,-332.446 1063.81,-337.268 1074.19,-339.382 1073.24,-332.446"/>
</g>
<!-- Node4 -->
<g id="node4" class="node"><title>Node4</title>
<g id="a_node4"><a xlink:href="_i_control_8cpp_source.html" target="_top" xlink:title="IControl.cpp">
<polygon fill="white" stroke="black" points="706,-224.5 706,-243.5 776,-243.5 776,-224.5 706,-224.5"/>
<text text-anchor="middle" x="741" y="-231.5" font-family="Helvetica,sans-Serif" font-size="10.00">IControl.cpp</text>
</a>
</g>
</g>
<!-- Node3&#45;&gt;Node4 -->
<g id="edge3" class="edge"><title>Node3&#45;&gt;Node4</title>
<path fill="none" stroke="midnightblue" d="M623.446,-277.039C651.858,-266.879 691.937,-252.546 717.186,-243.516"/>
<polygon fill="midnightblue" stroke="midnightblue" points="622.164,-273.781 613.926,-280.444 624.521,-280.372 622.164,-273.781"/>
</g>
<!-- Node5 -->
<g id="node5" class="node"><title>Node5</title>
<g id="a_node5"><a xlink:href="_i_graphics_8h_source.html" target="_top" xlink:title="IGraphics.h">
<polygon fill="white" stroke="black" points="506.5,-224.5 506.5,-243.5 573.5,-243.5 573.5,-224.5 506.5,-224.5"/>
<text text-anchor="middle" x="540" y="-231.5" font-family="Helvetica,sans-Serif" font-size="10.00">IGraphics.h</text>
</a>
</g>
</g>
<!-- Node3&#45;&gt;Node5 -->
<g id="edge4" class="edge"><title>Node3&#45;&gt;Node5</title>
<path fill="none" stroke="midnightblue" d="M569.22,-273.253C559.357,-263.673 548.705,-251.791 543.031,-243.834"/>
<polygon fill="midnightblue" stroke="midnightblue" points="567.138,-276.095 576.852,-280.324 571.895,-270.96 567.138,-276.095"/>
</g>
<!-- Node10 -->
<g id="node10" class="node"><title>Node10</title>
<g id="a_node10"><a xlink:href="_i_graphics_cairo_8cpp_source.html" target="_top" xlink:title="IGraphicsCairo.cpp">
<polygon fill="white" stroke="black" points="52.5,-112.5 52.5,-131.5 153.5,-131.5 153.5,-112.5 52.5,-112.5"/>
<text text-anchor="middle" x="103" y="-119.5" font-family="Helvetica,sans-Serif" font-size="10.00">IGraphicsCairo.cpp</text>
</a>
</g>
</g>
<!-- Node3&#45;&gt;Node10 -->
<g id="edge25" class="edge"><title>Node3&#45;&gt;Node10</title>
<path fill="none" stroke="midnightblue" d="M550.174,-285.583C448.802,-276.102 184.588,-246.246 122,-188 105.992,-173.102 103.216,-145.54 102.894,-131.58"/>
<polygon fill="midnightblue" stroke="midnightblue" points="550.031,-289.084 560.309,-286.513 550.671,-282.113 550.031,-289.084"/>
</g>
<!-- Node14 -->
<g id="node14" class="node"><title>Node14</title>
<g id="a_node14"><a xlink:href="_i_graphics_mac_8mm_source.html" target="_top" xlink:title="IGraphicsMac.mm">
<polygon fill="white" stroke="black" points="572.5,-0.5 572.5,-19.5 669.5,-19.5 669.5,-0.5 572.5,-0.5"/>
<text text-anchor="middle" x="621" y="-7.5" font-family="Helvetica,sans-Serif" font-size="10.00">IGraphicsMac.mm</text>
</a>
</g>
</g>
<!-- Node3&#45;&gt;Node14 -->
<g id="edge26" class="edge"><title>Node3&#45;&gt;Node14</title>
<path fill="none" stroke="midnightblue" d="M604.021,-272.807C624.309,-249.455 663.134,-205.056 697,-168 711.847,-151.755 722.869,-152.451 731,-132 743.479,-100.612 749.827,-84.044 731,-56 717.256,-35.5285 692.375,-24.3636 669.748,-18.2775"/>
<polygon fill="midnightblue" stroke="midnightblue" points="601.338,-270.559 597.429,-280.406 606.626,-275.146 601.338,-270.559"/>
</g>
<!-- Node3&#45;&gt;Node21 -->
<g id="edge27" class="edge"><title>Node3&#45;&gt;Node21</title>
<path fill="none" stroke="midnightblue" d="M612.386,-275.009C649.33,-251.919 721.983,-206.51 752.254,-187.591"/>
<polygon fill="midnightblue" stroke="midnightblue" points="610.435,-272.1 603.81,-280.368 614.145,-278.036 610.435,-272.1"/>
</g>
<!-- Node22 -->
<g id="node22" class="node"><title>Node22</title>
<g id="a_node22"><a xlink:href="_i_controls_8h_source.html" target="_top" xlink:title="IControls.h">
<polygon fill="white" stroke="black" points="7.5,-224.5 7.5,-243.5 72.5,-243.5 72.5,-224.5 7.5,-224.5"/>
<text text-anchor="middle" x="40" y="-231.5" font-family="Helvetica,sans-Serif" font-size="10.00">IControls.h</text>
</a>
</g>
</g>
<!-- Node3&#45;&gt;Node22 -->
<g id="edge23" class="edge"><title>Node3&#45;&gt;Node22</title>
<path fill="none" stroke="midnightblue" d="M550.258,-286.678C465.317,-281.442 259.902,-267.32 89,-244 83.6867,-243.275 78.0729,-242.373 72.6159,-241.423"/>
<polygon fill="midnightblue" stroke="midnightblue" points="550.052,-290.172 560.247,-287.287 550.478,-283.185 550.052,-290.172"/>
</g>
<!-- Node5&#45;&gt;Node3 -->
<g id="edge5" class="edge"><title>Node5&#45;&gt;Node3</title>
<path fill="none" stroke="midnightblue" d="M560.832,-250.797C570.647,-260.335 581.231,-272.141 586.91,-280.083"/>
<polygon fill="midnightblue" stroke="midnightblue" points="562.946,-247.985 553.234,-243.751 558.186,-253.117 562.946,-247.985"/>
</g>
<!-- Node6 -->
<g id="node6" class="node"><title>Node6</title>
<g id="a_node6"><a xlink:href="_i_graphics_8cpp_source.html" target="_top" xlink:title="IGraphics.cpp">
<polygon fill="white" stroke="black" points="239.5,-168.5 239.5,-187.5 316.5,-187.5 316.5,-168.5 239.5,-168.5"/>
<text text-anchor="middle" x="278" y="-175.5" font-family="Helvetica,sans-Serif" font-size="10.00">IGraphics.cpp</text>
</a>
</g>
</g>
<!-- Node5&#45;&gt;Node6 -->
<g id="edge6" class="edge"><title>Node5&#45;&gt;Node6</title>
<path fill="none" stroke="midnightblue" d="M496.388,-224.011C446.238,-213.675 364.673,-196.864 316.694,-186.975"/>
<polygon fill="midnightblue" stroke="midnightblue" points="495.784,-227.46 506.284,-226.051 497.197,-220.604 495.784,-227.46"/>
</g>
<!-- Node7 -->
<g id="node7" class="node"><title>Node7</title>
<g id="a_node7"><a xlink:href="_i_graphics_a_g_g_8h_source.html" target="_top" xlink:title="IGraphicsAGG.h">
<polygon fill="white" stroke="black" points="457.5,-168.5 457.5,-187.5 546.5,-187.5 546.5,-168.5 457.5,-168.5"/>
<text text-anchor="middle" x="502" y="-175.5" font-family="Helvetica,sans-Serif" font-size="10.00">IGraphicsAGG.h</text>
</a>
</g>
</g>
<!-- Node5&#45;&gt;Node7 -->
<g id="edge7" class="edge"><title>Node5&#45;&gt;Node7</title>
<path fill="none" stroke="midnightblue" d="M527.935,-215.855C521.355,-206.505 513.489,-195.327 508.158,-187.751"/>
<polygon fill="midnightblue" stroke="midnightblue" points="525.108,-217.919 533.725,-224.083 530.832,-213.891 525.108,-217.919"/>
</g>
<!-- Node9 -->
<g id="node9" class="node"><title>Node9</title>
<g id="a_node9"><a xlink:href="_i_graphics_cairo_8h_source.html" target="_top" xlink:title="IGraphicsCairo.h">
<polygon fill="white" stroke="black" points="131,-168.5 131,-187.5 221,-187.5 221,-168.5 131,-168.5"/>
<text text-anchor="middle" x="176" y="-175.5" font-family="Helvetica,sans-Serif" font-size="10.00">IGraphicsCairo.h</text>
</a>
</g>
</g>
<!-- Node5&#45;&gt;Node9 -->
<g id="edge9" class="edge"><title>Node5&#45;&gt;Node9</title>
<path fill="none" stroke="midnightblue" d="M496.225,-226.941C436.147,-218.557 324.792,-202.778 230,-188 227.089,-187.546 224.091,-187.07 221.07,-186.584"/>
<polygon fill="midnightblue" stroke="midnightblue" points="496.09,-230.456 506.478,-228.369 497.056,-223.523 496.09,-230.456"/>
</g>
<!-- Node11 -->
<g id="node11" class="node"><title>Node11</title>
<g id="a_node11"><a xlink:href="_i_graphics_lice_8h_source.html" target="_top" xlink:title="IGraphicsLice.h">
<polygon fill="white" stroke="black" points="564.5,-168.5 564.5,-187.5 649.5,-187.5 649.5,-168.5 564.5,-168.5"/>
<text text-anchor="middle" x="607" y="-175.5" font-family="Helvetica,sans-Serif" font-size="10.00">IGraphicsLice.h</text>
</a>
</g>
</g>
<!-- Node5&#45;&gt;Node11 -->
<g id="edge11" class="edge"><title>Node5&#45;&gt;Node11</title>
<path fill="none" stroke="midnightblue" d="M558.835,-217.82C570.838,-208.145 585.972,-195.948 596.039,-187.834"/>
<polygon fill="midnightblue" stroke="midnightblue" points="556.354,-215.324 550.765,-224.324 560.747,-220.774 556.354,-215.324"/>
</g>
<!-- Node19 -->
<g id="node19" class="node"><title>Node19</title>
<g id="a_node19"><a xlink:href="_i_graphics_nano_v_g_8h_source.html" target="_top" xlink:title="IGraphicsNanoVG.h">
<polygon fill="white" stroke="black" points="335,-168.5 335,-187.5 439,-187.5 439,-168.5 335,-168.5"/>
<text text-anchor="middle" x="387" y="-175.5" font-family="Helvetica,sans-Serif" font-size="10.00">IGraphicsNanoVG.h</text>
</a>
</g>
</g>
<!-- Node5&#45;&gt;Node19 -->
<g id="edge20" class="edge"><title>Node5&#45;&gt;Node19</title>
<path fill="none" stroke="midnightblue" d="M506.111,-221.039C477.323,-210.879 436.713,-196.546 411.13,-187.516"/>
<polygon fill="midnightblue" stroke="midnightblue" points="505.162,-224.416 515.757,-224.444 507.492,-217.815 505.162,-224.416"/>
</g>
<!-- Node5&#45;&gt;Node21 -->
<g id="edge22" class="edge"><title>Node5&#45;&gt;Node21</title>
<path fill="none" stroke="midnightblue" d="M583.645,-222.572C626.252,-212.391 690.31,-197.085 730.064,-187.587"/>
<polygon fill="midnightblue" stroke="midnightblue" points="582.747,-219.187 573.834,-224.916 584.374,-225.996 582.747,-219.187"/>
</g>
<!-- Node8 -->
<g id="node8" class="node"><title>Node8</title>
<g id="a_node8"><a xlink:href="_i_graphics_a_g_g_8cpp_source.html" target="_top" xlink:title="IGraphicsAGG.cpp">
<polygon fill="white" stroke="black" points="304.5,-112.5 304.5,-131.5 403.5,-131.5 403.5,-112.5 304.5,-112.5"/>
<text text-anchor="middle" x="354" y="-119.5" font-family="Helvetica,sans-Serif" font-size="10.00">IGraphicsAGG.cpp</text>
</a>
</g>
</g>
<!-- Node7&#45;&gt;Node8 -->
<g id="edge8" class="edge"><title>Node7&#45;&gt;Node8</title>
<path fill="none" stroke="midnightblue" d="M468.853,-164.906C441.028,-154.754 401.98,-140.506 377.341,-131.516"/>
<polygon fill="midnightblue" stroke="midnightblue" points="467.955,-168.304 478.549,-168.444 470.354,-161.728 467.955,-168.304"/>
</g>
<!-- Node9&#45;&gt;Node10 -->
<g id="edge10" class="edge"><title>Node9&#45;&gt;Node10</title>
<path fill="none" stroke="midnightblue" d="M155.858,-162.101C142.721,-152.382 126.018,-140.027 114.942,-131.834"/>
<polygon fill="midnightblue" stroke="midnightblue" points="154.15,-165.191 164.271,-168.324 158.313,-159.563 154.15,-165.191"/>
</g>
<!-- Node12 -->
<g id="node12" class="node"><title>Node12</title>
<g id="a_node12"><a xlink:href="_i_graphics_lice_8cpp_source.html" target="_top" xlink:title="IGraphicsLice.cpp">
<polygon fill="white" stroke="black" points="421.5,-112.5 421.5,-131.5 516.5,-131.5 516.5,-112.5 421.5,-112.5"/>
<text text-anchor="middle" x="469" y="-119.5" font-family="Helvetica,sans-Serif" font-size="10.00">IGraphicsLice.cpp</text>
</a>
</g>
</g>
<!-- Node11&#45;&gt;Node12 -->
<g id="edge12" class="edge"><title>Node11&#45;&gt;Node12</title>
<path fill="none" stroke="midnightblue" d="M575.751,-164.772C549.829,-154.629 513.638,-140.467 490.764,-131.516"/>
<polygon fill="midnightblue" stroke="midnightblue" points="574.546,-168.059 585.133,-168.444 577.096,-161.54 574.546,-168.059"/>
</g>
<!-- Node13 -->
<g id="node13" class="node"><title>Node13</title>
<g id="a_node13"><a xlink:href="_i_graphics_mac_8h_source.html" target="_top" xlink:title="IGraphicsMac.h">
<polygon fill="white" stroke="black" points="535,-112.5 535,-131.5 621,-131.5 621,-112.5 535,-112.5"/>
<text text-anchor="middle" x="578" y="-119.5" font-family="Helvetica,sans-Serif" font-size="10.00">IGraphicsMac.h</text>
</a>
</g>
</g>
<!-- Node11&#45;&gt;Node13 -->
<g id="edge13" class="edge"><title>Node11&#45;&gt;Node13</title>
<path fill="none" stroke="midnightblue" d="M597.324,-158.983C592.402,-149.817 586.642,-139.092 582.7,-131.751"/>
<polygon fill="midnightblue" stroke="midnightblue" points="594.396,-160.929 602.211,-168.083 600.563,-157.617 594.396,-160.929"/>
</g>
<!-- Node17 -->
<g id="node17" class="node"><title>Node17</title>
<g id="a_node17"><a xlink:href="_i_graphics_win_8h_source.html" target="_top" xlink:title="IGraphicsWin.h">
<polygon fill="white" stroke="black" points="639,-112.5 639,-131.5 723,-131.5 723,-112.5 639,-112.5"/>
<text text-anchor="middle" x="681" y="-119.5" font-family="Helvetica,sans-Serif" font-size="10.00">IGraphicsWin.h</text>
</a>
</g>
</g>
<!-- Node11&#45;&gt;Node17 -->
<g id="edge18" class="edge"><title>Node11&#45;&gt;Node17</title>
<path fill="none" stroke="midnightblue" d="M627.034,-162.38C640.409,-152.62 657.559,-140.106 668.894,-131.834"/>
<polygon fill="midnightblue" stroke="midnightblue" points="624.904,-159.602 618.889,-168.324 629.03,-165.257 624.904,-159.602"/>
</g>
<!-- Node13&#45;&gt;Node14 -->
<g id="edge14" class="edge"><title>Node13&#45;&gt;Node14</title>
<path fill="none" stroke="midnightblue" d="M585.037,-102.998C594.419,-78.9968 610.653,-37.4683 617.642,-19.5914"/>
<polygon fill="midnightblue" stroke="midnightblue" points="581.755,-101.78 581.374,-112.368 588.275,-104.329 581.755,-101.78"/>
</g>
<!-- Node15 -->
<g id="node15" class="node"><title>Node15</title>
<g id="a_node15"><a xlink:href="_i_graphics_view_8h_source.html" target="_top" xlink:title="IGraphicsView.h">
<polygon fill="white" stroke="black" points="481.5,-56.5 481.5,-75.5 570.5,-75.5 570.5,-56.5 481.5,-56.5"/>
<text text-anchor="middle" x="526" y="-63.5" font-family="Helvetica,sans-Serif" font-size="10.00">IGraphicsView.h</text>
</a>
</g>
</g>
<!-- Node13&#45;&gt;Node15 -->
<g id="edge15" class="edge"><title>Node13&#45;&gt;Node15</title>
<path fill="none" stroke="midnightblue" d="M562.321,-104.718C553.155,-95.1997 541.947,-83.5608 534.427,-75.7511"/>
<polygon fill="midnightblue" stroke="midnightblue" points="559.956,-107.308 569.413,-112.083 564.998,-102.452 559.956,-107.308"/>
</g>
<!-- Node15&#45;&gt;Node14 -->
<g id="edge16" class="edge"><title>Node15&#45;&gt;Node14</title>
<path fill="none" stroke="midnightblue" d="M550.318,-51.1774C567.799,-41.2407 590.83,-28.1492 605.774,-19.6545"/>
<polygon fill="midnightblue" stroke="midnightblue" points="548.227,-48.3395 541.263,-56.324 551.687,-54.425 548.227,-48.3395"/>
</g>
<!-- Node16 -->
<g id="node16" class="node"><title>Node16</title>
<g id="a_node16"><a xlink:href="_i_graphics_view_8mm_source.html" target="_top" xlink:title="IGraphicsView.mm">
<polygon fill="white" stroke="black" points="454,-0.5 454,-19.5 554,-19.5 554,-0.5 454,-0.5"/>
<text text-anchor="middle" x="504" y="-7.5" font-family="Helvetica,sans-Serif" font-size="10.00">IGraphicsView.mm</text>
</a>
</g>
</g>
<!-- Node15&#45;&gt;Node16 -->
<g id="edge17" class="edge"><title>Node15&#45;&gt;Node16</title>
<path fill="none" stroke="midnightblue" d="M518.54,-46.6897C514.833,-37.589 510.524,-27.0141 507.565,-19.7511"/>
<polygon fill="midnightblue" stroke="midnightblue" points="515.353,-48.1426 522.367,-56.083 521.835,-45.5015 515.353,-48.1426"/>
</g>
<!-- Node18 -->
<g id="node18" class="node"><title>Node18</title>
<g id="a_node18"><a xlink:href="_i_graphics_win_8cpp_source.html" target="_top" xlink:title="IGraphicsWin.cpp">
<polygon fill="white" stroke="black" points="627.5,-56.5 627.5,-75.5 722.5,-75.5 722.5,-56.5 627.5,-56.5"/>
<text text-anchor="middle" x="675" y="-63.5" font-family="Helvetica,sans-Serif" font-size="10.00">IGraphicsWin.cpp</text>
</a>
</g>
</g>
<!-- Node17&#45;&gt;Node18 -->
<g id="edge19" class="edge"><title>Node17&#45;&gt;Node18</title>
<path fill="none" stroke="midnightblue" d="M678.9,-102.101C677.904,-93.1357 676.762,-82.8579 675.972,-75.7511"/>
<polygon fill="midnightblue" stroke="midnightblue" points="675.426,-102.531 680.009,-112.083 682.383,-101.758 675.426,-102.531"/>
</g>
<!-- Node20 -->
<g id="node20" class="node"><title>Node20</title>
<g id="a_node20"><a xlink:href="_i_graphics_nano_v_g_8cpp_source.html" target="_top" xlink:title="IGraphicsNanoVG.cpp">
<polygon fill="white" stroke="black" points="171.5,-112.5 171.5,-131.5 286.5,-131.5 286.5,-112.5 171.5,-112.5"/>
<text text-anchor="middle" x="229" y="-119.5" font-family="Helvetica,sans-Serif" font-size="10.00">IGraphicsNanoVG.cpp</text>
</a>
</g>
</g>
<!-- Node19&#45;&gt;Node20 -->
<g id="edge21" class="edge"><title>Node19&#45;&gt;Node20</title>
<path fill="none" stroke="midnightblue" d="M352.392,-165.172C322.641,-155.004 280.453,-140.585 253.918,-131.516"/>
<polygon fill="midnightblue" stroke="midnightblue" points="351.37,-168.521 361.964,-168.444 353.634,-161.898 351.37,-168.521"/>
</g>
<!-- Node23 -->
<g id="node23" class="node"><title>Node23</title>
<g id="a_node23"><a xlink:href="_i_controls_8cpp_source.html" target="_top" xlink:title="IControls.cpp">
<polygon fill="white" stroke="black" points="-0.5,-168.5 -0.5,-187.5 74.5,-187.5 74.5,-168.5 -0.5,-168.5"/>
<text text-anchor="middle" x="37" y="-175.5" font-family="Helvetica,sans-Serif" font-size="10.00">IControls.cpp</text>
</a>
</g>
</g>
<!-- Node22&#45;&gt;Node23 -->
<g id="edge24" class="edge"><title>Node22&#45;&gt;Node23</title>
<path fill="none" stroke="midnightblue" d="M38.9336,-213.805C38.4395,-204.91 37.8767,-194.78 37.4862,-187.751"/>
<polygon fill="midnightblue" stroke="midnightblue" points="35.4552,-214.293 39.5046,-224.083 42.4444,-213.904 35.4552,-214.293"/>
</g>
<!-- Node25 -->
<g id="node25" class="node"><title>Node25</title>
<g id="a_node25"><a xlink:href="_i_plug_a_a_x_8cpp_source.html" target="_top" xlink:title="IPlugAAX.cpp">
<polygon fill="white" stroke="black" points="832,-224.5 832,-243.5 910,-243.5 910,-224.5 832,-224.5"/>
<text text-anchor="middle" x="871" y="-231.5" font-family="Helvetica,sans-Serif" font-size="10.00">IPlugAAX.cpp</text>
</a>
</g>
</g>
<!-- Node24&#45;&gt;Node25 -->
<g id="edge30" class="edge"><title>Node24&#45;&gt;Node25</title>
<path fill="none" stroke="midnightblue" d="M869.066,-269.805C869.561,-260.91 870.123,-250.78 870.514,-243.751"/>
<polygon fill="midnightblue" stroke="midnightblue" points="865.556,-269.904 868.495,-280.083 872.545,-270.293 865.556,-269.904"/>
</g>
<!-- Node27 -->
<g id="node27" class="node"><title>Node27</title>
<g id="a_node27"><a xlink:href="_i_plug_a_u_8cpp_source.html" target="_top" xlink:title="IPlugAU.cpp">
<polygon fill="white" stroke="black" points="928,-224.5 928,-243.5 1000,-243.5 1000,-224.5 928,-224.5"/>
<text text-anchor="middle" x="964" y="-231.5" font-family="Helvetica,sans-Serif" font-size="10.00">IPlugAU.cpp</text>
</a>
</g>
</g>
<!-- Node26&#45;&gt;Node27 -->
<g id="edge32" class="edge"><title>Node26&#45;&gt;Node27</title>
<path fill="none" stroke="midnightblue" d="M955.55,-270.101C957.708,-261.136 960.182,-250.858 961.893,-243.751"/>
<polygon fill="midnightblue" stroke="midnightblue" points="952.085,-269.542 953.147,-280.083 958.89,-271.18 952.085,-269.542"/>
</g>
<!-- Node30 -->
<g id="node30" class="node"><title>Node30</title>
<g id="a_node30"><a xlink:href="_i_plug_standalone_8cpp_source.html" target="_top" xlink:title="IPlugStandalone.cpp">
<polygon fill="white" stroke="black" points="1136.5,-224.5 1136.5,-243.5 1243.5,-243.5 1243.5,-224.5 1136.5,-224.5"/>
<text text-anchor="middle" x="1190" y="-231.5" font-family="Helvetica,sans-Serif" font-size="10.00">IPlugStandalone.cpp</text>
</a>
</g>
</g>
<!-- Node29&#45;&gt;Node30 -->
<g id="edge35" class="edge"><title>Node29&#45;&gt;Node30</title>
<path fill="none" stroke="midnightblue" d="M1196.5,-270.101C1194.84,-261.136 1192.94,-250.858 1191.62,-243.751"/>
<polygon fill="midnightblue" stroke="midnightblue" points="1193.09,-270.888 1198.35,-280.083 1199.97,-269.613 1193.09,-270.888"/>
</g>
<!-- Node32 -->
<g id="node32" class="node"><title>Node32</title>
<g id="a_node32"><a xlink:href="_i_plug_v_s_t_8cpp_source.html" target="_top" xlink:title="IPlugVST.cpp">
<polygon fill="white" stroke="black" points="1261.5,-224.5 1261.5,-243.5 1338.5,-243.5 1338.5,-224.5 1261.5,-224.5"/>
<text text-anchor="middle" x="1300" y="-231.5" font-family="Helvetica,sans-Serif" font-size="10.00">IPlugVST.cpp</text>
</a>
</g>
</g>
<!-- Node31&#45;&gt;Node32 -->
<g id="edge37" class="edge"><title>Node31&#45;&gt;Node32</title>
<path fill="none" stroke="midnightblue" d="M1300,-269.805C1300,-260.91 1300,-250.78 1300,-243.751"/>
<polygon fill="midnightblue" stroke="midnightblue" points="1296.5,-270.083 1300,-280.083 1303.5,-270.083 1296.5,-270.083"/>
</g>
<!-- Node34 -->
<g id="node34" class="node"><title>Node34</title>
<g id="a_node34"><a xlink:href="_i_plug_v_s_t3_8cpp_source.html" target="_top" xlink:title="IPlugVST3.cpp">
<polygon fill="white" stroke="black" points="1356.5,-224.5 1356.5,-243.5 1439.5,-243.5 1439.5,-224.5 1356.5,-224.5"/>
<text text-anchor="middle" x="1398" y="-231.5" font-family="Helvetica,sans-Serif" font-size="10.00">IPlugVST3.cpp</text>
</a>
</g>
</g>
<!-- Node33&#45;&gt;Node34 -->
<g id="edge39" class="edge"><title>Node33&#45;&gt;Node34</title>
<path fill="none" stroke="midnightblue" d="M1394.75,-270.101C1395.58,-261.136 1396.53,-250.858 1397.19,-243.751"/>
<polygon fill="midnightblue" stroke="midnightblue" points="1391.26,-269.803 1393.83,-280.083 1398.23,-270.448 1391.26,-269.803"/>
</g>
</g>
</svg>
