<?xml version="1.0" encoding="UTF-8" standalone="no"?>
<!DOCTYPE svg PUBLIC "-//W3C//DTD SVG 1.1//EN"
 "http://www.w3.org/Graphics/SVG/1.1/DTD/svg11.dtd">
<!-- Generated by graphviz version 2.36.0 (20140111.2315)
 -->
<!-- Title: IPlugUtilities.h Pages: 1 -->
<!--zoomable 476 -->
<svg id="main" version="1.1" xmlns="http://www.w3.org/2000/svg" xmlns:xlink="http://www.w3.org/1999/xlink" xml:space="preserve" onload="init(evt)">
<style type="text/css"><![CDATA[
.edge:hover path { stroke: red; }
.edge:hover polygon { stroke: red; fill: red; }
]]></style>
<script type="text/javascript"><![CDATA[
var edges = document.getElementsByTagName('g');
if (edges && edges.length) {
  for (var i=0;i<edges.length;i++) {
    if (edges[i].id.substr(0,4)=='edge') {
      edges[i].setAttribute('class','edge');
    }
  }
}
]]></script>
        <defs>
                <circle id="rim" cx="0" cy="0" r="7"/>
                <circle id="rim2" cx="0" cy="0" r="3.5"/>
                <g id="zoomPlus">
                        <use xlink:href="#rim" fill="#404040">
                                <set attributeName="fill" to="#808080" begin="zoomplus.mouseover" end="zoomplus.mouseout"/>
                        </use>
                        <path d="M-4,0h8M0,-4v8" fill="none" stroke="white" stroke-width="1.5" pointer-events="none"/>
                </g>
                <g id="zoomMin">
                        <use xlink:href="#rim" fill="#404040">
                                <set attributeName="fill" to="#808080" begin="zoomminus.mouseover" end="zoomminus.mouseout"/>
                        </use>
                        <path d="M-4,0h8" fill="none" stroke="white" stroke-width="1.5" pointer-events="none"/>
                </g>
                <g id="dirArrow">
                        <path fill="none" stroke="white" stroke-width="1.5" d="M0,-3.0v7 M-2.5,-0.5L0,-3.0L2.5,-0.5"/>
                </g>
               <g id="resetDef">
                       <use xlink:href="#rim2" fill="#404040">
                               <set attributeName="fill" to="#808080" begin="reset.mouseover" end="reset.mouseout"/>
                       </use>
               </g>
        </defs>

<script type="text/javascript">
var viewWidth = 1712;
var viewHeight = 476;
var sectionId = 'dynsection-1';
</script>
<script xlink:href="svgpan.js"/>
<svg id="graph" class="graph">
<g id="viewport">
<title>IPlugUtilities.h</title>
<polygon fill="white" stroke="none" points="-4,4 -4,-472 1708,-472 1708,4 -4,4"/>
<!-- Node1 -->
<g id="node1" class="node"><title>Node1</title>
<polygon fill="#bfbfbf" stroke="black" points="1080,-448.5 1080,-467.5 1160,-467.5 1160,-448.5 1080,-448.5"/>
<text text-anchor="middle" x="1120" y="-455.5" font-family="Helvetica,sans-Serif" font-size="10.00">IPlugUtilities.h</text>
</g>
<!-- Node2 -->
<g id="node2" class="node"><title>Node2</title>
<g id="a_node2"><a xlink:href="_log_8h_source.html" target="_top" xlink:title="Log.h">
<polygon fill="white" stroke="black" points="694.5,-336.5 694.5,-355.5 735.5,-355.5 735.5,-336.5 694.5,-336.5"/>
<text text-anchor="middle" x="715" y="-343.5" font-family="Helvetica,sans-Serif" font-size="10.00">Log.h</text>
</a>
</g>
</g>
<!-- Node1&#45;&gt;Node2 -->
<g id="edge1" class="edge"><title>Node1&#45;&gt;Node2</title>
<path fill="none" stroke="midnightblue" d="M1078.69,-445.78C993.255,-422.576 799.79,-370.03 735.907,-352.678"/>
<polygon fill="midnightblue" stroke="midnightblue" points="1077.99,-449.216 1088.56,-448.46 1079.82,-442.461 1077.99,-449.216"/>
</g>
<!-- Node43 -->
<g id="node43" class="node"><title>Node43</title>
<g id="a_node43"><a xlink:href="_i_param_8h_source.html" target="_top" xlink:title="IParam.h">
<polygon fill="white" stroke="black" points="1381,-336.5 1381,-355.5 1437,-355.5 1437,-336.5 1381,-336.5"/>
<text text-anchor="middle" x="1409" y="-343.5" font-family="Helvetica,sans-Serif" font-size="10.00">IParam.h</text>
</a>
</g>
</g>
<!-- Node1&#45;&gt;Node43 -->
<g id="edge58" class="edge"><title>Node1&#45;&gt;Node43</title>
<path fill="none" stroke="midnightblue" d="M1152.25,-444.726C1211.31,-422.245 1335.46,-374.991 1386.43,-355.591"/>
<polygon fill="midnightblue" stroke="midnightblue" points="1150.78,-441.54 1142.68,-448.368 1153.27,-448.082 1150.78,-441.54"/>
</g>
<!-- Node45 -->
<g id="node45" class="node"><title>Node45</title>
<g id="a_node45"><a xlink:href="_i_plug_byte_chunk_8h_source.html" target="_top" xlink:title="IPlugByteChunk.h">
<polygon fill="white" stroke="black" points="1072,-392.5 1072,-411.5 1168,-411.5 1168,-392.5 1072,-392.5"/>
<text text-anchor="middle" x="1120" y="-399.5" font-family="Helvetica,sans-Serif" font-size="10.00">IPlugByteChunk.h</text>
</a>
</g>
</g>
<!-- Node1&#45;&gt;Node45 -->
<g id="edge62" class="edge"><title>Node1&#45;&gt;Node45</title>
<path fill="none" stroke="midnightblue" d="M1120,-437.805C1120,-428.91 1120,-418.78 1120,-411.751"/>
<polygon fill="midnightblue" stroke="midnightblue" points="1116.5,-438.083 1120,-448.083 1123.5,-438.083 1116.5,-438.083"/>
</g>
<!-- Node3 -->
<g id="node3" class="node"><title>Node3</title>
<g id="a_node3"><a xlink:href="_hosts_8cpp_source.html" target="_top" xlink:title="Hosts.cpp">
<polygon fill="white" stroke="black" points="759,-280.5 759,-299.5 821,-299.5 821,-280.5 759,-280.5"/>
<text text-anchor="middle" x="790" y="-287.5" font-family="Helvetica,sans-Serif" font-size="10.00">Hosts.cpp</text>
</a>
</g>
</g>
<!-- Node2&#45;&gt;Node3 -->
<g id="edge2" class="edge"><title>Node2&#45;&gt;Node3</title>
<path fill="none" stroke="midnightblue" d="M735.305,-330.38C748.861,-320.62 766.242,-308.106 777.731,-299.834"/>
<polygon fill="midnightblue" stroke="midnightblue" points="733.12,-327.641 727.05,-336.324 737.21,-333.321 733.12,-327.641"/>
</g>
<!-- Node4 -->
<g id="node4" class="node"><title>Node4</title>
<g id="a_node4"><a xlink:href="_i_graphics_structs_8h_source.html" target="_top" xlink:title="IGraphicsStructs.h">
<polygon fill="white" stroke="black" points="535,-280.5 535,-299.5 633,-299.5 633,-280.5 535,-280.5"/>
<text text-anchor="middle" x="584" y="-287.5" font-family="Helvetica,sans-Serif" font-size="10.00">IGraphicsStructs.h</text>
</a>
</g>
</g>
<!-- Node2&#45;&gt;Node4 -->
<g id="edge3" class="edge"><title>Node2&#45;&gt;Node4</title>
<path fill="none" stroke="midnightblue" d="M684.683,-332.503C660.124,-322.38 626.182,-308.388 604.66,-299.516"/>
<polygon fill="midnightblue" stroke="midnightblue" points="683.663,-335.868 694.243,-336.444 686.331,-329.397 683.663,-335.868"/>
</g>
<!-- Node7 -->
<g id="node7" class="node"><title>Node7</title>
<g id="a_node7"><a xlink:href="_i_control_8cpp_source.html" target="_top" xlink:title="IControl.cpp">
<polygon fill="white" stroke="black" points="878,-112.5 878,-131.5 948,-131.5 948,-112.5 878,-112.5"/>
<text text-anchor="middle" x="913" y="-119.5" font-family="Helvetica,sans-Serif" font-size="10.00">IControl.cpp</text>
</a>
</g>
</g>
<!-- Node2&#45;&gt;Node7 -->
<g id="edge30" class="edge"><title>Node2&#45;&gt;Node7</title>
<path fill="none" stroke="midnightblue" d="M745.647,-339.411C770.73,-333.443 805.745,-321.744 829,-300 882.169,-250.286 905.145,-160.002 911.252,-131.715"/>
<polygon fill="midnightblue" stroke="midnightblue" points="744.581,-336.061 735.568,-341.63 746.087,-342.898 744.581,-336.061"/>
</g>
<!-- Node10 -->
<g id="node10" class="node"><title>Node10</title>
<g id="a_node10"><a xlink:href="_i_graphics_cairo_8cpp_source.html" target="_top" xlink:title="IGraphicsCairo.cpp">
<polygon fill="white" stroke="black" points="636.5,-112.5 636.5,-131.5 737.5,-131.5 737.5,-112.5 636.5,-112.5"/>
<text text-anchor="middle" x="687" y="-119.5" font-family="Helvetica,sans-Serif" font-size="10.00">IGraphicsCairo.cpp</text>
</a>
</g>
</g>
<!-- Node2&#45;&gt;Node10 -->
<g id="edge32" class="edge"><title>Node2&#45;&gt;Node10</title>
<path fill="none" stroke="midnightblue" d="M698.349,-329.043C691.233,-321.078 683.719,-310.839 680,-300 668.391,-266.165 705.483,-235.618 714,-188 715.565,-179.25 716.373,-176.566 714,-168 710.157,-154.127 700.773,-140.237 694.151,-131.636"/>
<polygon fill="midnightblue" stroke="midnightblue" points="695.999,-331.65 705.444,-336.45 701.054,-326.808 695.999,-331.65"/>
</g>
<!-- Node11 -->
<g id="node11" class="node"><title>Node11</title>
<g id="a_node11"><a xlink:href="_i_graphics_mac_8mm_source.html" target="_top" xlink:title="IGraphicsMac.mm">
<polygon fill="white" stroke="black" points="572.5,-0.5 572.5,-19.5 669.5,-19.5 669.5,-0.5 572.5,-0.5"/>
<text text-anchor="middle" x="621" y="-7.5" font-family="Helvetica,sans-Serif" font-size="10.00">IGraphicsMac.mm</text>
</a>
</g>
</g>
<!-- Node2&#45;&gt;Node11 -->
<g id="edge34" class="edge"><title>Node2&#45;&gt;Node11</title>
<path fill="none" stroke="midnightblue" d="M683.995,-344.137C579.132,-340.98 238.419,-328.708 133,-300 69.519,-282.713 0,-300.793 0,-235 0,-235 0,-235 0,-121 0,-62.9699 425.876,-25.6151 572.271,-14.4887"/>
<polygon fill="midnightblue" stroke="midnightblue" points="684.122,-347.642 694.221,-344.438 684.328,-340.645 684.122,-347.642"/>
</g>
<!-- Node15 -->
<g id="node15" class="node"><title>Node15</title>
<g id="a_node15"><a xlink:href="_i_graphics_a_g_g_8cpp_source.html" target="_top" xlink:title="IGraphicsAGG.cpp">
<polygon fill="white" stroke="black" points="199.5,-112.5 199.5,-131.5 298.5,-131.5 298.5,-112.5 199.5,-112.5"/>
<text text-anchor="middle" x="249" y="-119.5" font-family="Helvetica,sans-Serif" font-size="10.00">IGraphicsAGG.cpp</text>
</a>
</g>
</g>
<!-- Node2&#45;&gt;Node15 -->
<g id="edge31" class="edge"><title>Node2&#45;&gt;Node15</title>
<path fill="none" stroke="midnightblue" d="M684.281,-341.3C640.68,-335.49 558.727,-322.505 492,-300 383.886,-263.537 330.137,-278.766 261,-188 248.206,-171.203 247.604,-144.973 248.278,-131.547"/>
<polygon fill="midnightblue" stroke="midnightblue" points="683.887,-344.778 694.254,-342.591 684.787,-337.836 683.887,-344.778"/>
</g>
<!-- Node18 -->
<g id="node18" class="node"><title>Node18</title>
<g id="a_node18"><a xlink:href="_i_graphics_lice_8cpp_source.html" target="_top" xlink:title="IGraphicsLice.cpp">
<polygon fill="white" stroke="black" points="316.5,-112.5 316.5,-131.5 411.5,-131.5 411.5,-112.5 316.5,-112.5"/>
<text text-anchor="middle" x="364" y="-119.5" font-family="Helvetica,sans-Serif" font-size="10.00">IGraphicsLice.cpp</text>
</a>
</g>
</g>
<!-- Node2&#45;&gt;Node18 -->
<g id="edge33" class="edge"><title>Node2&#45;&gt;Node18</title>
<path fill="none" stroke="midnightblue" d="M684.315,-342.591C645.428,-338.475 577.292,-327.651 526,-300 447.163,-257.5 386.483,-161.542 369.068,-131.896"/>
<polygon fill="midnightblue" stroke="midnightblue" points="684.177,-346.094 694.47,-343.583 684.857,-339.127 684.177,-346.094"/>
</g>
<!-- Node23 -->
<g id="node23" class="node"><title>Node23</title>
<g id="a_node23"><a xlink:href="_i_graphics_win_8cpp_source.html" target="_top" xlink:title="IGraphicsWin.cpp">
<polygon fill="white" stroke="black" points="226.5,-56.5 226.5,-75.5 321.5,-75.5 321.5,-56.5 226.5,-56.5"/>
<text text-anchor="middle" x="274" y="-63.5" font-family="Helvetica,sans-Serif" font-size="10.00">IGraphicsWin.cpp</text>
</a>
</g>
</g>
<!-- Node2&#45;&gt;Node23 -->
<g id="edge36" class="edge"><title>Node2&#45;&gt;Node23</title>
<path fill="none" stroke="midnightblue" d="M684.118,-343.295C551.625,-335.578 38,-301.379 38,-235 38,-235 38,-235 38,-177 38,-146.902 34.8845,-132.415 57,-112 81.1717,-89.6866 169.873,-77.1043 226.112,-71.2088"/>
<polygon fill="midnightblue" stroke="midnightblue" points="684.185,-346.805 694.369,-343.883 684.586,-339.816 684.185,-346.805"/>
</g>
<!-- Node25 -->
<g id="node25" class="node"><title>Node25</title>
<g id="a_node25"><a xlink:href="_i_graphics_nano_v_g_8cpp_source.html" target="_top" xlink:title="IGraphicsNanoVG.cpp">
<polygon fill="white" stroke="black" points="66.5,-112.5 66.5,-131.5 181.5,-131.5 181.5,-112.5 66.5,-112.5"/>
<text text-anchor="middle" x="124" y="-119.5" font-family="Helvetica,sans-Serif" font-size="10.00">IGraphicsNanoVG.cpp</text>
</a>
</g>
</g>
<!-- Node2&#45;&gt;Node25 -->
<g id="edge35" class="edge"><title>Node2&#45;&gt;Node25</title>
<path fill="none" stroke="midnightblue" d="M684.186,-342.271C629.819,-337.029 513.575,-323.896 418,-300 273.038,-263.757 187.283,-309.995 101,-188 88.4199,-170.213 105.352,-144.864 116.192,-131.695"/>
<polygon fill="midnightblue" stroke="midnightblue" points="683.926,-345.762 694.21,-343.215 684.583,-338.793 683.926,-345.762"/>
</g>
<!-- Node26 -->
<g id="node26" class="node"><title>Node26</title>
<g id="a_node26"><a xlink:href="_i_plug_a_u_8cpp_source.html" target="_top" xlink:title="IPlugAU.cpp">
<polygon fill="white" stroke="black" points="1111,-112.5 1111,-131.5 1183,-131.5 1183,-112.5 1111,-112.5"/>
<text text-anchor="middle" x="1147" y="-119.5" font-family="Helvetica,sans-Serif" font-size="10.00">IPlugAU.cpp</text>
</a>
</g>
</g>
<!-- Node2&#45;&gt;Node26 -->
<g id="edge37" class="edge"><title>Node2&#45;&gt;Node26</title>
<path fill="none" stroke="midnightblue" d="M746.11,-340.61C775.722,-335.168 820.339,-323.56 852,-300 909.369,-257.31 884.584,-207.793 944,-168 957.759,-158.785 1056.09,-139.66 1110.69,-129.566"/>
<polygon fill="midnightblue" stroke="midnightblue" points="745.2,-337.214 735.931,-342.346 746.378,-344.115 745.2,-337.214"/>
</g>
<!-- Node27 -->
<g id="node27" class="node"><title>Node27</title>
<g id="a_node27"><a xlink:href="_i_plug_a_u___view_factory_8mm_source.html" target="_top" xlink:title="IPlugAU_ViewFactory.mm">
<polygon fill="white" stroke="black" points="953.5,-168.5 953.5,-187.5 1086.5,-187.5 1086.5,-168.5 953.5,-168.5"/>
<text text-anchor="middle" x="1020" y="-175.5" font-family="Helvetica,sans-Serif" font-size="10.00">IPlugAU_ViewFactory.mm</text>
</a>
</g>
</g>
<!-- Node2&#45;&gt;Node27 -->
<g id="edge38" class="edge"><title>Node2&#45;&gt;Node27</title>
<path fill="none" stroke="midnightblue" d="M745.645,-339.082C776.468,-332.362 824.776,-319.701 863,-300 925.707,-267.68 988.661,-209.531 1011.26,-187.645"/>
<polygon fill="midnightblue" stroke="midnightblue" points="744.581,-335.729 735.516,-341.213 746.023,-342.579 744.581,-335.729"/>
</g>
<!-- Node28 -->
<g id="node28" class="node"><title>Node28</title>
<g id="a_node28"><a xlink:href="_i_plug_base_8h.html" target="_top" xlink:title="The lowest level base class of an IPlug plug&#45;in. ">
<polygon fill="white" stroke="black" points="1119,-280.5 1119,-299.5 1189,-299.5 1189,-280.5 1119,-280.5"/>
<text text-anchor="middle" x="1154" y="-287.5" font-family="Helvetica,sans-Serif" font-size="10.00">IPlugBase.h</text>
</a>
</g>
</g>
<!-- Node2&#45;&gt;Node28 -->
<g id="edge39" class="edge"><title>Node2&#45;&gt;Node28</title>
<path fill="none" stroke="midnightblue" d="M745.991,-341.497C810.207,-334.189 962.459,-316.619 1090,-300 1099.35,-298.782 1109.45,-297.395 1118.81,-296.08"/>
<polygon fill="midnightblue" stroke="midnightblue" points="745.292,-338.053 735.751,-342.659 746.082,-345.008 745.292,-338.053"/>
</g>
<!-- Node41 -->
<g id="node41" class="node"><title>Node41</title>
<g id="a_node41"><a xlink:href="_i_plug_structs_8cpp_source.html" target="_top" xlink:title="IPlugStructs.cpp">
<polygon fill="white" stroke="black" points="992.5,-280.5 992.5,-299.5 1081.5,-299.5 1081.5,-280.5 992.5,-280.5"/>
<text text-anchor="middle" x="1037" y="-287.5" font-family="Helvetica,sans-Serif" font-size="10.00">IPlugStructs.cpp</text>
</a>
</g>
</g>
<!-- Node2&#45;&gt;Node41 -->
<g id="edge56" class="edge"><title>Node2&#45;&gt;Node41</title>
<path fill="none" stroke="midnightblue" d="M745.502,-339.885C802.637,-330.303 926.004,-309.614 992.453,-298.471"/>
<polygon fill="midnightblue" stroke="midnightblue" points="744.916,-336.434 735.632,-341.54 746.074,-343.338 744.916,-336.434"/>
</g>
<!-- Node42 -->
<g id="node42" class="node"><title>Node42</title>
<g id="a_node42"><a xlink:href="_log_8cpp_source.html" target="_top" xlink:title="Log.cpp">
<polygon fill="white" stroke="black" points="689.5,-280.5 689.5,-299.5 740.5,-299.5 740.5,-280.5 689.5,-280.5"/>
<text text-anchor="middle" x="715" y="-287.5" font-family="Helvetica,sans-Serif" font-size="10.00">Log.cpp</text>
</a>
</g>
</g>
<!-- Node2&#45;&gt;Node42 -->
<g id="edge57" class="edge"><title>Node2&#45;&gt;Node42</title>
<path fill="none" stroke="midnightblue" d="M715,-325.805C715,-316.91 715,-306.78 715,-299.751"/>
<polygon fill="midnightblue" stroke="midnightblue" points="711.5,-326.083 715,-336.083 718.5,-326.083 711.5,-326.083"/>
</g>
<!-- Node5 -->
<g id="node5" class="node"><title>Node5</title>
<g id="a_node5"><a xlink:href="_i_graphics_8h_source.html" target="_top" xlink:title="IGraphics.h">
<polygon fill="white" stroke="black" points="550.5,-224.5 550.5,-243.5 617.5,-243.5 617.5,-224.5 550.5,-224.5"/>
<text text-anchor="middle" x="584" y="-231.5" font-family="Helvetica,sans-Serif" font-size="10.00">IGraphics.h</text>
</a>
</g>
</g>
<!-- Node4&#45;&gt;Node5 -->
<g id="edge4" class="edge"><title>Node4&#45;&gt;Node5</title>
<path fill="none" stroke="midnightblue" d="M584,-269.805C584,-260.91 584,-250.78 584,-243.751"/>
<polygon fill="midnightblue" stroke="midnightblue" points="580.5,-270.083 584,-280.083 587.5,-270.083 580.5,-270.083"/>
</g>
<!-- Node6 -->
<g id="node6" class="node"><title>Node6</title>
<g id="a_node6"><a xlink:href="_i_control_8h_source.html" target="_top" xlink:title="IControl.h">
<polygon fill="white" stroke="black" points="761.5,-168.5 761.5,-187.5 820.5,-187.5 820.5,-168.5 761.5,-168.5"/>
<text text-anchor="middle" x="791" y="-175.5" font-family="Helvetica,sans-Serif" font-size="10.00">IControl.h</text>
</a>
</g>
</g>
<!-- Node5&#45;&gt;Node6 -->
<g id="edge5" class="edge"><title>Node5&#45;&gt;Node6</title>
<path fill="none" stroke="midnightblue" d="M621.401,-221.783C661.545,-210.836 724.288,-194.556 761.243,-185.563"/>
<polygon fill="midnightblue" stroke="midnightblue" points="620.427,-218.421 611.711,-224.444 622.281,-225.171 620.427,-218.421"/>
</g>
<!-- Node12 -->
<g id="node12" class="node"><title>Node12</title>
<g id="a_node12"><a xlink:href="_i_plug_base_graphics_8cpp_source.html" target="_top" xlink:title="IPlugBaseGraphics.cpp">
<polygon fill="white" stroke="black" points="966.5,-112.5 966.5,-131.5 1085.5,-131.5 1085.5,-112.5 966.5,-112.5"/>
<text text-anchor="middle" x="1026" y="-119.5" font-family="Helvetica,sans-Serif" font-size="10.00">IPlugBaseGraphics.cpp</text>
</a>
</g>
</g>
<!-- Node5&#45;&gt;Node12 -->
<g id="edge29" class="edge"><title>Node5&#45;&gt;Node12</title>
<path fill="none" stroke="midnightblue" d="M627.602,-226.839C676.901,-219.447 759.371,-205.792 829,-188 893.379,-171.549 967.286,-145.049 1003.55,-131.529"/>
<polygon fill="midnightblue" stroke="midnightblue" points="626.981,-223.393 617.602,-228.321 628.007,-230.317 626.981,-223.393"/>
</g>
<!-- Node13 -->
<g id="node13" class="node"><title>Node13</title>
<g id="a_node13"><a xlink:href="_i_graphics_8cpp_source.html" target="_top" xlink:title="IGraphics.cpp">
<polygon fill="white" stroke="black" points="519.5,-168.5 519.5,-187.5 596.5,-187.5 596.5,-168.5 519.5,-168.5"/>
<text text-anchor="middle" x="558" y="-175.5" font-family="Helvetica,sans-Serif" font-size="10.00">IGraphics.cpp</text>
</a>
</g>
</g>
<!-- Node5&#45;&gt;Node13 -->
<g id="edge13" class="edge"><title>Node5&#45;&gt;Node13</title>
<path fill="none" stroke="midnightblue" d="M575.325,-214.983C570.912,-205.817 565.748,-195.092 562.213,-187.751"/>
<polygon fill="midnightblue" stroke="midnightblue" points="572.215,-216.591 579.707,-224.083 578.522,-213.555 572.215,-216.591"/>
</g>
<!-- Node14 -->
<g id="node14" class="node"><title>Node14</title>
<g id="a_node14"><a xlink:href="_i_graphics_a_g_g_8h_source.html" target="_top" xlink:title="IGraphicsAGG.h">
<polygon fill="white" stroke="black" points="270.5,-168.5 270.5,-187.5 359.5,-187.5 359.5,-168.5 270.5,-168.5"/>
<text text-anchor="middle" x="315" y="-175.5" font-family="Helvetica,sans-Serif" font-size="10.00">IGraphicsAGG.h</text>
</a>
</g>
</g>
<!-- Node5&#45;&gt;Node14 -->
<g id="edge14" class="edge"><title>Node5&#45;&gt;Node14</title>
<path fill="none" stroke="midnightblue" d="M540.524,-224.272C490.055,-214.141 407.372,-197.543 357.377,-187.507"/>
<polygon fill="midnightblue" stroke="midnightblue" points="539.982,-227.733 550.475,-226.27 541.359,-220.87 539.982,-227.733"/>
</g>
<!-- Node16 -->
<g id="node16" class="node"><title>Node16</title>
<g id="a_node16"><a xlink:href="_i_graphics_cairo_8h_source.html" target="_top" xlink:title="IGraphicsCairo.h">
<polygon fill="white" stroke="black" points="615,-168.5 615,-187.5 705,-187.5 705,-168.5 615,-168.5"/>
<text text-anchor="middle" x="660" y="-175.5" font-family="Helvetica,sans-Serif" font-size="10.00">IGraphicsCairo.h</text>
</a>
</g>
</g>
<!-- Node5&#45;&gt;Node16 -->
<g id="edge16" class="edge"><title>Node5&#45;&gt;Node16</title>
<path fill="none" stroke="midnightblue" d="M604.576,-218.38C618.312,-208.62 635.925,-196.106 647.567,-187.834"/>
<polygon fill="midnightblue" stroke="midnightblue" points="602.335,-215.679 596.211,-224.324 606.39,-221.385 602.335,-215.679"/>
</g>
<!-- Node17 -->
<g id="node17" class="node"><title>Node17</title>
<g id="a_node17"><a xlink:href="_i_graphics_lice_8h_source.html" target="_top" xlink:title="IGraphicsLice.h">
<polygon fill="white" stroke="black" points="416.5,-168.5 416.5,-187.5 501.5,-187.5 501.5,-168.5 416.5,-168.5"/>
<text text-anchor="middle" x="459" y="-175.5" font-family="Helvetica,sans-Serif" font-size="10.00">IGraphicsLice.h</text>
</a>
</g>
</g>
<!-- Node5&#45;&gt;Node17 -->
<g id="edge18" class="edge"><title>Node5&#45;&gt;Node17</title>
<path fill="none" stroke="midnightblue" d="M554.759,-220.368C531.35,-210.255 499.159,-196.349 478.714,-187.516"/>
<polygon fill="midnightblue" stroke="midnightblue" points="553.625,-223.691 564.193,-224.444 556.401,-217.265 553.625,-223.691"/>
</g>
<!-- Node24 -->
<g id="node24" class="node"><title>Node24</title>
<g id="a_node24"><a xlink:href="_i_graphics_nano_v_g_8h_source.html" target="_top" xlink:title="IGraphicsNanoVG.h">
<polygon fill="white" stroke="black" points="110,-168.5 110,-187.5 214,-187.5 214,-168.5 110,-168.5"/>
<text text-anchor="middle" x="162" y="-175.5" font-family="Helvetica,sans-Serif" font-size="10.00">IGraphicsNanoVG.h</text>
</a>
</g>
</g>
<!-- Node5&#45;&gt;Node24 -->
<g id="edge27" class="edge"><title>Node5&#45;&gt;Node24</title>
<path fill="none" stroke="midnightblue" d="M540.153,-227.389C461.772,-217.359 297.995,-196.402 214.05,-185.66"/>
<polygon fill="midnightblue" stroke="midnightblue" points="539.816,-230.875 550.179,-228.672 540.704,-223.931 539.816,-230.875"/>
</g>
<!-- Node6&#45;&gt;Node5 -->
<g id="edge7" class="edge"><title>Node6&#45;&gt;Node5</title>
<path fill="none" stroke="midnightblue" d="M753.592,-190.219C714.817,-200.792 654.965,-216.34 617.627,-225.492"/>
<polygon fill="midnightblue" stroke="midnightblue" points="754.734,-193.535 763.45,-187.512 752.881,-186.785 754.734,-193.535"/>
</g>
<!-- Node6&#45;&gt;Node7 -->
<g id="edge6" class="edge"><title>Node6&#45;&gt;Node7</title>
<path fill="none" stroke="midnightblue" d="M819.539,-164.368C842.386,-154.255 873.805,-140.349 893.759,-131.516"/>
<polygon fill="midnightblue" stroke="midnightblue" points="818.059,-161.196 810.331,-168.444 820.892,-167.597 818.059,-161.196"/>
</g>
<!-- Node8 -->
<g id="node8" class="node"><title>Node8</title>
<g id="a_node8"><a xlink:href="_i_controls_8h_source.html" target="_top" xlink:title="IControls.h">
<polygon fill="white" stroke="black" points="794.5,-112.5 794.5,-131.5 859.5,-131.5 859.5,-112.5 794.5,-112.5"/>
<text text-anchor="middle" x="827" y="-119.5" font-family="Helvetica,sans-Serif" font-size="10.00">IControls.h</text>
</a>
</g>
</g>
<!-- Node6&#45;&gt;Node8 -->
<g id="edge8" class="edge"><title>Node6&#45;&gt;Node8</title>
<path fill="none" stroke="midnightblue" d="M802.623,-159.566C808.817,-150.275 816.168,-139.248 821.166,-131.751"/>
<polygon fill="midnightblue" stroke="midnightblue" points="799.58,-157.821 796.945,-168.083 805.404,-161.704 799.58,-157.821"/>
</g>
<!-- Node6&#45;&gt;Node10 -->
<g id="edge10" class="edge"><title>Node6&#45;&gt;Node10</title>
<path fill="none" stroke="midnightblue" d="M765.172,-163.59C745.943,-153.605 720.255,-140.267 703.668,-131.655"/>
<polygon fill="midnightblue" stroke="midnightblue" points="763.803,-166.822 774.291,-168.324 767.029,-160.61 763.803,-166.822"/>
</g>
<!-- Node6&#45;&gt;Node11 -->
<g id="edge11" class="edge"><title>Node6&#45;&gt;Node11</title>
<path fill="none" stroke="midnightblue" d="M780.846,-159.571C772.433,-145.879 759.678,-126.73 746,-112 709.74,-72.9497 658.005,-35.9475 634.07,-19.6749"/>
<polygon fill="midnightblue" stroke="midnightblue" points="778.013,-161.654 786.154,-168.435 784.019,-158.057 778.013,-161.654"/>
</g>
<!-- Node6&#45;&gt;Node12 -->
<g id="edge12" class="edge"><title>Node6&#45;&gt;Node12</title>
<path fill="none" stroke="midnightblue" d="M830.565,-167.908C874.703,-157.766 945.564,-141.483 988.743,-131.561"/>
<polygon fill="midnightblue" stroke="midnightblue" points="829.725,-164.51 820.763,-170.161 831.293,-171.332 829.725,-164.51"/>
</g>
<!-- Node9 -->
<g id="node9" class="node"><title>Node9</title>
<g id="a_node9"><a xlink:href="_i_controls_8cpp_source.html" target="_top" xlink:title="IControls.cpp">
<polygon fill="white" stroke="black" points="845.5,-56.5 845.5,-75.5 920.5,-75.5 920.5,-56.5 845.5,-56.5"/>
<text text-anchor="middle" x="883" y="-63.5" font-family="Helvetica,sans-Serif" font-size="10.00">IControls.cpp</text>
</a>
</g>
</g>
<!-- Node8&#45;&gt;Node9 -->
<g id="edge9" class="edge"><title>Node8&#45;&gt;Node9</title>
<path fill="none" stroke="midnightblue" d="M843.33,-105.253C853.265,-95.6731 865.588,-83.7906 873.839,-75.8339"/>
<polygon fill="midnightblue" stroke="midnightblue" points="840.766,-102.863 835.997,-112.324 845.625,-107.902 840.766,-102.863"/>
</g>
<!-- Node14&#45;&gt;Node15 -->
<g id="edge15" class="edge"><title>Node14&#45;&gt;Node15</title>
<path fill="none" stroke="midnightblue" d="M296.446,-161.82C284.622,-152.145 269.714,-139.948 259.797,-131.834"/>
<polygon fill="midnightblue" stroke="midnightblue" points="294.44,-164.7 304.396,-168.324 298.873,-159.283 294.44,-164.7"/>
</g>
<!-- Node16&#45;&gt;Node10 -->
<g id="edge17" class="edge"><title>Node16&#45;&gt;Node10</title>
<path fill="none" stroke="midnightblue" d="M669.009,-158.983C673.592,-149.817 678.954,-139.092 682.624,-131.751"/>
<polygon fill="midnightblue" stroke="midnightblue" points="665.8,-157.573 664.459,-168.083 672.061,-160.704 665.8,-157.573"/>
</g>
<!-- Node17&#45;&gt;Node18 -->
<g id="edge19" class="edge"><title>Node17&#45;&gt;Node18</title>
<path fill="none" stroke="midnightblue" d="M434.682,-163.177C417.201,-153.241 394.17,-140.149 379.226,-131.655"/>
<polygon fill="midnightblue" stroke="midnightblue" points="433.313,-166.425 443.737,-168.324 436.773,-160.339 433.313,-166.425"/>
</g>
<!-- Node19 -->
<g id="node19" class="node"><title>Node19</title>
<g id="a_node19"><a xlink:href="_i_graphics_mac_8h_source.html" target="_top" xlink:title="IGraphicsMac.h">
<polygon fill="white" stroke="black" points="532,-112.5 532,-131.5 618,-131.5 618,-112.5 532,-112.5"/>
<text text-anchor="middle" x="575" y="-119.5" font-family="Helvetica,sans-Serif" font-size="10.00">IGraphicsMac.h</text>
</a>
</g>
</g>
<!-- Node17&#45;&gt;Node19 -->
<g id="edge20" class="edge"><title>Node17&#45;&gt;Node19</title>
<path fill="none" stroke="midnightblue" d="M486.72,-164.096C508.392,-154.007 537.902,-140.27 556.705,-131.516"/>
<polygon fill="midnightblue" stroke="midnightblue" points="484.969,-161.05 477.381,-168.444 487.923,-167.396 484.969,-161.05"/>
</g>
<!-- Node22 -->
<g id="node22" class="node"><title>Node22</title>
<g id="a_node22"><a xlink:href="_i_graphics_win_8h_source.html" target="_top" xlink:title="IGraphicsWin.h">
<polygon fill="white" stroke="black" points="430,-112.5 430,-131.5 514,-131.5 514,-112.5 430,-112.5"/>
<text text-anchor="middle" x="472" y="-119.5" font-family="Helvetica,sans-Serif" font-size="10.00">IGraphicsWin.h</text>
</a>
</g>
</g>
<!-- Node17&#45;&gt;Node22 -->
<g id="edge25" class="edge"><title>Node17&#45;&gt;Node22</title>
<path fill="none" stroke="midnightblue" d="M463.55,-158.101C465.708,-149.136 468.182,-138.858 469.893,-131.751"/>
<polygon fill="midnightblue" stroke="midnightblue" points="460.085,-157.542 461.147,-168.083 466.89,-159.18 460.085,-157.542"/>
</g>
<!-- Node19&#45;&gt;Node11 -->
<g id="edge21" class="edge"><title>Node19&#45;&gt;Node11</title>
<path fill="none" stroke="midnightblue" d="M582.528,-102.998C592.565,-78.9968 609.931,-37.4683 617.407,-19.5914"/>
<polygon fill="midnightblue" stroke="midnightblue" points="579.239,-101.792 578.61,-112.368 585.697,-104.493 579.239,-101.792"/>
</g>
<!-- Node20 -->
<g id="node20" class="node"><title>Node20</title>
<g id="a_node20"><a xlink:href="_i_graphics_view_8h_source.html" target="_top" xlink:title="IGraphicsView.h">
<polygon fill="white" stroke="black" points="738.5,-56.5 738.5,-75.5 827.5,-75.5 827.5,-56.5 738.5,-56.5"/>
<text text-anchor="middle" x="783" y="-63.5" font-family="Helvetica,sans-Serif" font-size="10.00">IGraphicsView.h</text>
</a>
</g>
</g>
<!-- Node19&#45;&gt;Node20 -->
<g id="edge22" class="edge"><title>Node19&#45;&gt;Node20</title>
<path fill="none" stroke="midnightblue" d="M617.778,-109.894C657.058,-99.6966 714.429,-84.802 750.196,-75.5164"/>
<polygon fill="midnightblue" stroke="midnightblue" points="616.758,-106.543 607.958,-112.444 618.517,-113.318 616.758,-106.543"/>
</g>
<!-- Node20&#45;&gt;Node11 -->
<g id="edge23" class="edge"><title>Node20&#45;&gt;Node11</title>
<path fill="none" stroke="midnightblue" d="M747.516,-53.172C717.012,-43.0039 673.755,-28.5852 646.549,-19.5164"/>
<polygon fill="midnightblue" stroke="midnightblue" points="746.737,-56.6016 757.331,-56.4435 748.951,-49.9608 746.737,-56.6016"/>
</g>
<!-- Node21 -->
<g id="node21" class="node"><title>Node21</title>
<g id="a_node21"><a xlink:href="_i_graphics_view_8mm_source.html" target="_top" xlink:title="IGraphicsView.mm">
<polygon fill="white" stroke="black" points="733,-0.5 733,-19.5 833,-19.5 833,-0.5 733,-0.5"/>
<text text-anchor="middle" x="783" y="-7.5" font-family="Helvetica,sans-Serif" font-size="10.00">IGraphicsView.mm</text>
</a>
</g>
</g>
<!-- Node20&#45;&gt;Node21 -->
<g id="edge24" class="edge"><title>Node20&#45;&gt;Node21</title>
<path fill="none" stroke="midnightblue" d="M783,-45.8045C783,-36.9102 783,-26.7798 783,-19.7511"/>
<polygon fill="midnightblue" stroke="midnightblue" points="779.5,-46.083 783,-56.083 786.5,-46.083 779.5,-46.083"/>
</g>
<!-- Node22&#45;&gt;Node23 -->
<g id="edge26" class="edge"><title>Node22&#45;&gt;Node23</title>
<path fill="none" stroke="midnightblue" d="M430.562,-109.699C393.193,-99.507 339.057,-84.7429 305.227,-75.5164"/>
<polygon fill="midnightblue" stroke="midnightblue" points="430.058,-113.189 440.626,-112.444 431.9,-106.436 430.058,-113.189"/>
</g>
<!-- Node24&#45;&gt;Node25 -->
<g id="edge28" class="edge"><title>Node24&#45;&gt;Node25</title>
<path fill="none" stroke="midnightblue" d="M149.935,-159.855C143.355,-150.505 135.489,-139.327 130.158,-131.751"/>
<polygon fill="midnightblue" stroke="midnightblue" points="147.108,-161.919 155.725,-168.083 152.832,-157.891 147.108,-161.919"/>
</g>
<!-- Node29 -->
<g id="node29" class="node"><title>Node29</title>
<g id="a_node29"><a xlink:href="_i_plug_base_graphics_8h_source.html" target="_top" xlink:title="IPlugBaseGraphics.h">
<polygon fill="white" stroke="black" points="1119.5,-224.5 1119.5,-243.5 1228.5,-243.5 1228.5,-224.5 1119.5,-224.5"/>
<text text-anchor="middle" x="1174" y="-231.5" font-family="Helvetica,sans-Serif" font-size="10.00">IPlugBaseGraphics.h</text>
</a>
</g>
</g>
<!-- Node28&#45;&gt;Node29 -->
<g id="edge40" class="edge"><title>Node28&#45;&gt;Node29</title>
<path fill="none" stroke="midnightblue" d="M1160.78,-270.69C1164.15,-261.589 1168.07,-251.014 1170.76,-243.751"/>
<polygon fill="midnightblue" stroke="midnightblue" points="1157.49,-269.49 1157.3,-280.083 1164.06,-271.921 1157.49,-269.49"/>
</g>
<!-- Node39 -->
<g id="node39" class="node"><title>Node39</title>
<g id="a_node39"><a xlink:href="_i_plug_base_8cpp_source.html" target="_top" xlink:title="IPlugBase.cpp">
<polygon fill="white" stroke="black" points="1247,-224.5 1247,-243.5 1327,-243.5 1327,-224.5 1247,-224.5"/>
<text text-anchor="middle" x="1287" y="-231.5" font-family="Helvetica,sans-Serif" font-size="10.00">IPlugBase.cpp</text>
</a>
</g>
</g>
<!-- Node28&#45;&gt;Node39 -->
<g id="edge54" class="edge"><title>Node28&#45;&gt;Node39</title>
<path fill="none" stroke="midnightblue" d="M1184.45,-276.638C1209.41,-266.504 1244.08,-252.427 1266.02,-243.516"/>
<polygon fill="midnightblue" stroke="midnightblue" points="1183.02,-273.439 1175.07,-280.444 1185.66,-279.924 1183.02,-273.439"/>
</g>
<!-- Node40 -->
<g id="node40" class="node"><title>Node40</title>
<g id="a_node40"><a xlink:href="_i_plug_w_a_m_8h_source.html" target="_top" xlink:title="IPlugWAM.h">
<polygon fill="white" stroke="black" points="1029,-224.5 1029,-243.5 1101,-243.5 1101,-224.5 1029,-224.5"/>
<text text-anchor="middle" x="1065" y="-231.5" font-family="Helvetica,sans-Serif" font-size="10.00">IPlugWAM.h</text>
</a>
</g>
</g>
<!-- Node28&#45;&gt;Node40 -->
<g id="edge55" class="edge"><title>Node28&#45;&gt;Node40</title>
<path fill="none" stroke="midnightblue" d="M1130.76,-274.901C1114.44,-264.999 1093.13,-252.071 1079.26,-243.655"/>
<polygon fill="midnightblue" stroke="midnightblue" points="1129.34,-278.129 1139.7,-280.324 1132.97,-272.144 1129.34,-278.129"/>
</g>
<!-- Node29&#45;&gt;Node6 -->
<g id="edge41" class="edge"><title>Node29&#45;&gt;Node6</title>
<path fill="none" stroke="midnightblue" d="M1109.19,-223.863C1025.26,-212.029 882.452,-191.894 820.797,-183.201"/>
<polygon fill="midnightblue" stroke="midnightblue" points="1108.73,-227.333 1119.13,-225.263 1109.71,-220.401 1108.73,-227.333"/>
</g>
<!-- Node29&#45;&gt;Node12 -->
<g id="edge42" class="edge"><title>Node29&#45;&gt;Node12</title>
<path fill="none" stroke="midnightblue" d="M1156.22,-217.409C1140.49,-203.862 1116.75,-183.961 1095,-168 1076.55,-154.46 1054.21,-140.267 1040.05,-131.526"/>
<polygon fill="midnightblue" stroke="midnightblue" points="1154.21,-220.306 1164.06,-224.217 1158.8,-215.019 1154.21,-220.306"/>
</g>
<!-- Node29&#45;&gt;Node27 -->
<g id="edge47" class="edge"><title>Node29&#45;&gt;Node27</title>
<path fill="none" stroke="midnightblue" d="M1139.89,-221.039C1110.91,-210.879 1070.04,-196.546 1044.29,-187.516"/>
<polygon fill="midnightblue" stroke="midnightblue" points="1139,-224.437 1149.6,-224.444 1141.32,-217.832 1139,-224.437"/>
</g>
<!-- Node30 -->
<g id="node30" class="node"><title>Node30</title>
<g id="a_node30"><a xlink:href="_i_plug_a_a_x_8h_source.html" target="_top" xlink:title="IPlugAAX.h">
<polygon fill="white" stroke="black" points="1223,-168.5 1223,-187.5 1291,-187.5 1291,-168.5 1223,-168.5"/>
<text text-anchor="middle" x="1257" y="-175.5" font-family="Helvetica,sans-Serif" font-size="10.00">IPlugAAX.h</text>
</a>
</g>
</g>
<!-- Node29&#45;&gt;Node30 -->
<g id="edge43" class="edge"><title>Node29&#45;&gt;Node30</title>
<path fill="none" stroke="midnightblue" d="M1196.1,-218.622C1211.26,-208.757 1230.88,-195.992 1243.7,-187.655"/>
<polygon fill="midnightblue" stroke="midnightblue" points="1193.81,-215.937 1187.34,-224.324 1197.63,-221.804 1193.81,-215.937"/>
</g>
<!-- Node32 -->
<g id="node32" class="node"><title>Node32</title>
<g id="a_node32"><a xlink:href="_i_plug_a_u_8h_source.html" target="_top" xlink:title="IPlugAU.h">
<polygon fill="white" stroke="black" points="1143,-168.5 1143,-187.5 1205,-187.5 1205,-168.5 1143,-168.5"/>
<text text-anchor="middle" x="1174" y="-175.5" font-family="Helvetica,sans-Serif" font-size="10.00">IPlugAU.h</text>
</a>
</g>
</g>
<!-- Node29&#45;&gt;Node32 -->
<g id="edge45" class="edge"><title>Node29&#45;&gt;Node32</title>
<path fill="none" stroke="midnightblue" d="M1174,-213.805C1174,-204.91 1174,-194.78 1174,-187.751"/>
<polygon fill="midnightblue" stroke="midnightblue" points="1170.5,-214.083 1174,-224.083 1177.5,-214.083 1170.5,-214.083"/>
</g>
<!-- Node33 -->
<g id="node33" class="node"><title>Node33</title>
<g id="a_node33"><a xlink:href="_i_plug_standalone_8h_source.html" target="_top" xlink:title="IPlugStandalone.h">
<polygon fill="white" stroke="black" points="1309,-168.5 1309,-187.5 1405,-187.5 1405,-168.5 1309,-168.5"/>
<text text-anchor="middle" x="1357" y="-175.5" font-family="Helvetica,sans-Serif" font-size="10.00">IPlugStandalone.h</text>
</a>
</g>
</g>
<!-- Node29&#45;&gt;Node33 -->
<g id="edge48" class="edge"><title>Node29&#45;&gt;Node33</title>
<path fill="none" stroke="midnightblue" d="M1212.74,-221.568C1247.26,-211.381 1297.01,-196.703 1328.14,-187.516"/>
<polygon fill="midnightblue" stroke="midnightblue" points="1211.6,-218.256 1203,-224.444 1213.58,-224.97 1211.6,-218.256"/>
</g>
<!-- Node35 -->
<g id="node35" class="node"><title>Node35</title>
<g id="a_node35"><a xlink:href="_i_plug_v_s_t_8h_source.html" target="_top" xlink:title="IPlugVST.h">
<polygon fill="white" stroke="black" points="1423.5,-168.5 1423.5,-187.5 1490.5,-187.5 1490.5,-168.5 1423.5,-168.5"/>
<text text-anchor="middle" x="1457" y="-175.5" font-family="Helvetica,sans-Serif" font-size="10.00">IPlugVST.h</text>
</a>
</g>
</g>
<!-- Node29&#45;&gt;Node35 -->
<g id="edge50" class="edge"><title>Node29&#45;&gt;Node35</title>
<path fill="none" stroke="midnightblue" d="M1230.99,-222.663C1279.65,-213.751 1351.5,-200.399 1414,-188 1416.99,-187.406 1420.1,-186.778 1423.21,-186.142"/>
<polygon fill="midnightblue" stroke="midnightblue" points="1230.17,-219.254 1220.96,-224.495 1231.43,-226.14 1230.17,-219.254"/>
</g>
<!-- Node37 -->
<g id="node37" class="node"><title>Node37</title>
<g id="a_node37"><a xlink:href="_i_plug_v_s_t3_8h_source.html" target="_top" xlink:title="IPlugVST3.h">
<polygon fill="white" stroke="black" points="1509,-168.5 1509,-187.5 1581,-187.5 1581,-168.5 1509,-168.5"/>
<text text-anchor="middle" x="1545" y="-175.5" font-family="Helvetica,sans-Serif" font-size="10.00">IPlugVST3.h</text>
</a>
</g>
</g>
<!-- Node29&#45;&gt;Node37 -->
<g id="edge52" class="edge"><title>Node29&#45;&gt;Node37</title>
<path fill="none" stroke="midnightblue" d="M1238.87,-223.889C1355.66,-207.8 1386.65,-206.723 1499,-188 1502.21,-187.465 1505.54,-186.877 1508.88,-186.267"/>
<polygon fill="midnightblue" stroke="midnightblue" points="1238.24,-220.443 1228.81,-225.282 1239.2,-227.377 1238.24,-220.443"/>
</g>
<!-- Node31 -->
<g id="node31" class="node"><title>Node31</title>
<g id="a_node31"><a xlink:href="_i_plug_a_a_x_8cpp_source.html" target="_top" xlink:title="IPlugAAX.cpp">
<polygon fill="white" stroke="black" points="1207,-112.5 1207,-131.5 1285,-131.5 1285,-112.5 1207,-112.5"/>
<text text-anchor="middle" x="1246" y="-119.5" font-family="Helvetica,sans-Serif" font-size="10.00">IPlugAAX.cpp</text>
</a>
</g>
</g>
<!-- Node30&#45;&gt;Node31 -->
<g id="edge44" class="edge"><title>Node30&#45;&gt;Node31</title>
<path fill="none" stroke="midnightblue" d="M1253.15,-158.101C1251.32,-149.136 1249.23,-138.858 1247.78,-131.751"/>
<polygon fill="midnightblue" stroke="midnightblue" points="1249.76,-158.983 1255.18,-168.083 1256.62,-157.586 1249.76,-158.983"/>
</g>
<!-- Node32&#45;&gt;Node26 -->
<g id="edge46" class="edge"><title>Node32&#45;&gt;Node26</title>
<path fill="none" stroke="midnightblue" d="M1164.99,-158.983C1160.41,-149.817 1155.05,-139.092 1151.38,-131.751"/>
<polygon fill="midnightblue" stroke="midnightblue" points="1161.94,-160.704 1169.54,-168.083 1168.2,-157.573 1161.94,-160.704"/>
</g>
<!-- Node34 -->
<g id="node34" class="node"><title>Node34</title>
<g id="a_node34"><a xlink:href="_i_plug_standalone_8cpp_source.html" target="_top" xlink:title="IPlugStandalone.cpp">
<polygon fill="white" stroke="black" points="1303.5,-112.5 1303.5,-131.5 1410.5,-131.5 1410.5,-112.5 1303.5,-112.5"/>
<text text-anchor="middle" x="1357" y="-119.5" font-family="Helvetica,sans-Serif" font-size="10.00">IPlugStandalone.cpp</text>
</a>
</g>
</g>
<!-- Node33&#45;&gt;Node34 -->
<g id="edge49" class="edge"><title>Node33&#45;&gt;Node34</title>
<path fill="none" stroke="midnightblue" d="M1357,-157.805C1357,-148.91 1357,-138.78 1357,-131.751"/>
<polygon fill="midnightblue" stroke="midnightblue" points="1353.5,-158.083 1357,-168.083 1360.5,-158.083 1353.5,-158.083"/>
</g>
<!-- Node36 -->
<g id="node36" class="node"><title>Node36</title>
<g id="a_node36"><a xlink:href="_i_plug_v_s_t_8cpp_source.html" target="_top" xlink:title="IPlugVST.cpp">
<polygon fill="white" stroke="black" points="1428.5,-112.5 1428.5,-131.5 1505.5,-131.5 1505.5,-112.5 1428.5,-112.5"/>
<text text-anchor="middle" x="1467" y="-119.5" font-family="Helvetica,sans-Serif" font-size="10.00">IPlugVST.cpp</text>
</a>
</g>
</g>
<!-- Node35&#45;&gt;Node36 -->
<g id="edge51" class="edge"><title>Node35&#45;&gt;Node36</title>
<path fill="none" stroke="midnightblue" d="M1460.5,-158.101C1462.16,-149.136 1464.06,-138.858 1465.38,-131.751"/>
<polygon fill="midnightblue" stroke="midnightblue" points="1457.03,-157.613 1458.65,-168.083 1463.91,-158.888 1457.03,-157.613"/>
</g>
<!-- Node38 -->
<g id="node38" class="node"><title>Node38</title>
<g id="a_node38"><a xlink:href="_i_plug_v_s_t3_8cpp_source.html" target="_top" xlink:title="IPlugVST3.cpp">
<polygon fill="white" stroke="black" points="1545.5,-112.5 1545.5,-131.5 1628.5,-131.5 1628.5,-112.5 1545.5,-112.5"/>
<text text-anchor="middle" x="1587" y="-119.5" font-family="Helvetica,sans-Serif" font-size="10.00">IPlugVST3.cpp</text>
</a>
</g>
</g>
<!-- Node37&#45;&gt;Node38 -->
<g id="edge53" class="edge"><title>Node37&#45;&gt;Node38</title>
<path fill="none" stroke="midnightblue" d="M1558.11,-160.144C1565.43,-150.736 1574.24,-139.405 1580.19,-131.751"/>
<polygon fill="midnightblue" stroke="midnightblue" points="1555.31,-158.041 1551.94,-168.083 1560.84,-162.338 1555.31,-158.041"/>
</g>
<!-- Node43&#45;&gt;Node28 -->
<g id="edge60" class="edge"><title>Node43&#45;&gt;Node28</title>
<path fill="none" stroke="midnightblue" d="M1370.82,-336.915C1321.69,-326.511 1237.01,-308.579 1189.32,-298.479"/>
<polygon fill="midnightblue" stroke="midnightblue" points="1370.23,-340.367 1380.74,-339.015 1371.68,-333.519 1370.23,-340.367"/>
</g>
<!-- Node43&#45;&gt;Node38 -->
<g id="edge61" class="edge"><title>Node43&#45;&gt;Node38</title>
<path fill="none" stroke="midnightblue" d="M1435.62,-331.656C1477.68,-308.87 1558.03,-258.041 1590,-188 1598.44,-169.501 1593.53,-144.881 1589.87,-131.894"/>
<polygon fill="midnightblue" stroke="midnightblue" points="1433.73,-328.696 1426.52,-336.466 1437,-334.883 1433.73,-328.696"/>
</g>
<!-- Node44 -->
<g id="node44" class="node"><title>Node44</title>
<g id="a_node44"><a xlink:href="_i_param_8cpp_source.html" target="_top" xlink:title="IParam.cpp">
<polygon fill="white" stroke="black" points="1637.5,-280.5 1637.5,-299.5 1704.5,-299.5 1704.5,-280.5 1637.5,-280.5"/>
<text text-anchor="middle" x="1671" y="-287.5" font-family="Helvetica,sans-Serif" font-size="10.00">IParam.cpp</text>
</a>
</g>
</g>
<!-- Node43&#45;&gt;Node44 -->
<g id="edge59" class="edge"><title>Node43&#45;&gt;Node44</title>
<path fill="none" stroke="midnightblue" d="M1447.04,-337.159C1498.26,-326.603 1588.59,-307.985 1637.42,-297.921"/>
<polygon fill="midnightblue" stroke="midnightblue" points="1446.13,-333.774 1437.04,-339.221 1447.54,-340.63 1446.13,-333.774"/>
</g>
<!-- Node45&#45;&gt;Node28 -->
<g id="edge66" class="edge"><title>Node45&#45;&gt;Node28</title>
<path fill="none" stroke="midnightblue" d="M1125.69,-382.753C1128.24,-374.573 1131.28,-364.804 1134,-356 1140.21,-335.923 1147.45,-312.341 1151.29,-299.834"/>
<polygon fill="midnightblue" stroke="midnightblue" points="1122.33,-381.787 1122.69,-392.376 1129.01,-383.87 1122.33,-381.787"/>
</g>
<!-- Node46 -->
<g id="node46" class="node"><title>Node46</title>
<g id="a_node46"><a xlink:href="_i_plug_structs_8h_source.html" target="_top" xlink:title="IPlugStructs.h">
<polygon fill="white" stroke="black" points="1046.5,-336.5 1046.5,-355.5 1125.5,-355.5 1125.5,-336.5 1046.5,-336.5"/>
<text text-anchor="middle" x="1086" y="-343.5" font-family="Helvetica,sans-Serif" font-size="10.00">IPlugStructs.h</text>
</a>
</g>
</g>
<!-- Node45&#45;&gt;Node46 -->
<g id="edge63" class="edge"><title>Node45&#45;&gt;Node46</title>
<path fill="none" stroke="midnightblue" d="M1109.02,-383.566C1103.17,-374.275 1096.23,-363.248 1091.51,-355.751"/>
<polygon fill="midnightblue" stroke="midnightblue" points="1106.1,-385.486 1114.39,-392.083 1112.02,-381.756 1106.1,-385.486"/>
</g>
<!-- Node46&#45;&gt;Node28 -->
<g id="edge64" class="edge"><title>Node46&#45;&gt;Node28</title>
<path fill="none" stroke="midnightblue" d="M1104.76,-330.101C1117,-320.382 1132.56,-308.027 1142.88,-299.834"/>
<polygon fill="midnightblue" stroke="midnightblue" points="1102.58,-327.364 1096.93,-336.324 1106.93,-332.846 1102.58,-327.364"/>
</g>
<!-- Node46&#45;&gt;Node41 -->
<g id="edge65" class="edge"><title>Node46&#45;&gt;Node41</title>
<path fill="none" stroke="midnightblue" d="M1070.97,-328.431C1062.38,-318.967 1051.96,-307.483 1044.94,-299.751"/>
<polygon fill="midnightblue" stroke="midnightblue" points="1068.6,-331.029 1077.91,-336.083 1073.78,-326.325 1068.6,-331.029"/>
</g>
</g>
</svg>
        <g id="navigator" transform="translate(0 0)" fill="#404254">
                <rect fill="#f2f5e9" fill-opacity="0.5" stroke="#606060" stroke-width=".5" x="0" y="0" width="60" height="60"/>
                <use id="zoomplus" xlink:href="#zoomPlus" x="17" y="9" onmousedown="handleZoom(evt,'in')"/>
                <use id="zoomminus" xlink:href="#zoomMin" x="42" y="9" onmousedown="handleZoom(evt,'out')"/>
                <use id="reset" xlink:href="#resetDef" x="30" y="36" onmousedown="handleReset()"/>
                <g id="arrowUp" xlink:href="#dirArrow" transform="translate(30 24)" onmousedown="handlePan(0,-1)">
                  <use xlink:href="#rim" fill="#404040">
                        <set attributeName="fill" to="#808080" begin="arrowUp.mouseover" end="arrowUp.mouseout"/>
                  </use>
                  <path fill="none" stroke="white" stroke-width="1.5" d="M0,-3.0v7 M-2.5,-0.5L0,-3.0L2.5,-0.5"/>
                </g>
                <g id="arrowRight" xlink:href="#dirArrow" transform="rotate(90) translate(36 -43)" onmousedown="handlePan(1,0)">
                  <use xlink:href="#rim" fill="#404040">
                        <set attributeName="fill" to="#808080" begin="arrowRight.mouseover" end="arrowRight.mouseout"/>
                  </use>
                  <path fill="none" stroke="white" stroke-width="1.5" d="M0,-3.0v7 M-2.5,-0.5L0,-3.0L2.5,-0.5"/>
                </g>
                <g id="arrowDown" xlink:href="#dirArrow" transform="rotate(180) translate(-30 -48)" onmousedown="handlePan(0,1)">
                  <use xlink:href="#rim" fill="#404040">
                        <set attributeName="fill" to="#808080" begin="arrowDown.mouseover" end="arrowDown.mouseout"/>
                  </use>
                  <path fill="none" stroke="white" stroke-width="1.5" d="M0,-3.0v7 M-2.5,-0.5L0,-3.0L2.5,-0.5"/>
                </g>
                <g id="arrowLeft" xlink:href="#dirArrow" transform="rotate(270) translate(-36 17)" onmousedown="handlePan(-1,0)">
                  <use xlink:href="#rim" fill="#404040">
                        <set attributeName="fill" to="#808080" begin="arrowLeft.mouseover" end="arrowLeft.mouseout"/>
                  </use>
                  <path fill="none" stroke="white" stroke-width="1.5" d="M0,-3.0v7 M-2.5,-0.5L0,-3.0L2.5,-0.5"/>
                </g>
        </g>
        <svg viewBox="0 0 15 15" width="100%" height="30px" preserveAspectRatio="xMaxYMin meet">
         <g id="arrow_out" transform="scale(0.3 0.3)">
          <a xlink:href="_i_plug_utilities_8h__dep__incl_org.svg" target="_base">
           <rect id="button" ry="5" rx="5" y="6" x="6" height="38" width="38"
                fill="#f2f5e9" fill-opacity="0.5" stroke="#606060" stroke-width="1.0"/>
           <path id="arrow"
             d="M 11.500037,31.436501 C 11.940474,20.09759 22.043105,11.32322 32.158766,21.979434 L 37.068811,17.246167 C 37.068811,17.246167 37.088388,32 37.088388,32 L 22.160133,31.978069 C 22.160133,31.978069 26.997745,27.140456 26.997745,27.140456 C 18.528582,18.264221 13.291696,25.230495 11.500037,31.436501 z"
             style="fill:#404040;"/>
          </a>
         </g>
        </svg>
</svg>
