<?xml version="1.0" encoding="UTF-8" standalone="no"?>
<!DOCTYPE svg PUBLIC "-//W3C//DTD SVG 1.1//EN"
 "http://www.w3.org/Graphics/SVG/1.1/DTD/svg11.dtd">
<!-- Generated by graphviz version 2.36.0 (20140111.2315)
 -->
<!-- Title: IPlugBase.h Pages: 1 -->
<!--zoomable 308 -->
<svg id="main" version="1.1" xmlns="http://www.w3.org/2000/svg" xmlns:xlink="http://www.w3.org/1999/xlink" xml:space="preserve" onload="init(evt)">
<style type="text/css"><![CDATA[
.edge:hover path { stroke: red; }
.edge:hover polygon { stroke: red; fill: red; }
]]></style>
<script type="text/javascript"><![CDATA[
var edges = document.getElementsByTagName('g');
if (edges && edges.length) {
  for (var i=0;i<edges.length;i++) {
    if (edges[i].id.substr(0,4)=='edge') {
      edges[i].setAttribute('class','edge');
    }
  }
}
]]></script>
        <defs>
                <circle id="rim" cx="0" cy="0" r="7"/>
                <circle id="rim2" cx="0" cy="0" r="3.5"/>
                <g id="zoomPlus">
                        <use xlink:href="#rim" fill="#404040">
                                <set attributeName="fill" to="#808080" begin="zoomplus.mouseover" end="zoomplus.mouseout"/>
                        </use>
                        <path d="M-4,0h8M0,-4v8" fill="none" stroke="white" stroke-width="1.5" pointer-events="none"/>
                </g>
                <g id="zoomMin">
                        <use xlink:href="#rim" fill="#404040">
                                <set attributeName="fill" to="#808080" begin="zoomminus.mouseover" end="zoomminus.mouseout"/>
                        </use>
                        <path d="M-4,0h8" fill="none" stroke="white" stroke-width="1.5" pointer-events="none"/>
                </g>
                <g id="dirArrow">
                        <path fill="none" stroke="white" stroke-width="1.5" d="M0,-3.0v7 M-2.5,-0.5L0,-3.0L2.5,-0.5"/>
                </g>
               <g id="resetDef">
                       <use xlink:href="#rim2" fill="#404040">
                               <set attributeName="fill" to="#808080" begin="reset.mouseover" end="reset.mouseout"/>
                       </use>
               </g>
        </defs>

<script type="text/javascript">
var viewWidth = 711;
var viewHeight = 308;
var sectionId = 'dynsection-0';
</script>
<script xlink:href="svgpan.js"/>
<svg id="graph" class="graph">
<g id="viewport">
<title>IPlugBase.h</title>
<polygon fill="white" stroke="none" points="-4,4 -4,-304 707.388,-304 707.388,4 -4,4"/>
<!-- Node1 -->
<g id="node1" class="node"><title>Node1</title>
<polygon fill="#bfbfbf" stroke="black" points="264.755,-280.5 264.755,-299.5 334.755,-299.5 334.755,-280.5 264.755,-280.5"/>
<text text-anchor="middle" x="299.755" y="-287.5" font-family="Helvetica,sans-Serif" font-size="10.00">IPlugBase.h</text>
</g>
<!-- Node2 -->
<g id="node2" class="node"><title>Node2</title>
<polygon fill="white" stroke="#bfbfbf" points="405.755,-168.5 405.755,-187.5 451.755,-187.5 451.755,-168.5 405.755,-168.5"/>
<text text-anchor="middle" x="428.755" y="-175.5" font-family="Helvetica,sans-Serif" font-size="10.00">cstring</text>
</g>
<!-- Node1&#45;&gt;Node2 -->
<g id="edge1" class="edge"><title>Node1&#45;&gt;Node2</title>
<path fill="none" stroke="midnightblue" d="M319.651,-280.399C336.525,-272.496 360.78,-259.652 378.755,-244 394.632,-230.174 408.85,-210.633 418.028,-196.592"/>
<polygon fill="midnightblue" stroke="midnightblue" points="421.146,-198.21 423.535,-187.888 415.23,-194.467 421.146,-198.21"/>
</g>
<!-- Node3 -->
<g id="node3" class="node"><title>Node3</title>
<polygon fill="white" stroke="#bfbfbf" points="42.2547,-224.5 42.2547,-243.5 91.2547,-243.5 91.2547,-224.5 42.2547,-224.5"/>
<text text-anchor="middle" x="66.7547" y="-231.5" font-family="Helvetica,sans-Serif" font-size="10.00">ptrlist.h</text>
</g>
<!-- Node1&#45;&gt;Node3 -->
<g id="edge2" class="edge"><title>Node1&#45;&gt;Node3</title>
<path fill="none" stroke="midnightblue" d="M264.436,-281.42C226.605,-273.211 164.567,-259.493 101.703,-244.164"/>
<polygon fill="midnightblue" stroke="midnightblue" points="102.156,-240.672 91.6105,-241.691 100.49,-247.471 102.156,-240.672"/>
</g>
<!-- Node4 -->
<g id="node4" class="node"><title>Node4</title>
<polygon fill="white" stroke="#bfbfbf" points="109.755,-224.5 109.755,-243.5 161.755,-243.5 161.755,-224.5 109.755,-224.5"/>
<text text-anchor="middle" x="135.755" y="-231.5" font-family="Helvetica,sans-Serif" font-size="10.00">mutex.h</text>
</g>
<!-- Node1&#45;&gt;Node4 -->
<g id="edge3" class="edge"><title>Node1&#45;&gt;Node4</title>
<path fill="none" stroke="midnightblue" d="M273.768,-280.444C246.059,-271.32 202.002,-256.813 171.139,-246.651"/>
<polygon fill="midnightblue" stroke="midnightblue" points="172.212,-243.32 161.619,-243.516 170.023,-249.968 172.212,-243.32"/>
</g>
<!-- Node5 -->
<g id="node5" class="node"><title>Node5</title>
<g id="a_node5"><a xlink:href="_i_plug_constants_8h.html" target="_top" xlink:title="Constant definitions, magic numbers. ">
<polygon fill="white" stroke="black" points="50.7547,-56.5 50.7547,-75.5 142.755,-75.5 142.755,-56.5 50.7547,-56.5"/>
<text text-anchor="middle" x="96.7547" y="-63.5" font-family="Helvetica,sans-Serif" font-size="10.00">IPlugConstants.h</text>
</a>
</g>
</g>
<!-- Node1&#45;&gt;Node5 -->
<g id="edge4" class="edge"><title>Node1&#45;&gt;Node5</title>
<path fill="none" stroke="midnightblue" d="M264.522,-287.403C200.238,-283.803 67.3465,-272.981 32.7547,-244 -12.2616,-206.285 -7.47383,-159.721 26.7547,-112 36.6067,-98.2645 52.0748,-87.6847 65.9676,-80.245"/>
<polygon fill="midnightblue" stroke="midnightblue" points="67.8733,-83.205 75.2457,-75.5959 64.7373,-76.9467 67.8733,-83.205"/>
</g>
<!-- Node7 -->
<g id="node7" class="node"><title>Node7</title>
<g id="a_node7"><a xlink:href="_i_plug_structs_8h_source.html" target="_top" xlink:title="IPlugStructs.h">
<polygon fill="white" stroke="black" points="218.255,-224.5 218.255,-243.5 297.255,-243.5 297.255,-224.5 218.255,-224.5"/>
<text text-anchor="middle" x="257.755" y="-231.5" font-family="Helvetica,sans-Serif" font-size="10.00">IPlugStructs.h</text>
</a>
</g>
</g>
<!-- Node1&#45;&gt;Node7 -->
<g id="edge6" class="edge"><title>Node1&#45;&gt;Node7</title>
<path fill="none" stroke="midnightblue" d="M292.819,-280.083C286.826,-272.377 278.003,-261.033 270.707,-251.653"/>
<polygon fill="midnightblue" stroke="midnightblue" points="273.463,-249.496 264.561,-243.751 267.938,-253.793 273.463,-249.496"/>
</g>
<!-- Node10 -->
<g id="node10" class="node"><title>Node10</title>
<g id="a_node10"><a xlink:href="_i_plug_byte_chunk_8h_source.html" target="_top" xlink:title="IPlugByteChunk.h">
<polygon fill="white" stroke="black" points="21.7547,-168.5 21.7547,-187.5 117.755,-187.5 117.755,-168.5 21.7547,-168.5"/>
<text text-anchor="middle" x="69.7547" y="-175.5" font-family="Helvetica,sans-Serif" font-size="10.00">IPlugByteChunk.h</text>
</a>
</g>
</g>
<!-- Node1&#45;&gt;Node10 -->
<g id="edge18" class="edge"><title>Node1&#45;&gt;Node10</title>
<path fill="none" stroke="midnightblue" d="M281.903,-280.337C263.506,-271.371 234.03,-256.898 208.755,-244 191.755,-235.325 187.925,-232.333 170.755,-224 147.008,-212.476 119.634,-200.349 99.3786,-191.592"/>
<polygon fill="midnightblue" stroke="midnightblue" points="100.624,-188.318 90.0544,-187.581 97.8574,-194.748 100.624,-188.318"/>
</g>
<!-- Node16 -->
<g id="node16" class="node"><title>Node16</title>
<g id="a_node16"><a xlink:href="_i_param_8h_source.html" target="_top" xlink:title="IParam.h">
<polygon fill="white" stroke="black" points="314.755,-224.5 314.755,-243.5 370.755,-243.5 370.755,-224.5 314.755,-224.5"/>
<text text-anchor="middle" x="342.755" y="-231.5" font-family="Helvetica,sans-Serif" font-size="10.00">IParam.h</text>
</a>
</g>
</g>
<!-- Node1&#45;&gt;Node16 -->
<g id="edge19" class="edge"><title>Node1&#45;&gt;Node16</title>
<path fill="none" stroke="midnightblue" d="M306.855,-280.083C312.992,-272.377 322.024,-261.033 329.494,-251.653"/>
<polygon fill="midnightblue" stroke="midnightblue" points="332.295,-253.754 335.786,-243.751 326.819,-249.394 332.295,-253.754"/>
</g>
<!-- Node17 -->
<g id="node17" class="node"><title>Node17</title>
<g id="a_node17"><a xlink:href="_hosts_8h.html" target="_top" xlink:title="API and host definitions. ">
<polygon fill="white" stroke="black" points="427.255,-224.5 427.255,-243.5 478.255,-243.5 478.255,-224.5 427.255,-224.5"/>
<text text-anchor="middle" x="452.755" y="-231.5" font-family="Helvetica,sans-Serif" font-size="10.00">Hosts.h</text>
</a>
</g>
</g>
<!-- Node1&#45;&gt;Node17 -->
<g id="edge23" class="edge"><title>Node1&#45;&gt;Node17</title>
<path fill="none" stroke="midnightblue" d="M323.998,-280.444C349.625,-271.399 390.24,-257.064 418.993,-246.916"/>
<polygon fill="midnightblue" stroke="midnightblue" points="420.36,-250.145 428.625,-243.516 418.03,-243.544 420.36,-250.145"/>
</g>
<!-- Node19 -->
<g id="node19" class="node"><title>Node19</title>
<g id="a_node19"><a xlink:href="_log_8h_source.html" target="_top" xlink:title="Log.h">
<polygon fill="white" stroke="black" points="509.255,-224.5 509.255,-243.5 550.255,-243.5 550.255,-224.5 509.255,-224.5"/>
<text text-anchor="middle" x="529.755" y="-231.5" font-family="Helvetica,sans-Serif" font-size="10.00">Log.h</text>
</a>
</g>
</g>
<!-- Node1&#45;&gt;Node19 -->
<g id="edge26" class="edge"><title>Node1&#45;&gt;Node19</title>
<path fill="none" stroke="midnightblue" d="M334.937,-280.74C379.811,-270.204 456.68,-252.157 499.209,-242.172"/>
<polygon fill="midnightblue" stroke="midnightblue" points="500.056,-245.568 508.991,-239.875 498.456,-238.753 500.056,-245.568"/>
</g>
<!-- Node22 -->
<g id="node22" class="node"><title>Node22</title>
<g id="a_node22"><a xlink:href="_n_chan_delay_8h_source.html" target="_top" xlink:title="NChanDelay.h">
<polygon fill="white" stroke="black" points="568.255,-224.5 568.255,-243.5 649.255,-243.5 649.255,-224.5 568.255,-224.5"/>
<text text-anchor="middle" x="608.755" y="-231.5" font-family="Helvetica,sans-Serif" font-size="10.00">NChanDelay.h</text>
</a>
</g>
</g>
<!-- Node1&#45;&gt;Node22 -->
<g id="edge33" class="edge"><title>Node1&#45;&gt;Node22</title>
<path fill="none" stroke="midnightblue" d="M334.956,-282.954C382.942,-274.696 471.846,-259.343 558.137,-244.101"/>
<polygon fill="midnightblue" stroke="midnightblue" points="558.861,-247.527 568.099,-242.339 557.643,-240.634 558.861,-247.527"/>
</g>
<!-- Node6 -->
<g id="node6" class="node"><title>Node6</title>
<polygon fill="white" stroke="#bfbfbf" points="72.2547,-0.5 72.2547,-19.5 121.255,-19.5 121.255,-0.5 72.2547,-0.5"/>
<text text-anchor="middle" x="96.7547" y="-7.5" font-family="Helvetica,sans-Serif" font-size="10.00">stdint.h</text>
</g>
<!-- Node5&#45;&gt;Node6 -->
<g id="edge5" class="edge"><title>Node5&#45;&gt;Node6</title>
<path fill="none" stroke="midnightblue" d="M96.7547,-56.083C96.7547,-49.0059 96.7547,-38.8611 96.7547,-29.9865"/>
<polygon fill="midnightblue" stroke="midnightblue" points="100.255,-29.751 96.7547,-19.7511 93.2548,-29.7511 100.255,-29.751"/>
</g>
<!-- Node7&#45;&gt;Node5 -->
<g id="edge9" class="edge"><title>Node7&#45;&gt;Node5</title>
<path fill="none" stroke="midnightblue" d="M229.468,-224.405C209.519,-217.218 183.178,-205.326 164.755,-188 133.422,-158.532 112.723,-111.33 103.063,-85.4519"/>
<polygon fill="midnightblue" stroke="midnightblue" points="106.266,-84.0151 99.5995,-75.7805 99.6757,-86.3751 106.266,-84.0151"/>
</g>
<!-- Node8 -->
<g id="node8" class="node"><title>Node8</title>
<polygon fill="white" stroke="#bfbfbf" points="173.755,-168.5 173.755,-187.5 229.755,-187.5 229.755,-168.5 173.755,-168.5"/>
<text text-anchor="middle" x="201.755" y="-175.5" font-family="Helvetica,sans-Serif" font-size="10.00">algorithm</text>
</g>
<!-- Node7&#45;&gt;Node8 -->
<g id="edge7" class="edge"><title>Node7&#45;&gt;Node8</title>
<path fill="none" stroke="midnightblue" d="M248.757,-224.324C240.56,-216.42 228.249,-204.548 218.283,-194.938"/>
<polygon fill="midnightblue" stroke="midnightblue" points="220.544,-192.256 210.916,-187.834 215.685,-197.295 220.544,-192.256"/>
</g>
<!-- Node9 -->
<g id="node9" class="node"><title>Node9</title>
<polygon fill="white" stroke="#bfbfbf" points="323.755,-168.5 323.755,-187.5 387.755,-187.5 387.755,-168.5 323.755,-168.5"/>
<text text-anchor="middle" x="355.755" y="-175.5" font-family="Helvetica,sans-Serif" font-size="10.00">wdlstring.h</text>
</g>
<!-- Node7&#45;&gt;Node9 -->
<g id="edge8" class="edge"><title>Node7&#45;&gt;Node9</title>
<path fill="none" stroke="midnightblue" d="M273.5,-224.324C289.073,-215.743 313.132,-202.486 331.214,-192.522"/>
<polygon fill="midnightblue" stroke="midnightblue" points="332.979,-195.546 340.048,-187.655 329.601,-189.415 332.979,-195.546"/>
</g>
<!-- Node7&#45;&gt;Node10 -->
<g id="edge10" class="edge"><title>Node7&#45;&gt;Node10</title>
<path fill="none" stroke="midnightblue" d="M227.966,-224.444C195.926,-215.241 144.821,-200.562 109.402,-190.388"/>
<polygon fill="midnightblue" stroke="midnightblue" points="109.982,-186.913 99.4045,-187.516 108.05,-193.641 109.982,-186.913"/>
</g>
<!-- Node14 -->
<g id="node14" class="node"><title>Node14</title>
<g id="a_node14"><a xlink:href="_i_plug_o_s_detect_8h_source.html" target="_top" xlink:title="IPlugOSDetect.h">
<polygon fill="white" stroke="black" points="285.255,-56.5 285.255,-75.5 376.255,-75.5 376.255,-56.5 285.255,-56.5"/>
<text text-anchor="middle" x="330.755" y="-63.5" font-family="Helvetica,sans-Serif" font-size="10.00">IPlugOSDetect.h</text>
</a>
</g>
</g>
<!-- Node7&#45;&gt;Node14 -->
<g id="edge17" class="edge"><title>Node7&#45;&gt;Node14</title>
<path fill="none" stroke="midnightblue" d="M261.68,-224.075C273.22,-197.832 307.208,-120.545 322.788,-85.1165"/>
<polygon fill="midnightblue" stroke="midnightblue" points="326.165,-86.131 326.987,-75.5681 319.757,-83.3131 326.165,-86.131"/>
</g>
<!-- Node11 -->
<g id="node11" class="node"><title>Node11</title>
<g id="a_node11"><a xlink:href="_i_plug_utilities_8h.html" target="_top" xlink:title="Utility functions and macros. ">
<polygon fill="white" stroke="black" points="173.755,-112.5 173.755,-131.5 253.755,-131.5 253.755,-112.5 173.755,-112.5"/>
<text text-anchor="middle" x="213.755" y="-119.5" font-family="Helvetica,sans-Serif" font-size="10.00">IPlugUtilities.h</text>
</a>
</g>
</g>
<!-- Node10&#45;&gt;Node11 -->
<g id="edge11" class="edge"><title>Node10&#45;&gt;Node11</title>
<path fill="none" stroke="midnightblue" d="M92.572,-168.444C116.586,-159.438 154.584,-145.189 181.624,-135.049"/>
<polygon fill="midnightblue" stroke="midnightblue" points="182.91,-138.305 191.044,-131.516 180.452,-131.751 182.91,-138.305"/>
</g>
<!-- Node15 -->
<g id="node15" class="node"><title>Node15</title>
<polygon fill="white" stroke="#bfbfbf" points="35.7547,-112.5 35.7547,-131.5 103.755,-131.5 103.755,-112.5 35.7547,-112.5"/>
<text text-anchor="middle" x="69.7547" y="-119.5" font-family="Helvetica,sans-Serif" font-size="10.00">wdlendian.h</text>
</g>
<!-- Node10&#45;&gt;Node15 -->
<g id="edge16" class="edge"><title>Node10&#45;&gt;Node15</title>
<path fill="none" stroke="midnightblue" d="M69.7547,-168.083C69.7547,-161.006 69.7547,-150.861 69.7547,-141.986"/>
<polygon fill="midnightblue" stroke="midnightblue" points="73.2548,-141.751 69.7547,-131.751 66.2548,-141.751 73.2548,-141.751"/>
</g>
<!-- Node11&#45;&gt;Node5 -->
<g id="edge14" class="edge"><title>Node11&#45;&gt;Node5</title>
<path fill="none" stroke="midnightblue" d="M195.216,-112.444C176.132,-103.636 146.18,-89.8116 124.319,-79.722"/>
<polygon fill="midnightblue" stroke="midnightblue" points="125.753,-76.5292 115.207,-75.5164 122.82,-82.8849 125.753,-76.5292"/>
</g>
<!-- Node12 -->
<g id="node12" class="node"><title>Node12</title>
<polygon fill="white" stroke="#bfbfbf" points="222.755,-56.5 222.755,-75.5 266.755,-75.5 266.755,-56.5 222.755,-56.5"/>
<text text-anchor="middle" x="244.755" y="-63.5" font-family="Helvetica,sans-Serif" font-size="10.00">cmath</text>
</g>
<!-- Node11&#45;&gt;Node12 -->
<g id="edge12" class="edge"><title>Node11&#45;&gt;Node12</title>
<path fill="none" stroke="midnightblue" d="M218.874,-112.083C223.162,-104.613 229.413,-93.7244 234.697,-84.5199"/>
<polygon fill="midnightblue" stroke="midnightblue" points="237.788,-86.1662 239.731,-75.7511 231.717,-82.6811 237.788,-86.1662"/>
</g>
<!-- Node13 -->
<g id="node13" class="node"><title>Node13</title>
<polygon fill="white" stroke="#bfbfbf" points="161.255,-56.5 161.255,-75.5 204.255,-75.5 204.255,-56.5 161.255,-56.5"/>
<text text-anchor="middle" x="182.755" y="-63.5" font-family="Helvetica,sans-Serif" font-size="10.00">cstdio</text>
</g>
<!-- Node11&#45;&gt;Node13 -->
<g id="edge13" class="edge"><title>Node11&#45;&gt;Node13</title>
<path fill="none" stroke="midnightblue" d="M208.636,-112.083C204.347,-104.613 198.097,-93.7244 192.812,-84.5199"/>
<polygon fill="midnightblue" stroke="midnightblue" points="195.793,-82.6811 187.778,-75.7511 189.722,-86.1662 195.793,-82.6811"/>
</g>
<!-- Node11&#45;&gt;Node14 -->
<g id="edge15" class="edge"><title>Node11&#45;&gt;Node14</title>
<path fill="none" stroke="midnightblue" d="M232.294,-112.444C251.378,-103.636 281.33,-89.8116 303.19,-79.722"/>
<polygon fill="midnightblue" stroke="midnightblue" points="304.69,-82.8849 312.302,-75.5164 301.756,-76.5292 304.69,-82.8849"/>
</g>
<!-- Node16&#45;&gt;Node2 -->
<g id="edge20" class="edge"><title>Node16&#45;&gt;Node2</title>
<path fill="none" stroke="midnightblue" d="M356.572,-224.324C369.988,-215.9 390.579,-202.971 406.34,-193.074"/>
<polygon fill="midnightblue" stroke="midnightblue" points="408.364,-195.936 414.972,-187.655 404.642,-190.008 408.364,-195.936"/>
</g>
<!-- Node16&#45;&gt;Node9 -->
<g id="edge21" class="edge"><title>Node16&#45;&gt;Node9</title>
<path fill="none" stroke="midnightblue" d="M344.901,-224.083C346.624,-216.927 349.102,-206.635 351.255,-197.691"/>
<polygon fill="midnightblue" stroke="midnightblue" points="354.71,-198.293 353.648,-187.751 347.905,-196.654 354.71,-198.293"/>
</g>
<!-- Node16&#45;&gt;Node11 -->
<g id="edge22" class="edge"><title>Node16&#45;&gt;Node11</title>
<path fill="none" stroke="midnightblue" d="M332.632,-224.368C310.778,-205.733 258.943,-161.532 231.503,-138.134"/>
<polygon fill="midnightblue" stroke="midnightblue" points="233.71,-135.417 223.83,-131.591 229.168,-140.743 233.71,-135.417"/>
</g>
<!-- Node17&#45;&gt;Node2 -->
<g id="edge25" class="edge"><title>Node17&#45;&gt;Node2</title>
<path fill="none" stroke="midnightblue" d="M448.792,-224.083C445.541,-216.77 440.835,-206.181 436.801,-197.103"/>
<polygon fill="midnightblue" stroke="midnightblue" points="439.904,-195.468 432.644,-187.751 433.507,-198.311 439.904,-195.468"/>
</g>
<!-- Node18 -->
<g id="node18" class="node"><title>Node18</title>
<polygon fill="white" stroke="#bfbfbf" points="470.255,-168.5 470.255,-187.5 515.255,-187.5 515.255,-168.5 470.255,-168.5"/>
<text text-anchor="middle" x="492.755" y="-175.5" font-family="Helvetica,sans-Serif" font-size="10.00">cstdlib</text>
</g>
<!-- Node17&#45;&gt;Node18 -->
<g id="edge24" class="edge"><title>Node17&#45;&gt;Node18</title>
<path fill="none" stroke="midnightblue" d="M459.36,-224.083C465.01,-216.455 473.3,-205.264 480.206,-195.941"/>
<polygon fill="midnightblue" stroke="midnightblue" points="483.133,-197.87 486.272,-187.751 477.508,-193.703 483.133,-197.87"/>
</g>
<!-- Node19&#45;&gt;Node2 -->
<g id="edge29" class="edge"><title>Node19&#45;&gt;Node2</title>
<path fill="none" stroke="midnightblue" d="M513.527,-224.324C497.404,-215.703 472.455,-202.364 453.791,-192.386"/>
<polygon fill="midnightblue" stroke="midnightblue" points="455.411,-189.283 444.942,-187.655 452.11,-195.456 455.411,-189.283"/>
</g>
<!-- Node19&#45;&gt;Node9 -->
<g id="edge30" class="edge"><title>Node19&#45;&gt;Node9</title>
<path fill="none" stroke="midnightblue" d="M509.111,-226.593C480.599,-217.745 428.675,-201.63 393.216,-190.626"/>
<polygon fill="midnightblue" stroke="midnightblue" points="393.824,-187.15 383.236,-187.529 391.749,-193.835 393.824,-187.15"/>
</g>
<!-- Node19&#45;&gt;Node11 -->
<g id="edge31" class="edge"><title>Node19&#45;&gt;Node11</title>
<path fill="none" stroke="midnightblue" d="M532.005,-224.056C534.929,-210.086 538.11,-183.124 523.755,-168 489.133,-131.525 342.738,-124.266 264.14,-123.046"/>
<polygon fill="midnightblue" stroke="midnightblue" points="264.024,-119.544 253.98,-122.916 263.934,-126.544 264.024,-119.544"/>
</g>
<!-- Node19&#45;&gt;Node14 -->
<g id="edge32" class="edge"><title>Node19&#45;&gt;Node14</title>
<path fill="none" stroke="midnightblue" d="M550.387,-226.719C553.521,-225.792 556.72,-224.86 559.755,-224 622.253,-206.297 734.069,-219.709 694.755,-168 657.453,-118.938 478.713,-87.4749 386.329,-74.2151"/>
<polygon fill="midnightblue" stroke="midnightblue" points="386.706,-70.7338 376.315,-72.8007 385.727,-77.665 386.706,-70.7338"/>
</g>
<!-- Node20 -->
<g id="node20" class="node"><title>Node20</title>
<polygon fill="white" stroke="#bfbfbf" points="572.255,-168.5 572.255,-187.5 621.255,-187.5 621.255,-168.5 572.255,-168.5"/>
<text text-anchor="middle" x="596.755" y="-175.5" font-family="Helvetica,sans-Serif" font-size="10.00">cstdarg</text>
</g>
<!-- Node19&#45;&gt;Node20 -->
<g id="edge27" class="edge"><title>Node19&#45;&gt;Node20</title>
<path fill="none" stroke="midnightblue" d="M540.519,-224.324C550.521,-216.263 565.641,-204.077 577.685,-194.369"/>
<polygon fill="midnightblue" stroke="midnightblue" points="580.205,-196.834 585.794,-187.834 575.812,-191.384 580.205,-196.834"/>
</g>
<!-- Node21 -->
<g id="node21" class="node"><title>Node21</title>
<polygon fill="white" stroke="#bfbfbf" points="639.755,-168.5 639.755,-187.5 685.755,-187.5 685.755,-168.5 639.755,-168.5"/>
<text text-anchor="middle" x="662.755" y="-175.5" font-family="Helvetica,sans-Serif" font-size="10.00">cstdint</text>
</g>
<!-- Node19&#45;&gt;Node21 -->
<g id="edge28" class="edge"><title>Node19&#45;&gt;Node21</title>
<path fill="none" stroke="midnightblue" d="M550.536,-224.562C572.465,-215.659 607.25,-201.536 632.281,-191.373"/>
<polygon fill="midnightblue" stroke="midnightblue" points="633.732,-194.561 641.68,-187.556 631.098,-188.076 633.732,-194.561"/>
</g>
</g>
</svg>
        <g id="navigator" transform="translate(0 0)" fill="#404254">
                <rect fill="#f2f5e9" fill-opacity="0.5" stroke="#606060" stroke-width=".5" x="0" y="0" width="60" height="60"/>
                <use id="zoomplus" xlink:href="#zoomPlus" x="17" y="9" onmousedown="handleZoom(evt,'in')"/>
                <use id="zoomminus" xlink:href="#zoomMin" x="42" y="9" onmousedown="handleZoom(evt,'out')"/>
                <use id="reset" xlink:href="#resetDef" x="30" y="36" onmousedown="handleReset()"/>
                <g id="arrowUp" xlink:href="#dirArrow" transform="translate(30 24)" onmousedown="handlePan(0,-1)">
                  <use xlink:href="#rim" fill="#404040">
                        <set attributeName="fill" to="#808080" begin="arrowUp.mouseover" end="arrowUp.mouseout"/>
                  </use>
                  <path fill="none" stroke="white" stroke-width="1.5" d="M0,-3.0v7 M-2.5,-0.5L0,-3.0L2.5,-0.5"/>
                </g>
                <g id="arrowRight" xlink:href="#dirArrow" transform="rotate(90) translate(36 -43)" onmousedown="handlePan(1,0)">
                  <use xlink:href="#rim" fill="#404040">
                        <set attributeName="fill" to="#808080" begin="arrowRight.mouseover" end="arrowRight.mouseout"/>
                  </use>
                  <path fill="none" stroke="white" stroke-width="1.5" d="M0,-3.0v7 M-2.5,-0.5L0,-3.0L2.5,-0.5"/>
                </g>
                <g id="arrowDown" xlink:href="#dirArrow" transform="rotate(180) translate(-30 -48)" onmousedown="handlePan(0,1)">
                  <use xlink:href="#rim" fill="#404040">
                        <set attributeName="fill" to="#808080" begin="arrowDown.mouseover" end="arrowDown.mouseout"/>
                  </use>
                  <path fill="none" stroke="white" stroke-width="1.5" d="M0,-3.0v7 M-2.5,-0.5L0,-3.0L2.5,-0.5"/>
                </g>
                <g id="arrowLeft" xlink:href="#dirArrow" transform="rotate(270) translate(-36 17)" onmousedown="handlePan(-1,0)">
                  <use xlink:href="#rim" fill="#404040">
                        <set attributeName="fill" to="#808080" begin="arrowLeft.mouseover" end="arrowLeft.mouseout"/>
                  </use>
                  <path fill="none" stroke="white" stroke-width="1.5" d="M0,-3.0v7 M-2.5,-0.5L0,-3.0L2.5,-0.5"/>
                </g>
        </g>
        <svg viewBox="0 0 15 15" width="100%" height="30px" preserveAspectRatio="xMaxYMin meet">
         <g id="arrow_out" transform="scale(0.3 0.3)">
          <a xlink:href="_i_plug_base_8h__incl_org.svg" target="_base">
           <rect id="button" ry="5" rx="5" y="6" x="6" height="38" width="38"
                fill="#f2f5e9" fill-opacity="0.5" stroke="#606060" stroke-width="1.0"/>
           <path id="arrow"
             d="M 11.500037,31.436501 C 11.940474,20.09759 22.043105,11.32322 32.158766,21.979434 L 37.068811,17.246167 C 37.068811,17.246167 37.088388,32 37.088388,32 L 22.160133,31.978069 C 22.160133,31.978069 26.997745,27.140456 26.997745,27.140456 C 18.528582,18.264221 13.291696,25.230495 11.500037,31.436501 z"
             style="fill:#404040;"/>
          </a>
         </g>
        </svg>
</svg>
