<?xml version="1.0" encoding="UTF-8" standalone="no"?>
<!DOCTYPE svg PUBLIC "-//W3C//DTD SVG 1.1//EN"
 "http://www.w3.org/Graphics/SVG/1.1/DTD/svg11.dtd">
<!-- Generated by graphviz version 2.36.0 (20140111.2315)
 -->
<!-- Title: IPlugVST3 Pages: 1 -->
<svg width="305pt" height="152pt"
 viewBox="0.00 0.00 305.00 152.00" xmlns="http://www.w3.org/2000/svg" xmlns:xlink="http://www.w3.org/1999/xlink">
<g id="graph0" class="graph" transform="scale(1 1) rotate(0) translate(4 148)">
<title>IPlugVST3</title>
<polygon fill="white" stroke="none" points="-4,4 -4,-148 301,-148 301,4 -4,4"/>
<!-- Node1 -->
<g id="node1" class="node"><title>Node1</title>
<polygon fill="#bfbfbf" stroke="black" points="105,-0.5 105,-19.5 169,-19.5 169,-0.5 105,-0.5"/>
<text text-anchor="middle" x="137" y="-7.5" font-family="Helvetica,sans-Serif" font-size="10.00">IPlugVST3</text>
</g>
<!-- Node2 -->
<g id="node2" class="node"><title>Node2</title>
<g id="a_node2"><a xlink:href="class_i_plug_base_graphics.html" target="_top" xlink:title="IPLUG_BASE_CLASS">
<polygon fill="white" stroke="black" points="-0.5,-62.5 -0.5,-81.5 116.5,-81.5 116.5,-62.5 -0.5,-62.5"/>
<text text-anchor="middle" x="58" y="-69.5" font-family="Helvetica,sans-Serif" font-size="10.00">IPLUG_BASE_CLASS</text>
</a>
</g>
</g>
<!-- Node2&#45;&gt;Node1 -->
<g id="edge1" class="edge"><title>Node2&#45;&gt;Node1</title>
<path fill="none" stroke="midnightblue" d="M77.5259,-56.1702C92.6799,-44.6608 113.157,-29.1086 125.702,-19.5806"/>
<polygon fill="midnightblue" stroke="midnightblue" points="75.1654,-53.5679 69.3188,-62.4035 79.3993,-59.1424 75.1654,-53.5679"/>
</g>
<!-- Node3 -->
<g id="node3" class="node"><title>Node3</title>
<g id="a_node3"><a xlink:href="class_i_plug_base.html" target="_top" xlink:title="The lowest level base class of an IPlug plug&#45;in. ">
<polygon fill="white" stroke="black" points="27,-124.5 27,-143.5 89,-143.5 89,-124.5 27,-124.5"/>
<text text-anchor="middle" x="58" y="-131.5" font-family="Helvetica,sans-Serif" font-size="10.00">IPlugBase</text>
</a>
</g>
</g>
<!-- Node3&#45;&gt;Node2 -->
<g id="edge2" class="edge"><title>Node3&#45;&gt;Node2</title>
<path fill="none" stroke="midnightblue" d="M58,-114.16C58,-103.248 58,-90.04 58,-81.5806"/>
<polygon fill="midnightblue" stroke="midnightblue" points="54.5001,-114.403 58,-124.403 61.5001,-114.403 54.5001,-114.403"/>
</g>
<!-- Node4 -->
<g id="node4" class="node"><title>Node4</title>
<polygon fill="white" stroke="#bfbfbf" points="135,-57 135,-87 297,-87 297,-57 135,-57"/>
<text text-anchor="start" x="143" y="-75" font-family="Helvetica,sans-Serif" font-size="10.00">Steinberg::Vst::SingleComponent</text>
<text text-anchor="middle" x="216" y="-64" font-family="Helvetica,sans-Serif" font-size="10.00">Effect</text>
</g>
<!-- Node4&#45;&gt;Node1 -->
<g id="edge3" class="edge"><title>Node4&#45;&gt;Node1</title>
<path fill="none" stroke="midnightblue" d="M189.032,-50.5179C175.201,-40.0137 159.084,-27.7727 148.495,-19.7305"/>
<polygon fill="midnightblue" stroke="midnightblue" points="187.198,-53.5198 197.278,-56.7808 191.431,-47.9453 187.198,-53.5198"/>
</g>
</g>
</svg>
