<?xml version="1.0" encoding="UTF-8" standalone="no"?>
<!DOCTYPE svg PUBLIC "-//W3C//DTD SVG 1.1//EN"
 "http://www.w3.org/Graphics/SVG/1.1/DTD/svg11.dtd">
<!-- Generated by graphviz version 2.36.0 (20140111.2315)
 -->
<!-- Title: IGraphics Pages: 1 -->
<svg width="398pt" height="84pt"
 viewBox="0.00 0.00 398.00 84.00" xmlns="http://www.w3.org/2000/svg" xmlns:xlink="http://www.w3.org/1999/xlink">
<g id="graph0" class="graph" transform="scale(1 1) rotate(0) translate(4 80)">
<title>IGraphics</title>
<polygon fill="white" stroke="none" points="-4,4 -4,-80 394,-80 394,4 -4,4"/>
<!-- Node1 -->
<g id="node1" class="node"><title>Node1</title>
<polygon fill="#bfbfbf" stroke="black" points="158.5,-56.5 158.5,-75.5 217.5,-75.5 217.5,-56.5 158.5,-56.5"/>
<text text-anchor="middle" x="188" y="-63.5" font-family="Helvetica,sans-Serif" font-size="10.00">IGraphics</text>
</g>
<!-- Node2 -->
<g id="node2" class="node"><title>Node2</title>
<g id="a_node2"><a xlink:href="class_i_graphics_a_g_g.html" target="_top" xlink:title="IGraphics draw class using Antigrain Geometry. ">
<polygon fill="white" stroke="black" points="0,-0.5 0,-19.5 80,-19.5 80,-0.5 0,-0.5"/>
<text text-anchor="middle" x="40" y="-7.5" font-family="Helvetica,sans-Serif" font-size="10.00">IGraphicsAGG</text>
</a>
</g>
</g>
<!-- Node1&#45;&gt;Node2 -->
<g id="edge1" class="edge"><title>Node1&#45;&gt;Node2</title>
<path fill="none" stroke="midnightblue" d="M154.853,-52.9058C127.028,-42.7536 87.9802,-28.5063 63.3413,-19.5164"/>
<polygon fill="midnightblue" stroke="midnightblue" points="153.955,-56.3038 164.549,-56.4435 156.354,-49.7279 153.955,-56.3038"/>
</g>
<!-- Node3 -->
<g id="node3" class="node"><title>Node3</title>
<g id="a_node3"><a xlink:href="class_i_graphics_cairo.html" target="_top" xlink:title="IGraphics draw class using Cairo. ">
<polygon fill="white" stroke="black" points="98,-0.5 98,-19.5 180,-19.5 180,-0.5 98,-0.5"/>
<text text-anchor="middle" x="139" y="-7.5" font-family="Helvetica,sans-Serif" font-size="10.00">IGraphicsCairo</text>
</a>
</g>
</g>
<!-- Node1&#45;&gt;Node3 -->
<g id="edge2" class="edge"><title>Node1&#45;&gt;Node3</title>
<path fill="none" stroke="midnightblue" d="M172.966,-48.4314C164.378,-38.9673 153.957,-27.4827 146.941,-19.7511"/>
<polygon fill="midnightblue" stroke="midnightblue" points="170.597,-51.0293 179.909,-56.083 175.781,-46.3254 170.597,-51.0293"/>
</g>
<!-- Node4 -->
<g id="node4" class="node"><title>Node4</title>
<g id="a_node4"><a xlink:href="class_i_graphics_lice.html" target="_top" xlink:title="IGraphics draw class using Cockos&#39; LICE. ">
<polygon fill="white" stroke="black" points="198.5,-0.5 198.5,-19.5 275.5,-19.5 275.5,-0.5 198.5,-0.5"/>
<text text-anchor="middle" x="237" y="-7.5" font-family="Helvetica,sans-Serif" font-size="10.00">IGraphicsLice</text>
</a>
</g>
</g>
<!-- Node1&#45;&gt;Node4 -->
<g id="edge3" class="edge"><title>Node1&#45;&gt;Node4</title>
<path fill="none" stroke="midnightblue" d="M203.034,-48.4314C211.622,-38.9673 222.043,-27.4827 229.059,-19.7511"/>
<polygon fill="midnightblue" stroke="midnightblue" points="200.219,-46.3254 196.091,-56.083 205.403,-51.0293 200.219,-46.3254"/>
</g>
<!-- Node5 -->
<g id="node5" class="node"><title>Node5</title>
<g id="a_node5"><a xlink:href="class_i_graphics_nano_v_g.html" target="_top" xlink:title="IGraphics draw class using NanoVG. ">
<polygon fill="white" stroke="black" points="294,-0.5 294,-19.5 390,-19.5 390,-0.5 294,-0.5"/>
<text text-anchor="middle" x="342" y="-7.5" font-family="Helvetica,sans-Serif" font-size="10.00">IGraphicsNanoVG</text>
</a>
</g>
</g>
<!-- Node1&#45;&gt;Node5 -->
<g id="edge4" class="edge"><title>Node1&#45;&gt;Node5</title>
<path fill="none" stroke="midnightblue" d="M222.111,-53.0392C251.087,-42.8786 291.962,-28.5457 317.712,-19.5164"/>
<polygon fill="midnightblue" stroke="midnightblue" points="220.68,-49.8317 212.402,-56.4435 222.997,-56.4373 220.68,-49.8317"/>
</g>
</g>
</svg>
