<?xml version="1.0" encoding="UTF-8" standalone="no"?>
<!DOCTYPE svg PUBLIC "-//W3C//DTD SVG 1.1//EN"
 "http://www.w3.org/Graphics/SVG/1.1/DTD/svg11.dtd">
<!-- Generated by graphviz version 2.36.0 (20140111.2315)
 -->
<!-- Title: IPlugBase Pages: 1 -->
<svg width="485pt" height="140pt"
 viewBox="0.00 0.00 485.00 140.00" xmlns="http://www.w3.org/2000/svg" xmlns:xlink="http://www.w3.org/1999/xlink">
<g id="graph0" class="graph" transform="scale(1 1) rotate(0) translate(4 136)">
<title>IPlugBase</title>
<polygon fill="white" stroke="none" points="-4,4 -4,-136 481,-136 481,4 -4,4"/>
<!-- Node1 -->
<g id="node1" class="node"><title>Node1</title>
<polygon fill="#bfbfbf" stroke="black" points="206,-112.5 206,-131.5 268,-131.5 268,-112.5 206,-112.5"/>
<text text-anchor="middle" x="237" y="-119.5" font-family="Helvetica,sans-Serif" font-size="10.00">IPlugBase</text>
</g>
<!-- Node2 -->
<g id="node2" class="node"><title>Node2</title>
<g id="a_node2"><a xlink:href="class_i_plug_base_graphics.html" target="_top" xlink:title="IPlugBaseGraphics">
<polygon fill="white" stroke="black" points="186.5,-56.5 186.5,-75.5 287.5,-75.5 287.5,-56.5 186.5,-56.5"/>
<text text-anchor="middle" x="237" y="-63.5" font-family="Helvetica,sans-Serif" font-size="10.00">IPlugBaseGraphics</text>
</a>
</g>
</g>
<!-- Node1&#45;&gt;Node2 -->
<g id="edge1" class="edge"><title>Node1&#45;&gt;Node2</title>
<path fill="none" stroke="midnightblue" d="M237,-101.805C237,-92.9102 237,-82.7798 237,-75.7511"/>
<polygon fill="midnightblue" stroke="midnightblue" points="233.5,-102.083 237,-112.083 240.5,-102.083 233.5,-102.083"/>
</g>
<!-- Node3 -->
<g id="node3" class="node"><title>Node3</title>
<g id="a_node3"><a xlink:href="class_i_plug_a_a_x.html" target="_top" xlink:title="AAX API base class for an IPlug plug&#45;in, inherits from IPlugBase. ">
<polygon fill="white" stroke="black" points="-0.5,-0.5 -0.5,-19.5 58.5,-19.5 58.5,-0.5 -0.5,-0.5"/>
<text text-anchor="middle" x="29" y="-7.5" font-family="Helvetica,sans-Serif" font-size="10.00">IPlugAAX</text>
</a>
</g>
</g>
<!-- Node2&#45;&gt;Node3 -->
<g id="edge2" class="edge"><title>Node2&#45;&gt;Node3</title>
<path fill="none" stroke="midnightblue" d="M194.207,-53.8902C153.798,-43.3994 94.2497,-27.9398 58.7711,-18.729"/>
<polygon fill="midnightblue" stroke="midnightblue" points="193.483,-57.3183 204.042,-56.4435 195.242,-50.5429 193.483,-57.3183"/>
</g>
<!-- Node4 -->
<g id="node4" class="node"><title>Node4</title>
<g id="a_node4"><a xlink:href="class_i_plug_a_u.html" target="_top" xlink:title="AudioUnit v2 API base class for an IPlug plug&#45;in, inherits from IPlugBase. ">
<polygon fill="white" stroke="black" points="76.5,-0.5 76.5,-19.5 129.5,-19.5 129.5,-0.5 76.5,-0.5"/>
<text text-anchor="middle" x="103" y="-7.5" font-family="Helvetica,sans-Serif" font-size="10.00">IPlugAU</text>
</a>
</g>
</g>
<!-- Node2&#45;&gt;Node4 -->
<g id="edge3" class="edge"><title>Node2&#45;&gt;Node4</title>
<path fill="none" stroke="midnightblue" d="M206.323,-52.6377C181.177,-42.504 146.246,-28.4274 124.133,-19.5164"/>
<polygon fill="midnightblue" stroke="midnightblue" points="205.184,-55.952 215.767,-56.4435 207.8,-49.4594 205.184,-55.952"/>
</g>
<!-- Node5 -->
<g id="node5" class="node"><title>Node5</title>
<g id="a_node5"><a xlink:href="class_i_plug_standalone.html" target="_top" xlink:title="Standalone application base class for an IPlug plug&#45;in, inherits from IPlugBase. ">
<polygon fill="white" stroke="black" points="147,-0.5 147,-19.5 235,-19.5 235,-0.5 147,-0.5"/>
<text text-anchor="middle" x="191" y="-7.5" font-family="Helvetica,sans-Serif" font-size="10.00">IPlugStandalone</text>
</a>
</g>
</g>
<!-- Node2&#45;&gt;Node5 -->
<g id="edge4" class="edge"><title>Node2&#45;&gt;Node5</title>
<path fill="none" stroke="midnightblue" d="M222.886,-48.4314C214.824,-38.9673 205.041,-27.4827 198.455,-19.7511"/>
<polygon fill="midnightblue" stroke="midnightblue" points="220.255,-50.7402 229.404,-56.083 225.584,-46.2009 220.255,-50.7402"/>
</g>
<!-- Node6 -->
<g id="node6" class="node"><title>Node6</title>
<g id="a_node6"><a xlink:href="class_i_plug_v_s_t.html" target="_top" xlink:title="VST2.4 API base class for an IPlug plug&#45;in, inherits from IPlugBase. ">
<polygon fill="white" stroke="black" points="253.5,-0.5 253.5,-19.5 312.5,-19.5 312.5,-0.5 253.5,-0.5"/>
<text text-anchor="middle" x="283" y="-7.5" font-family="Helvetica,sans-Serif" font-size="10.00">IPlugVST</text>
</a>
</g>
</g>
<!-- Node2&#45;&gt;Node6 -->
<g id="edge5" class="edge"><title>Node2&#45;&gt;Node6</title>
<path fill="none" stroke="midnightblue" d="M251.114,-48.4314C259.176,-38.9673 268.959,-27.4827 275.545,-19.7511"/>
<polygon fill="midnightblue" stroke="midnightblue" points="248.416,-46.2009 244.596,-56.083 253.745,-50.7402 248.416,-46.2009"/>
</g>
<!-- Node7 -->
<g id="node7" class="node"><title>Node7</title>
<g id="a_node7"><a xlink:href="class_i_plug_v_s_t3.html" target="_top" xlink:title="VST3 base class for an IPlug plug&#45;in, inherits from IPlugBase. ">
<polygon fill="white" stroke="black" points="331,-0.5 331,-19.5 395,-19.5 395,-0.5 331,-0.5"/>
<text text-anchor="middle" x="363" y="-7.5" font-family="Helvetica,sans-Serif" font-size="10.00">IPlugVST3</text>
</a>
</g>
</g>
<!-- Node2&#45;&gt;Node7 -->
<g id="edge6" class="edge"><title>Node2&#45;&gt;Node7</title>
<path fill="none" stroke="midnightblue" d="M266.16,-52.503C289.781,-42.3795 322.428,-28.388 343.128,-19.5164"/>
<polygon fill="midnightblue" stroke="midnightblue" points="264.778,-49.2873 256.965,-56.4435 267.535,-55.7213 264.778,-49.2873"/>
</g>
<!-- Node8 -->
<g id="node8" class="node"><title>Node8</title>
<g id="a_node8"><a xlink:href="class_i_plug_w_a_m.html" target="_top" xlink:title="Web Audio Module (WAM) API base class for an IPlug plug&#45;in, inherits from IPlugBase. ">
<polygon fill="white" stroke="black" points="413,-0.5 413,-19.5 477,-19.5 477,-0.5 413,-0.5"/>
<text text-anchor="middle" x="445" y="-7.5" font-family="Helvetica,sans-Serif" font-size="10.00">IPlugWAM</text>
</a>
</g>
</g>
<!-- Node2&#45;&gt;Node8 -->
<g id="edge7" class="edge"><title>Node2&#45;&gt;Node8</title>
<path fill="none" stroke="midnightblue" d="M279.839,-53.8784C319.368,-43.6161 377.182,-28.6066 412.879,-19.339"/>
<polygon fill="midnightblue" stroke="midnightblue" points="278.758,-50.5429 269.958,-56.4435 280.517,-57.3183 278.758,-50.5429"/>
</g>
</g>
</svg>
