<?xml version="1.0" encoding="UTF-8" standalone="no"?>
<!DOCTYPE svg PUBLIC "-//W3C//DTD SVG 1.1//EN"
 "http://www.w3.org/Graphics/SVG/1.1/DTD/svg11.dtd">
<!-- Generated by graphviz version 2.36.0 (20140111.2315)
 -->
<!-- Title: IPlugAAX Pages: 1 -->
<svg width="265pt" height="140pt"
 viewBox="0.00 0.00 265.00 140.00" xmlns="http://www.w3.org/2000/svg" xmlns:xlink="http://www.w3.org/1999/xlink">
<g id="graph0" class="graph" transform="scale(1 1) rotate(0) translate(4 136)">
<title>IPlugAAX</title>
<polygon fill="white" stroke="none" points="-4,4 -4,-136 261,-136 261,4 -4,4"/>
<!-- Node1 -->
<g id="node1" class="node"><title>Node1</title>
<polygon fill="#bfbfbf" stroke="black" points="97.5,-0.5 97.5,-19.5 156.5,-19.5 156.5,-0.5 97.5,-0.5"/>
<text text-anchor="middle" x="127" y="-7.5" font-family="Helvetica,sans-Serif" font-size="10.00">IPlugAAX</text>
</g>
<!-- Node2 -->
<g id="node2" class="node"><title>Node2</title>
<g id="a_node2"><a xlink:href="class_i_plug_base_graphics.html" target="_top" xlink:title="IPLUG_BASE_CLASS">
<polygon fill="white" stroke="black" points="-0.5,-56.5 -0.5,-75.5 116.5,-75.5 116.5,-56.5 -0.5,-56.5"/>
<text text-anchor="middle" x="58" y="-63.5" font-family="Helvetica,sans-Serif" font-size="10.00">IPLUG_BASE_CLASS</text>
</a>
</g>
</g>
<!-- Node2&#45;&gt;Node1 -->
<g id="edge1" class="edge"><title>Node2&#45;&gt;Node1</title>
<path fill="none" stroke="midnightblue" d="M77.0379,-50.1008C89.4558,-40.3824 105.243,-28.0269 115.712,-19.8339"/>
<polygon fill="midnightblue" stroke="midnightblue" points="74.804,-47.4046 69.086,-56.324 79.1182,-52.9171 74.804,-47.4046"/>
</g>
<!-- Node3 -->
<g id="node3" class="node"><title>Node3</title>
<g id="a_node3"><a xlink:href="class_i_plug_base.html" target="_top" xlink:title="The lowest level base class of an IPlug plug&#45;in. ">
<polygon fill="white" stroke="black" points="27,-112.5 27,-131.5 89,-131.5 89,-112.5 27,-112.5"/>
<text text-anchor="middle" x="58" y="-119.5" font-family="Helvetica,sans-Serif" font-size="10.00">IPlugBase</text>
</a>
</g>
</g>
<!-- Node3&#45;&gt;Node2 -->
<g id="edge2" class="edge"><title>Node3&#45;&gt;Node2</title>
<path fill="none" stroke="midnightblue" d="M58,-101.805C58,-92.9102 58,-82.7798 58,-75.7511"/>
<polygon fill="midnightblue" stroke="midnightblue" points="54.5001,-102.083 58,-112.083 61.5001,-102.083 54.5001,-102.083"/>
</g>
<!-- Node4 -->
<g id="node4" class="node"><title>Node4</title>
<polygon fill="white" stroke="#bfbfbf" points="135,-56.5 135,-75.5 257,-75.5 257,-56.5 135,-56.5"/>
<text text-anchor="middle" x="196" y="-63.5" font-family="Helvetica,sans-Serif" font-size="10.00">AAX_CIPlugParameters</text>
</g>
<!-- Node4&#45;&gt;Node1 -->
<g id="edge3" class="edge"><title>Node4&#45;&gt;Node1</title>
<path fill="none" stroke="midnightblue" d="M176.962,-50.1008C164.544,-40.3824 148.757,-28.0269 138.288,-19.8339"/>
<polygon fill="midnightblue" stroke="midnightblue" points="174.882,-52.9171 184.914,-56.324 179.196,-47.4046 174.882,-52.9171"/>
</g>
</g>
</svg>
