<?xml version="1.0" encoding="UTF-8" standalone="no"?>
<!DOCTYPE svg PUBLIC "-//W3C//DTD SVG 1.1//EN"
 "http://www.w3.org/Graphics/SVG/1.1/DTD/svg11.dtd">
<!-- Generated by graphviz version 2.36.0 (20140111.2315)
 -->
<!-- Title: IBitmapControl Pages: 1 -->
<svg width="489pt" height="196pt"
 viewBox="0.00 0.00 489.00 196.00" xmlns="http://www.w3.org/2000/svg" xmlns:xlink="http://www.w3.org/1999/xlink">
<g id="graph0" class="graph" transform="scale(1 1) rotate(0) translate(4 192)">
<title>IBitmapControl</title>
<polygon fill="white" stroke="none" points="-4,4 -4,-192 485,-192 485,4 -4,4"/>
<!-- Node1 -->
<g id="node1" class="node"><title>Node1</title>
<polygon fill="#bfbfbf" stroke="black" points="195,-112.5 195,-131.5 277,-131.5 277,-112.5 195,-112.5"/>
<text text-anchor="middle" x="236" y="-119.5" font-family="Helvetica,sans-Serif" font-size="10.00">IBitmapControl</text>
</g>
<!-- Node3 -->
<g id="node3" class="node"><title>Node3</title>
<g id="a_node3"><a xlink:href="class_i_switch_control.html" target="_top" xlink:title="A switch. ">
<polygon fill="white" stroke="black" points="195.5,-56.5 195.5,-75.5 276.5,-75.5 276.5,-56.5 195.5,-56.5"/>
<text text-anchor="middle" x="236" y="-63.5" font-family="Helvetica,sans-Serif" font-size="10.00">ISwitchControl</text>
</a>
</g>
</g>
<!-- Node1&#45;&gt;Node3 -->
<g id="edge2" class="edge"><title>Node1&#45;&gt;Node3</title>
<path fill="none" stroke="midnightblue" d="M236,-101.805C236,-92.9102 236,-82.7798 236,-75.7511"/>
<polygon fill="midnightblue" stroke="midnightblue" points="232.5,-102.083 236,-112.083 239.5,-102.083 232.5,-102.083"/>
</g>
<!-- Node2 -->
<g id="node2" class="node"><title>Node2</title>
<g id="a_node2"><a xlink:href="class_i_control.html" target="_top" xlink:title="The lowest level base class of an IGraphics control. ">
<polygon fill="white" stroke="black" points="210.5,-168.5 210.5,-187.5 261.5,-187.5 261.5,-168.5 210.5,-168.5"/>
<text text-anchor="middle" x="236" y="-175.5" font-family="Helvetica,sans-Serif" font-size="10.00">IControl</text>
</a>
</g>
</g>
<!-- Node2&#45;&gt;Node1 -->
<g id="edge1" class="edge"><title>Node2&#45;&gt;Node1</title>
<path fill="none" stroke="midnightblue" d="M236,-157.805C236,-148.91 236,-138.78 236,-131.751"/>
<polygon fill="midnightblue" stroke="midnightblue" points="232.5,-158.083 236,-168.083 239.5,-158.083 232.5,-158.083"/>
</g>
<!-- Node4 -->
<g id="node4" class="node"><title>Node4</title>
<g id="a_node4"><a xlink:href="class_i_bitmap_overlay_control.html" target="_top" xlink:title="Bitmap shows when value = 0, then toggles its target area to the whole bitmap and waits for another c...">
<polygon fill="white" stroke="black" points="0,-0.5 0,-19.5 116,-19.5 116,-0.5 0,-0.5"/>
<text text-anchor="middle" x="58" y="-7.5" font-family="Helvetica,sans-Serif" font-size="10.00">IBitmapOverlayControl</text>
</a>
</g>
</g>
<!-- Node3&#45;&gt;Node4 -->
<g id="edge3" class="edge"><title>Node3&#45;&gt;Node4</title>
<path fill="none" stroke="midnightblue" d="M197.883,-53.4363C164.322,-43.2551 116.226,-28.664 86.0727,-19.5164"/>
<polygon fill="midnightblue" stroke="midnightblue" points="197.21,-56.8897 207.795,-56.4435 199.242,-50.1911 197.21,-56.8897"/>
</g>
<!-- Node5 -->
<g id="node5" class="node"><title>Node5</title>
<g id="a_node5"><a xlink:href="class_i_contact_control.html" target="_top" xlink:title="A switch that reverts to 0.0 when released. ">
<polygon fill="white" stroke="black" points="134,-0.5 134,-19.5 220,-19.5 220,-0.5 134,-0.5"/>
<text text-anchor="middle" x="177" y="-7.5" font-family="Helvetica,sans-Serif" font-size="10.00">IContactControl</text>
</a>
</g>
</g>
<!-- Node3&#45;&gt;Node5 -->
<g id="edge4" class="edge"><title>Node3&#45;&gt;Node5</title>
<path fill="none" stroke="midnightblue" d="M219.105,-49.5372C208.585,-39.9087 195.431,-27.8694 186.652,-19.8339"/>
<polygon fill="midnightblue" stroke="midnightblue" points="216.781,-52.1542 226.521,-56.324 221.507,-46.9905 216.781,-52.1542"/>
</g>
<!-- Node6 -->
<g id="node6" class="node"><title>Node6</title>
<g id="a_node6"><a xlink:href="class_i_switch_frames_control.html" target="_top" xlink:title="A switch where each frame of the bitmap contains images for multiple button states. ">
<polygon fill="white" stroke="black" points="238,-0.5 238,-19.5 352,-19.5 352,-0.5 238,-0.5"/>
<text text-anchor="middle" x="295" y="-7.5" font-family="Helvetica,sans-Serif" font-size="10.00">ISwitchFramesControl</text>
</a>
</g>
</g>
<!-- Node3&#45;&gt;Node6 -->
<g id="edge5" class="edge"><title>Node3&#45;&gt;Node6</title>
<path fill="none" stroke="midnightblue" d="M252.895,-49.5372C263.415,-39.9087 276.569,-27.8694 285.348,-19.8339"/>
<polygon fill="midnightblue" stroke="midnightblue" points="250.493,-46.9905 245.479,-56.324 255.219,-52.1542 250.493,-46.9905"/>
</g>
<!-- Node7 -->
<g id="node7" class="node"><title>Node7</title>
<g id="a_node7"><a xlink:href="class_i_switch_pop_up_control.html" target="_top" xlink:title="Like ISwitchControl except it puts up a popup menu instead of cycling through states on click...">
<polygon fill="white" stroke="black" points="370.5,-0.5 370.5,-19.5 481.5,-19.5 481.5,-0.5 370.5,-0.5"/>
<text text-anchor="middle" x="426" y="-7.5" font-family="Helvetica,sans-Serif" font-size="10.00">ISwitchPopUpControl</text>
</a>
</g>
</g>
<!-- Node3&#45;&gt;Node7 -->
<g id="edge6" class="edge"><title>Node3&#45;&gt;Node7</title>
<path fill="none" stroke="midnightblue" d="M275.764,-53.6986C311.623,-43.507 363.571,-28.7429 396.035,-19.5164"/>
<polygon fill="midnightblue" stroke="midnightblue" points="274.768,-50.343 266.106,-56.4435 276.682,-57.0763 274.768,-50.343"/>
</g>
</g>
</svg>
