<?xml version="1.0" encoding="UTF-8" standalone="no"?>
<!DOCTYPE svg PUBLIC "-//W3C//DTD SVG 1.1//EN"
 "http://www.w3.org/Graphics/SVG/1.1/DTD/svg11.dtd">
<!-- Generated by graphviz version 2.36.0 (20140111.2315)
 -->
<!-- Title: IKnobControl Pages: 1 -->
<svg width="490pt" height="140pt"
 viewBox="0.00 0.00 490.00 140.00" xmlns="http://www.w3.org/2000/svg" xmlns:xlink="http://www.w3.org/1999/xlink">
<g id="graph0" class="graph" transform="scale(1 1) rotate(0) translate(4 136)">
<title>IKnobControl</title>
<polygon fill="white" stroke="none" points="-4,4 -4,-136 486,-136 486,4 -4,4"/>
<!-- Node1 -->
<g id="node1" class="node"><title>Node1</title>
<polygon fill="#bfbfbf" stroke="black" points="180,-56.5 180,-75.5 254,-75.5 254,-56.5 180,-56.5"/>
<text text-anchor="middle" x="217" y="-63.5" font-family="Helvetica,sans-Serif" font-size="10.00">IKnobControl</text>
</g>
<!-- Node3 -->
<g id="node3" class="node"><title>Node3</title>
<g id="a_node3"><a xlink:href="class_i_knob_line_control.html" target="_top" xlink:title="A knob that is just a line. ">
<polygon fill="white" stroke="black" points="0,-0.5 0,-19.5 92,-19.5 92,-0.5 0,-0.5"/>
<text text-anchor="middle" x="46" y="-7.5" font-family="Helvetica,sans-Serif" font-size="10.00">IKnobLineControl</text>
</a>
</g>
</g>
<!-- Node1&#45;&gt;Node3 -->
<g id="edge2" class="edge"><title>Node1&#45;&gt;Node3</title>
<path fill="none" stroke="midnightblue" d="M179.964,-53.3044C147.743,-43.1294 101.811,-28.6246 72.9687,-19.5164"/>
<polygon fill="midnightblue" stroke="midnightblue" points="179.315,-56.7697 189.905,-56.4435 181.423,-50.0946 179.315,-56.7697"/>
</g>
<!-- Node4 -->
<g id="node4" class="node"><title>Node4</title>
<g id="a_node4"><a xlink:href="class_i_knob_multi_control.html" target="_top" xlink:title="A multibitmap knob. ">
<polygon fill="white" stroke="black" points="110.5,-0.5 110.5,-19.5 205.5,-19.5 205.5,-0.5 110.5,-0.5"/>
<text text-anchor="middle" x="158" y="-7.5" font-family="Helvetica,sans-Serif" font-size="10.00">IKnobMultiControl</text>
</a>
</g>
</g>
<!-- Node1&#45;&gt;Node4 -->
<g id="edge3" class="edge"><title>Node1&#45;&gt;Node4</title>
<path fill="none" stroke="midnightblue" d="M200.105,-49.5372C189.585,-39.9087 176.431,-27.8694 167.652,-19.8339"/>
<polygon fill="midnightblue" stroke="midnightblue" points="197.781,-52.1542 207.521,-56.324 202.507,-46.9905 197.781,-52.1542"/>
</g>
<!-- Node5 -->
<g id="node5" class="node"><title>Node5</title>
<g id="a_node5"><a xlink:href="class_i_knob_rotater_control.html" target="_top" xlink:title="A rotating knob. ">
<polygon fill="white" stroke="black" points="224,-0.5 224,-19.5 330,-19.5 330,-0.5 224,-0.5"/>
<text text-anchor="middle" x="277" y="-7.5" font-family="Helvetica,sans-Serif" font-size="10.00">IKnobRotaterControl</text>
</a>
</g>
</g>
<!-- Node1&#45;&gt;Node5 -->
<g id="edge4" class="edge"><title>Node1&#45;&gt;Node5</title>
<path fill="none" stroke="midnightblue" d="M234.181,-49.5372C244.879,-39.9087 258.256,-27.8694 267.185,-19.8339"/>
<polygon fill="midnightblue" stroke="midnightblue" points="231.732,-47.0327 226.64,-56.324 236.414,-52.2358 231.732,-47.0327"/>
</g>
<!-- Node6 -->
<g id="node6" class="node"><title>Node6</title>
<g id="a_node6"><a xlink:href="class_i_knob_rotating_mask_control.html" target="_top" xlink:title="A knob that consists of a static base, a rotating mask, and a rotating top. ">
<polygon fill="white" stroke="black" points="348,-0.5 348,-19.5 482,-19.5 482,-0.5 348,-0.5"/>
<text text-anchor="middle" x="415" y="-7.5" font-family="Helvetica,sans-Serif" font-size="10.00">IKnobRotatingMaskControl</text>
</a>
</g>
</g>
<!-- Node1&#45;&gt;Node6 -->
<g id="edge5" class="edge"><title>Node1&#45;&gt;Node6</title>
<path fill="none" stroke="midnightblue" d="M258.438,-53.6986C295.807,-43.507 349.943,-28.7429 383.773,-19.5164"/>
<polygon fill="midnightblue" stroke="midnightblue" points="257.1,-50.4356 248.374,-56.4435 258.942,-57.189 257.1,-50.4356"/>
</g>
<!-- Node2 -->
<g id="node2" class="node"><title>Node2</title>
<g id="a_node2"><a xlink:href="class_i_control.html" target="_top" xlink:title="The lowest level base class of an IGraphics control. ">
<polygon fill="white" stroke="black" points="191.5,-112.5 191.5,-131.5 242.5,-131.5 242.5,-112.5 191.5,-112.5"/>
<text text-anchor="middle" x="217" y="-119.5" font-family="Helvetica,sans-Serif" font-size="10.00">IControl</text>
</a>
</g>
</g>
<!-- Node2&#45;&gt;Node1 -->
<g id="edge1" class="edge"><title>Node2&#45;&gt;Node1</title>
<path fill="none" stroke="midnightblue" d="M217,-101.805C217,-92.9102 217,-82.7798 217,-75.7511"/>
<polygon fill="midnightblue" stroke="midnightblue" points="213.5,-102.083 217,-112.083 220.5,-102.083 213.5,-102.083"/>
</g>
</g>
</svg>
