<?xml version="1.0" encoding="UTF-8" standalone="no"?>
<!DOCTYPE svg PUBLIC "-//W3C//DTD SVG 1.1//EN"
 "http://www.w3.org/Graphics/SVG/1.1/DTD/svg11.dtd">
<!-- Generated by graphviz version 2.36.0 (20140111.2315)
 -->
<!-- Title: Graphical Class Hierarchy Pages: 1 -->
<svg width="352pt" height="218pt"
 viewBox="0.00 0.00 352.00 218.00" xmlns="http://www.w3.org/2000/svg" xmlns:xlink="http://www.w3.org/1999/xlink">
<g id="graph0" class="graph" transform="scale(1 1) rotate(0) translate(4 214)">
<title>Graphical Class Hierarchy</title>
<polygon fill="white" stroke="none" points="-4,4 -4,-214 348,-214 348,4 -4,4"/>
<!-- Node1 -->
<g id="node1" class="node"><title>Node1</title>
<polygon fill="white" stroke="#bfbfbf" points="98,-190.5 98,-209.5 220,-209.5 220,-190.5 98,-190.5"/>
<text text-anchor="middle" x="159" y="-197.5" font-family="Helvetica,sans-Serif" font-size="10.00">AAX_CIPlugParameters</text>
</g>
<!-- Node2 -->
<g id="node2" class="node"><title>Node2</title>
<g id="a_node2"><a xlink:href="class_i_plug_a_a_x.html" target="_top" xlink:title="AAX API base class for an IPlug plug&#45;in, inherits from IPlugBase. ">
<polygon fill="white" stroke="black" points="270.5,-190.5 270.5,-209.5 329.5,-209.5 329.5,-190.5 270.5,-190.5"/>
<text text-anchor="middle" x="300" y="-197.5" font-family="Helvetica,sans-Serif" font-size="10.00">IPlugAAX</text>
</a>
</g>
</g>
<!-- Node1&#45;&gt;Node2 -->
<g id="edge1" class="edge"><title>Node1&#45;&gt;Node2</title>
<path fill="none" stroke="midnightblue" d="M230.449,-200C244.614,-200 258.726,-200 270.432,-200"/>
<polygon fill="midnightblue" stroke="midnightblue" points="230.159,-196.5 220.159,-200 230.159,-203.5 230.159,-196.5"/>
</g>
<!-- Node3 -->
<g id="node3" class="node"><title>Node3</title>
<g id="a_node3"><a xlink:href="class_i_plug_base.html" target="_top" xlink:title="The lowest level base class of an IPlug plug&#45;in. ">
<polygon fill="white" stroke="black" points="0,-95.5 0,-114.5 62,-114.5 62,-95.5 0,-95.5"/>
<text text-anchor="middle" x="31" y="-102.5" font-family="Helvetica,sans-Serif" font-size="10.00">IPlugBase</text>
</a>
</g>
</g>
<!-- Node4 -->
<g id="node4" class="node"><title>Node4</title>
<g id="a_node4"><a xlink:href="class_i_plug_base_graphics.html" target="_top" xlink:title="IPlugBaseGraphics">
<polygon fill="white" stroke="black" points="108.5,-95.5 108.5,-114.5 209.5,-114.5 209.5,-95.5 108.5,-95.5"/>
<text text-anchor="middle" x="159" y="-102.5" font-family="Helvetica,sans-Serif" font-size="10.00">IPlugBaseGraphics</text>
</a>
</g>
</g>
<!-- Node3&#45;&gt;Node4 -->
<g id="edge2" class="edge"><title>Node3&#45;&gt;Node4</title>
<path fill="none" stroke="midnightblue" d="M72.3365,-105C83.8069,-105 96.4337,-105 108.387,-105"/>
<polygon fill="midnightblue" stroke="midnightblue" points="72.1802,-101.5 62.1801,-105 72.1801,-108.5 72.1802,-101.5"/>
</g>
<!-- Node4&#45;&gt;Node2 -->
<g id="edge3" class="edge"><title>Node4&#45;&gt;Node2</title>
<path fill="none" stroke="midnightblue" d="M177.94,-121.502C196.496,-137.999 226.8,-163.383 256,-181 261.73,-184.457 268.202,-187.649 274.351,-190.391"/>
<polygon fill="midnightblue" stroke="midnightblue" points="180.059,-118.7 170.287,-114.607 175.374,-123.901 180.059,-118.7"/>
</g>
<!-- Node5 -->
<g id="node5" class="node"><title>Node5</title>
<g id="a_node5"><a xlink:href="class_i_plug_a_u.html" target="_top" xlink:title="AudioUnit v2 API base class for an IPlug plug&#45;in, inherits from IPlugBase. ">
<polygon fill="white" stroke="black" points="273.5,-152.5 273.5,-171.5 326.5,-171.5 326.5,-152.5 273.5,-152.5"/>
<text text-anchor="middle" x="300" y="-159.5" font-family="Helvetica,sans-Serif" font-size="10.00">IPlugAU</text>
</a>
</g>
</g>
<!-- Node4&#45;&gt;Node5 -->
<g id="edge4" class="edge"><title>Node4&#45;&gt;Node5</title>
<path fill="none" stroke="midnightblue" d="M192.533,-118.341C218.026,-128.795 252.88,-143.087 275.659,-152.428"/>
<polygon fill="midnightblue" stroke="midnightblue" points="193.846,-115.096 183.265,-114.541 191.19,-121.573 193.846,-115.096"/>
</g>
<!-- Node6 -->
<g id="node6" class="node"><title>Node6</title>
<g id="a_node6"><a xlink:href="class_i_plug_standalone.html" target="_top" xlink:title="Standalone application base class for an IPlug plug&#45;in, inherits from IPlugBase. ">
<polygon fill="white" stroke="black" points="256,-114.5 256,-133.5 344,-133.5 344,-114.5 256,-114.5"/>
<text text-anchor="middle" x="300" y="-121.5" font-family="Helvetica,sans-Serif" font-size="10.00">IPlugStandalone</text>
</a>
</g>
</g>
<!-- Node4&#45;&gt;Node6 -->
<g id="edge5" class="edge"><title>Node4&#45;&gt;Node6</title>
<path fill="none" stroke="midnightblue" d="M219.868,-113.183C232.019,-114.844 244.57,-116.56 255.997,-118.122"/>
<polygon fill="midnightblue" stroke="midnightblue" points="220.171,-109.692 209.79,-111.806 219.223,-116.628 220.171,-109.692"/>
</g>
<!-- Node7 -->
<g id="node7" class="node"><title>Node7</title>
<g id="a_node7"><a xlink:href="class_i_plug_v_s_t.html" target="_top" xlink:title="VST2.4 API base class for an IPlug plug&#45;in, inherits from IPlugBase. ">
<polygon fill="white" stroke="black" points="270.5,-76.5 270.5,-95.5 329.5,-95.5 329.5,-76.5 270.5,-76.5"/>
<text text-anchor="middle" x="300" y="-83.5" font-family="Helvetica,sans-Serif" font-size="10.00">IPlugVST</text>
</a>
</g>
</g>
<!-- Node4&#45;&gt;Node7 -->
<g id="edge6" class="edge"><title>Node4&#45;&gt;Node7</title>
<path fill="none" stroke="midnightblue" d="M219.921,-96.8094C237.347,-94.4275 255.591,-91.9336 270.16,-89.9422"/>
<polygon fill="midnightblue" stroke="midnightblue" points="219.223,-93.3721 209.79,-98.1942 220.171,-100.308 219.223,-93.3721"/>
</g>
<!-- Node8 -->
<g id="node8" class="node"><title>Node8</title>
<g id="a_node8"><a xlink:href="class_i_plug_v_s_t3.html" target="_top" xlink:title="VST3 base class for an IPlug plug&#45;in, inherits from IPlugBase. ">
<polygon fill="white" stroke="black" points="268,-0.5 268,-19.5 332,-19.5 332,-0.5 268,-0.5"/>
<text text-anchor="middle" x="300" y="-7.5" font-family="Helvetica,sans-Serif" font-size="10.00">IPlugVST3</text>
</a>
</g>
</g>
<!-- Node4&#45;&gt;Node8 -->
<g id="edge7" class="edge"><title>Node4&#45;&gt;Node8</title>
<path fill="none" stroke="midnightblue" d="M177.94,-88.4981C196.496,-72.0007 226.8,-46.6169 256,-29 261.73,-25.5428 268.202,-22.351 274.351,-19.6092"/>
<polygon fill="midnightblue" stroke="midnightblue" points="175.374,-86.0991 170.287,-95.3928 180.059,-91.2998 175.374,-86.0991"/>
</g>
<!-- Node9 -->
<g id="node9" class="node"><title>Node9</title>
<g id="a_node9"><a xlink:href="class_i_plug_w_a_m.html" target="_top" xlink:title="Web Audio Module (WAM) API base class for an IPlug plug&#45;in, inherits from IPlugBase. ">
<polygon fill="white" stroke="black" points="268,-38.5 268,-57.5 332,-57.5 332,-38.5 268,-38.5"/>
<text text-anchor="middle" x="300" y="-45.5" font-family="Helvetica,sans-Serif" font-size="10.00">IPlugWAM</text>
</a>
</g>
</g>
<!-- Node4&#45;&gt;Node9 -->
<g id="edge8" class="edge"><title>Node4&#45;&gt;Node9</title>
<path fill="none" stroke="midnightblue" d="M192.533,-91.6591C218.026,-81.205 252.88,-66.9126 275.659,-57.5716"/>
<polygon fill="midnightblue" stroke="midnightblue" points="191.19,-88.427 183.265,-95.4595 193.846,-94.9036 191.19,-88.427"/>
</g>
<!-- Node10 -->
<g id="node10" class="node"><title>Node10</title>
<polygon fill="white" stroke="#bfbfbf" points="99,-0.5 99,-19.5 219,-19.5 219,-0.5 99,-0.5"/>
<text text-anchor="middle" x="159" y="-7.5" font-family="Helvetica,sans-Serif" font-size="10.00">SingleComponentEffect</text>
</g>
<!-- Node10&#45;&gt;Node8 -->
<g id="edge9" class="edge"><title>Node10&#45;&gt;Node8</title>
<path fill="none" stroke="midnightblue" d="M229.579,-10C242.996,-10 256.409,-10 267.818,-10"/>
<polygon fill="midnightblue" stroke="midnightblue" points="229.352,-6.5001 219.352,-10 229.352,-13.5001 229.352,-6.5001"/>
</g>
</g>
</svg>
