<?xml version="1.0" encoding="UTF-8" standalone="no"?>
<!DOCTYPE svg PUBLIC "-//W3C//DTD SVG 1.1//EN"
 "http://www.w3.org/Graphics/SVG/1.1/DTD/svg11.dtd">
<!-- Generated by graphviz version 2.36.0 (20140111.2315)
 -->
<!-- Title: Graphical Class Hierarchy Pages: 1 -->
<svg width="536pt" height="465pt"
 viewBox="0.00 0.00 536.00 465.00" xmlns="http://www.w3.org/2000/svg" xmlns:xlink="http://www.w3.org/1999/xlink">
<g id="graph0" class="graph" transform="scale(1 1) rotate(0) translate(4 461)">
<title>Graphical Class Hierarchy</title>
<polygon fill="white" stroke="none" points="-4,4 -4,-461 532,-461 532,4 -4,4"/>
<!-- Node1 -->
<g id="node1" class="node"><title>Node1</title>
<g id="a_node1"><a xlink:href="class_i_control.html" target="_top" xlink:title="The lowest level base class of an IGraphics control. ">
<polygon fill="white" stroke="black" points="0.5,-190.5 0.5,-209.5 51.5,-209.5 51.5,-190.5 0.5,-190.5"/>
<text text-anchor="middle" x="26" y="-197.5" font-family="Helvetica,sans-Serif" font-size="10.00">IControl</text>
</a>
</g>
</g>
<!-- Node2 -->
<g id="node2" class="node"><title>Node2</title>
<g id="a_node2"><a xlink:href="class_i_bitmap_control.html" target="_top" xlink:title="A basic control to draw a bitmap, or one frame of a stacked bitmap depending on the current value...">
<polygon fill="white" stroke="black" points="106,-380.5 106,-399.5 188,-399.5 188,-380.5 106,-380.5"/>
<text text-anchor="middle" x="147" y="-387.5" font-family="Helvetica,sans-Serif" font-size="10.00">IBitmapControl</text>
</a>
</g>
</g>
<!-- Node1&#45;&gt;Node2 -->
<g id="edge1" class="edge"><title>Node1&#45;&gt;Node2</title>
<path fill="none" stroke="midnightblue" d="M28.4961,-219.684C32.2274,-254.95 45.0152,-329.122 88,-371 93.0091,-375.88 99.2905,-379.507 105.855,-382.202"/>
<polygon fill="midnightblue" stroke="midnightblue" points="31.9783,-219.329 27.5761,-209.692 25.0077,-219.97 31.9783,-219.329"/>
</g>
<!-- Node8 -->
<g id="node8" class="node"><title>Node8</title>
<g id="a_node8"><a xlink:href="class_i_bitmap_text_control.html" target="_top" xlink:title="Display monospace bitmap font text. ">
<polygon fill="white" stroke="black" points="96.5,-342.5 96.5,-361.5 197.5,-361.5 197.5,-342.5 96.5,-342.5"/>
<text text-anchor="middle" x="147" y="-349.5" font-family="Helvetica,sans-Serif" font-size="10.00">IBitmapTextControl</text>
</a>
</g>
</g>
<!-- Node1&#45;&gt;Node8 -->
<g id="edge7" class="edge"><title>Node1&#45;&gt;Node8</title>
<path fill="none" stroke="midnightblue" d="M30.8089,-219.685C37.4111,-248.589 53.701,-302.387 88,-333 92.3479,-336.881 97.5047,-339.971 102.922,-342.431"/>
<polygon fill="midnightblue" stroke="midnightblue" points="34.1696,-218.661 28.6724,-209.604 27.3217,-220.112 34.1696,-218.661"/>
</g>
<!-- Node9 -->
<g id="node9" class="node"><title>Node9</title>
<g id="a_node9"><a xlink:href="class_i_fader_control.html" target="_top" xlink:title="A fader with a bitmap for the handle. ">
<polygon fill="white" stroke="black" points="109,-304.5 109,-323.5 185,-323.5 185,-304.5 109,-304.5"/>
<text text-anchor="middle" x="147" y="-311.5" font-family="Helvetica,sans-Serif" font-size="10.00">IFaderControl</text>
</a>
</g>
</g>
<!-- Node1&#45;&gt;Node9 -->
<g id="edge8" class="edge"><title>Node1&#45;&gt;Node9</title>
<path fill="none" stroke="midnightblue" d="M34.5056,-218.98C43.9126,-240.411 62.0174,-274.906 88,-295 94.1188,-299.732 101.464,-303.31 108.839,-306.008"/>
<polygon fill="midnightblue" stroke="midnightblue" points="37.6807,-217.501 30.5899,-209.628 31.2239,-220.204 37.6807,-217.501"/>
</g>
<!-- Node10 -->
<g id="node10" class="node"><title>Node10</title>
<g id="a_node10"><a xlink:href="class_i_file_selector_control.html" target="_top" xlink:title="A control to allow selection of a file from the file system. ">
<polygon fill="white" stroke="black" points="95.5,-266.5 95.5,-285.5 198.5,-285.5 198.5,-266.5 95.5,-266.5"/>
<text text-anchor="middle" x="147" y="-273.5" font-family="Helvetica,sans-Serif" font-size="10.00">IFileSelectorControl</text>
</a>
</g>
</g>
<!-- Node1&#45;&gt;Node10 -->
<g id="edge9" class="edge"><title>Node1&#45;&gt;Node10</title>
<path fill="none" stroke="midnightblue" d="M41.7991,-217.416C53.2794,-229.962 70.1925,-246.469 88,-257 94.3844,-260.775 101.614,-263.907 108.749,-266.464"/>
<polygon fill="midnightblue" stroke="midnightblue" points="44.3389,-215.005 35.0846,-209.847 39.1022,-219.65 44.3389,-215.005"/>
</g>
<!-- Node11 -->
<g id="node11" class="node"><title>Node11</title>
<g id="a_node11"><a xlink:href="class_i_invisible_switch_control.html" target="_top" xlink:title="On/Off switch that has a target area only. ">
<polygon fill="white" stroke="black" points="88.5,-228.5 88.5,-247.5 205.5,-247.5 205.5,-228.5 88.5,-228.5"/>
<text text-anchor="middle" x="147" y="-235.5" font-family="Helvetica,sans-Serif" font-size="10.00">IInvisibleSwitchControl</text>
</a>
</g>
</g>
<!-- Node1&#45;&gt;Node11 -->
<g id="edge10" class="edge"><title>Node1&#45;&gt;Node11</title>
<path fill="none" stroke="midnightblue" d="M61.3505,-210.969C78.5883,-216.474 99.2776,-223.08 115.887,-228.384"/>
<polygon fill="midnightblue" stroke="midnightblue" points="62.2477,-207.582 51.6569,-207.874 60.1183,-214.25 62.2477,-207.582"/>
</g>
<!-- Node12 -->
<g id="node12" class="node"><title>Node12</title>
<g id="a_node12"><a xlink:href="class_i_keyboard_control.html" target="_top" xlink:title="A (musical) keyboard control. ">
<polygon fill="white" stroke="black" points="101,-190.5 101,-209.5 193,-209.5 193,-190.5 101,-190.5"/>
<text text-anchor="middle" x="147" y="-197.5" font-family="Helvetica,sans-Serif" font-size="10.00">IKeyboardControl</text>
</a>
</g>
</g>
<!-- Node1&#45;&gt;Node12 -->
<g id="edge11" class="edge"><title>Node1&#45;&gt;Node12</title>
<path fill="none" stroke="midnightblue" d="M61.8418,-200C73.9946,-200 87.8148,-200 100.693,-200"/>
<polygon fill="midnightblue" stroke="midnightblue" points="61.6569,-196.5 51.6569,-200 61.6568,-203.5 61.6569,-196.5"/>
</g>
<!-- Node13 -->
<g id="node13" class="node"><title>Node13</title>
<g id="a_node13"><a xlink:href="class_i_knob_control.html" target="_top" xlink:title="Parent for knobs, to handle mouse action and ballistics. ">
<polygon fill="white" stroke="black" points="110,-152.5 110,-171.5 184,-171.5 184,-152.5 110,-152.5"/>
<text text-anchor="middle" x="147" y="-159.5" font-family="Helvetica,sans-Serif" font-size="10.00">IKnobControl</text>
</a>
</g>
</g>
<!-- Node1&#45;&gt;Node13 -->
<g id="edge12" class="edge"><title>Node1&#45;&gt;Node13</title>
<path fill="none" stroke="midnightblue" d="M61.3505,-189.031C78.5883,-183.526 99.2776,-176.92 115.887,-171.616"/>
<polygon fill="midnightblue" stroke="midnightblue" points="60.1183,-185.75 51.6569,-192.126 62.2477,-192.418 60.1183,-185.75"/>
</g>
<!-- Node18 -->
<g id="node18" class="node"><title>Node18</title>
<g id="a_node18"><a xlink:href="class_i_panel_control.html" target="_top" xlink:title="A basic control to fill a rectangle with a color. ">
<polygon fill="white" stroke="black" points="109,-114.5 109,-133.5 185,-133.5 185,-114.5 109,-114.5"/>
<text text-anchor="middle" x="147" y="-121.5" font-family="Helvetica,sans-Serif" font-size="10.00">IPanelControl</text>
</a>
</g>
</g>
<!-- Node1&#45;&gt;Node18 -->
<g id="edge17" class="edge"><title>Node1&#45;&gt;Node18</title>
<path fill="none" stroke="midnightblue" d="M41.7991,-182.584C53.2794,-170.038 70.1925,-153.531 88,-143 94.3844,-139.225 101.614,-136.093 108.749,-133.536"/>
<polygon fill="midnightblue" stroke="midnightblue" points="39.1022,-180.35 35.0846,-190.153 44.3389,-184.995 39.1022,-180.35"/>
</g>
<!-- Node19 -->
<g id="node19" class="node"><title>Node19</title>
<g id="a_node19"><a xlink:href="class_i_radio_buttons_control.html" target="_top" xlink:title="A set of buttons that maps to a single selection. ">
<polygon fill="white" stroke="black" points="92,-76.5 92,-95.5 202,-95.5 202,-76.5 92,-76.5"/>
<text text-anchor="middle" x="147" y="-83.5" font-family="Helvetica,sans-Serif" font-size="10.00">IRadioButtonsControl</text>
</a>
</g>
</g>
<!-- Node1&#45;&gt;Node19 -->
<g id="edge18" class="edge"><title>Node1&#45;&gt;Node19</title>
<path fill="none" stroke="midnightblue" d="M34.5056,-181.02C43.9126,-159.589 62.0174,-125.094 88,-105 93.0291,-101.111 98.8869,-98.0008 104.909,-95.5186"/>
<polygon fill="midnightblue" stroke="midnightblue" points="31.2239,-179.796 30.5899,-190.372 37.6807,-182.499 31.2239,-179.796"/>
</g>
<!-- Node20 -->
<g id="node20" class="node"><title>Node20</title>
<g id="a_node20"><a xlink:href="class_i_text_control.html" target="_top" xlink:title="A basic control to output text to the screen. ">
<polygon fill="white" stroke="black" points="111.5,-38.5 111.5,-57.5 182.5,-57.5 182.5,-38.5 111.5,-38.5"/>
<text text-anchor="middle" x="147" y="-45.5" font-family="Helvetica,sans-Serif" font-size="10.00">ITextControl</text>
</a>
</g>
</g>
<!-- Node1&#45;&gt;Node20 -->
<g id="edge19" class="edge"><title>Node1&#45;&gt;Node20</title>
<path fill="none" stroke="midnightblue" d="M30.8089,-180.315C37.4111,-151.411 53.701,-97.6129 88,-67 94.5613,-61.1438 102.965,-57.0878 111.326,-54.2802"/>
<polygon fill="midnightblue" stroke="midnightblue" points="27.3217,-179.888 28.6724,-190.396 34.1696,-181.339 27.3217,-179.888"/>
</g>
<!-- Node22 -->
<g id="node22" class="node"><title>Node22</title>
<g id="a_node22"><a xlink:href="class_i_u_r_l_control.html" target="_top" xlink:title="Clickable URL area. ">
<polygon fill="white" stroke="black" points="111.5,-0.5 111.5,-19.5 182.5,-19.5 182.5,-0.5 111.5,-0.5"/>
<text text-anchor="middle" x="147" y="-7.5" font-family="Helvetica,sans-Serif" font-size="10.00">IURLControl</text>
</a>
</g>
</g>
<!-- Node1&#45;&gt;Node22 -->
<g id="edge21" class="edge"><title>Node1&#45;&gt;Node22</title>
<path fill="none" stroke="midnightblue" d="M28.4961,-180.316C32.2274,-145.05 45.0152,-70.8779 88,-29 94.3752,-22.7889 102.811,-18.6082 111.269,-15.7942"/>
<polygon fill="midnightblue" stroke="midnightblue" points="25.0077,-180.03 27.5761,-190.308 31.9783,-180.671 25.0077,-180.03"/>
</g>
<!-- Node3 -->
<g id="node3" class="node"><title>Node3</title>
<g id="a_node3"><a xlink:href="class_i_switch_control.html" target="_top" xlink:title="A switch. ">
<polygon fill="white" stroke="black" points="268.5,-380.5 268.5,-399.5 349.5,-399.5 349.5,-380.5 268.5,-380.5"/>
<text text-anchor="middle" x="309" y="-387.5" font-family="Helvetica,sans-Serif" font-size="10.00">ISwitchControl</text>
</a>
</g>
</g>
<!-- Node2&#45;&gt;Node3 -->
<g id="edge2" class="edge"><title>Node2&#45;&gt;Node3</title>
<path fill="none" stroke="midnightblue" d="M198.47,-390C221.07,-390 247.329,-390 268.469,-390"/>
<polygon fill="midnightblue" stroke="midnightblue" points="198.375,-386.5 188.375,-390 198.375,-393.5 198.375,-386.5"/>
</g>
<!-- Node4 -->
<g id="node4" class="node"><title>Node4</title>
<g id="a_node4"><a xlink:href="class_i_bitmap_overlay_control.html" target="_top" xlink:title="Bitmap shows when value = 0, then toggles its target area to the whole bitmap and waits for another c...">
<polygon fill="white" stroke="black" points="412,-437.5 412,-456.5 528,-456.5 528,-437.5 412,-437.5"/>
<text text-anchor="middle" x="470" y="-444.5" font-family="Helvetica,sans-Serif" font-size="10.00">IBitmapOverlayControl</text>
</a>
</g>
</g>
<!-- Node3&#45;&gt;Node4 -->
<g id="edge3" class="edge"><title>Node3&#45;&gt;Node4</title>
<path fill="none" stroke="midnightblue" d="M344.539,-403.209C364.243,-410.658 389.437,-420.039 412,-428 420.952,-431.158 430.741,-434.472 439.643,-437.432"/>
<polygon fill="midnightblue" stroke="midnightblue" points="345.653,-399.888 335.062,-399.615 343.171,-406.433 345.653,-399.888"/>
</g>
<!-- Node5 -->
<g id="node5" class="node"><title>Node5</title>
<g id="a_node5"><a xlink:href="class_i_contact_control.html" target="_top" xlink:title="A switch that reverts to 0.0 when released. ">
<polygon fill="white" stroke="black" points="427,-399.5 427,-418.5 513,-418.5 513,-399.5 427,-399.5"/>
<text text-anchor="middle" x="470" y="-406.5" font-family="Helvetica,sans-Serif" font-size="10.00">IContactControl</text>
</a>
</g>
</g>
<!-- Node3&#45;&gt;Node5 -->
<g id="edge4" class="edge"><title>Node3&#45;&gt;Node5</title>
<path fill="none" stroke="midnightblue" d="M359.651,-395.933C381.175,-398.505 406.114,-401.485 426.736,-403.95"/>
<polygon fill="midnightblue" stroke="midnightblue" points="360.057,-392.457 349.712,-394.745 359.226,-399.407 360.057,-392.457"/>
</g>
<!-- Node6 -->
<g id="node6" class="node"><title>Node6</title>
<g id="a_node6"><a xlink:href="class_i_switch_frames_control.html" target="_top" xlink:title="A switch where each frame of the bitmap contains images for multiple button states. ">
<polygon fill="white" stroke="black" points="413,-361.5 413,-380.5 527,-380.5 527,-361.5 413,-361.5"/>
<text text-anchor="middle" x="470" y="-368.5" font-family="Helvetica,sans-Serif" font-size="10.00">ISwitchFramesControl</text>
</a>
</g>
</g>
<!-- Node3&#45;&gt;Node6 -->
<g id="edge5" class="edge"><title>Node3&#45;&gt;Node6</title>
<path fill="none" stroke="midnightblue" d="M359.861,-384.042C376.639,-382.037 395.473,-379.786 412.711,-377.726"/>
<polygon fill="midnightblue" stroke="midnightblue" points="359.226,-380.593 349.712,-385.255 360.057,-387.543 359.226,-380.593"/>
</g>
<!-- Node7 -->
<g id="node7" class="node"><title>Node7</title>
<g id="a_node7"><a xlink:href="class_i_switch_pop_up_control.html" target="_top" xlink:title="Like ISwitchControl except it puts up a popup menu instead of cycling through states on click...">
<polygon fill="white" stroke="black" points="414.5,-323.5 414.5,-342.5 525.5,-342.5 525.5,-323.5 414.5,-323.5"/>
<text text-anchor="middle" x="470" y="-330.5" font-family="Helvetica,sans-Serif" font-size="10.00">ISwitchPopUpControl</text>
</a>
</g>
</g>
<!-- Node3&#45;&gt;Node7 -->
<g id="edge6" class="edge"><title>Node3&#45;&gt;Node7</title>
<path fill="none" stroke="midnightblue" d="M344.539,-376.791C364.243,-369.342 389.437,-359.961 412,-352 420.952,-348.842 430.741,-345.528 439.643,-342.568"/>
<polygon fill="midnightblue" stroke="midnightblue" points="343.171,-373.567 335.062,-380.385 345.653,-380.112 343.171,-373.567"/>
</g>
<!-- Node14 -->
<g id="node14" class="node"><title>Node14</title>
<g id="a_node14"><a xlink:href="class_i_knob_line_control.html" target="_top" xlink:title="A knob that is just a line. ">
<polygon fill="white" stroke="black" points="263,-209.5 263,-228.5 355,-228.5 355,-209.5 263,-209.5"/>
<text text-anchor="middle" x="309" y="-216.5" font-family="Helvetica,sans-Serif" font-size="10.00">IKnobLineControl</text>
</a>
</g>
</g>
<!-- Node13&#45;&gt;Node14 -->
<g id="edge13" class="edge"><title>Node13&#45;&gt;Node14</title>
<path fill="none" stroke="midnightblue" d="M190.168,-174.882C195.548,-176.797 200.94,-178.854 206,-181 222.656,-188.063 225.219,-193.24 242,-200 250.848,-203.564 260.611,-206.757 269.854,-209.461"/>
<polygon fill="midnightblue" stroke="midnightblue" points="191.165,-171.524 180.57,-171.599 188.899,-178.147 191.165,-171.524"/>
</g>
<!-- Node15 -->
<g id="node15" class="node"><title>Node15</title>
<g id="a_node15"><a xlink:href="class_i_knob_multi_control.html" target="_top" xlink:title="A multibitmap knob. ">
<polygon fill="white" stroke="black" points="261.5,-171.5 261.5,-190.5 356.5,-190.5 356.5,-171.5 261.5,-171.5"/>
<text text-anchor="middle" x="309" y="-178.5" font-family="Helvetica,sans-Serif" font-size="10.00">IKnobMultiControl</text>
</a>
</g>
</g>
<!-- Node13&#45;&gt;Node15 -->
<g id="edge14" class="edge"><title>Node13&#45;&gt;Node15</title>
<path fill="none" stroke="midnightblue" d="M194.327,-167.501C215.433,-170.008 240.365,-172.968 261.493,-175.477"/>
<polygon fill="midnightblue" stroke="midnightblue" points="194.649,-164.015 184.306,-166.311 193.824,-170.966 194.649,-164.015"/>
</g>
<!-- Node16 -->
<g id="node16" class="node"><title>Node16</title>
<g id="a_node16"><a xlink:href="class_i_knob_rotater_control.html" target="_top" xlink:title="A rotating knob. ">
<polygon fill="white" stroke="black" points="256,-133.5 256,-152.5 362,-152.5 362,-133.5 256,-133.5"/>
<text text-anchor="middle" x="309" y="-140.5" font-family="Helvetica,sans-Serif" font-size="10.00">IKnobRotaterControl</text>
</a>
</g>
</g>
<!-- Node13&#45;&gt;Node16 -->
<g id="edge15" class="edge"><title>Node13&#45;&gt;Node16</title>
<path fill="none" stroke="midnightblue" d="M194.331,-156.498C213.555,-154.215 235.951,-151.556 255.757,-149.204"/>
<polygon fill="midnightblue" stroke="midnightblue" points="193.824,-153.034 184.306,-157.689 194.649,-159.985 193.824,-153.034"/>
</g>
<!-- Node17 -->
<g id="node17" class="node"><title>Node17</title>
<g id="a_node17"><a xlink:href="class_i_knob_rotating_mask_control.html" target="_top" xlink:title="A knob that consists of a static base, a rotating mask, and a rotating top. ">
<polygon fill="white" stroke="black" points="242,-95.5 242,-114.5 376,-114.5 376,-95.5 242,-95.5"/>
<text text-anchor="middle" x="309" y="-102.5" font-family="Helvetica,sans-Serif" font-size="10.00">IKnobRotatingMaskControl</text>
</a>
</g>
</g>
<!-- Node13&#45;&gt;Node17 -->
<g id="edge16" class="edge"><title>Node13&#45;&gt;Node17</title>
<path fill="none" stroke="midnightblue" d="M190.168,-149.118C195.548,-147.203 200.94,-145.146 206,-143 222.656,-135.937 225.219,-130.76 242,-124 250.848,-120.436 260.611,-117.243 269.854,-114.539"/>
<polygon fill="midnightblue" stroke="midnightblue" points="188.899,-145.853 180.57,-152.401 191.165,-152.476 188.899,-145.853"/>
</g>
<!-- Node21 -->
<g id="node21" class="node"><title>Node21</title>
<g id="a_node21"><a xlink:href="class_i_caption_control.html" target="_top" xlink:title="Displays the value of a parameter. ">
<polygon fill="white" stroke="black" points="266.5,-38.5 266.5,-57.5 351.5,-57.5 351.5,-38.5 266.5,-38.5"/>
<text text-anchor="middle" x="309" y="-45.5" font-family="Helvetica,sans-Serif" font-size="10.00">ICaptionControl</text>
</a>
</g>
</g>
<!-- Node20&#45;&gt;Node21 -->
<g id="edge20" class="edge"><title>Node20&#45;&gt;Node21</title>
<path fill="none" stroke="midnightblue" d="M192.907,-48C215.903,-48 243.723,-48 266.251,-48"/>
<polygon fill="midnightblue" stroke="midnightblue" points="192.718,-44.5001 182.718,-48 192.718,-51.5001 192.718,-44.5001"/>
</g>
</g>
</svg>
